<svg width="452" height="401" viewBox="0 0 452 401" fill="none" xmlns="http://www.w3.org/2000/svg">
<path d="M451.935 261.42L361.156 271.606L415.367 345.13L451.935 261.42Z" fill="#DADADA"/>
<path d="M125.437 68.2697L92.8425 36.5807L81.6973 80.6531L125.437 68.2697Z" fill="#D1D1D1"/>
<path d="M177.7 372.316L107.59 299.143L291.202 148.125L370.823 238.195L177.7 372.316Z" fill="#D5D5D5"/>
<path d="M93.8209 395.859C85.8607 398.954 77.3928 400.537 68.8519 400.527C30.8311 400.527 9.87263e-05 369.7 9.87263e-05 331.669C-0.024306 317.289 4.47641 303.265 12.8648 291.584C50.3375 316.118 79.3309 353.475 93.8209 395.859Z" fill="#E0E0E0"/>
<path d="M270.768 156.576C270.382 156.576 270.008 156.442 269.711 156.197C269.413 155.952 269.21 155.611 269.136 155.233C269.062 154.854 269.123 154.462 269.307 154.123C269.491 153.784 269.787 153.52 270.144 153.376C270.502 153.231 270.898 153.216 271.266 153.332C271.634 153.448 271.95 153.689 272.159 154.012C272.369 154.336 272.46 154.722 272.415 155.105C272.371 155.488 272.195 155.844 271.917 156.111V156.117C271.608 156.413 271.196 156.578 270.768 156.576Z" fill="black"/>
<path d="M237.975 163.061H237.97C237.53 163.06 237.109 162.885 236.799 162.574C236.488 162.262 236.314 161.841 236.314 161.401C236.315 160.962 236.49 160.54 236.801 160.23C237.112 159.919 237.533 159.745 237.973 159.745C238.412 159.745 238.834 159.919 239.145 160.23C239.456 160.54 239.63 160.962 239.631 161.401C239.631 161.841 239.457 162.262 239.147 162.574C238.836 162.885 238.415 163.06 237.975 163.061Z" fill="black"/>
<path d="M284.483 143.454C284.172 143.454 283.867 143.367 283.604 143.202C283.34 143.037 283.128 142.801 282.993 142.521C282.857 142.241 282.802 141.929 282.836 141.62C282.869 141.311 282.989 141.017 283.181 140.773C286.847 136.11 290.079 130.809 292.79 125.018C292.882 124.821 293.012 124.644 293.173 124.497C293.333 124.351 293.521 124.237 293.726 124.163C293.931 124.089 294.148 124.055 294.365 124.065C294.583 124.075 294.796 124.128 294.993 124.22C295.19 124.312 295.367 124.442 295.514 124.603C295.661 124.764 295.775 124.952 295.849 125.156C295.923 125.361 295.956 125.578 295.946 125.796C295.936 126.013 295.884 126.226 295.792 126.423C292.975 132.439 289.608 137.96 285.787 142.821C285.632 143.019 285.434 143.179 285.208 143.288C284.982 143.398 284.734 143.455 284.483 143.454Z" fill="black"/>
<path d="M223.799 155.293C223.403 155.293 223.02 155.152 222.72 154.894C221.407 153.763 220.16 152.56 218.982 151.289C209.958 141.574 204.007 127.217 202.225 110.862C200.621 96.0874 202.323 81.2059 207.287 66.632C209.373 60.4987 212.09 54.5984 215.394 49.0255C215.619 48.6481 215.986 48.3757 216.412 48.2685C216.839 48.1612 217.291 48.2278 217.668 48.4535C218.045 48.6793 218.318 49.0457 218.425 49.4723C218.532 49.8988 218.466 50.3505 218.24 50.728C215.053 56.101 212.432 61.7904 210.419 67.7046C205.615 81.8131 203.965 96.2145 205.515 110.505C207.217 126.153 212.864 139.836 221.404 149.033C222.497 150.212 223.655 151.329 224.873 152.379C225.13 152.599 225.313 152.893 225.398 153.221C225.483 153.549 225.465 153.895 225.347 154.212C225.23 154.53 225.017 154.804 224.739 154.997C224.461 155.19 224.131 155.294 223.792 155.293H223.799Z" fill="black"/>
<path d="M294.291 127.379C293.906 127.38 293.533 127.247 293.236 127.002C292.938 126.758 292.735 126.417 292.662 126.039C292.588 125.662 292.648 125.27 292.832 124.932C293.015 124.593 293.311 124.329 293.668 124.185C299.057 122.001 304.104 118.415 308.265 113.815C311.062 110.723 313.137 107.498 314.43 104.232C315.92 100.465 316.399 96.4983 315.777 93.0617C315.11 89.3629 313.151 86.2803 310.538 84.8151C309.59 84.287 308.537 83.9761 307.455 83.9048C306.372 83.8336 305.287 84.0038 304.279 84.4031C303.87 84.566 303.414 84.5599 303.01 84.3864C302.606 84.2128 302.288 83.8859 302.125 83.4776C301.962 83.0693 301.968 82.613 302.142 82.2091C302.315 81.8052 302.642 81.4868 303.051 81.324C304.519 80.7435 306.099 80.4964 307.675 80.6004C309.25 80.7045 310.784 81.157 312.163 81.9255C315.626 83.8674 318.198 87.8114 319.039 92.4715C319.77 96.5074 319.226 101.118 317.511 105.452C316.072 109.084 313.787 112.651 310.722 116.039C306.23 121.006 300.763 124.891 294.913 127.258C294.715 127.338 294.504 127.379 294.291 127.379Z" fill="black"/>
<path d="M238.544 112.638C238.709 112.665 238.877 112.684 239.047 112.696C240.804 112.831 242.469 112.339 243.893 111.864C244.015 111.827 244.13 111.765 244.228 111.683C244.327 111.6 244.408 111.499 244.467 111.385C244.526 111.271 244.562 111.146 244.572 111.018C244.582 110.89 244.566 110.761 244.525 110.639C244.485 110.517 244.42 110.405 244.336 110.308C244.251 110.211 244.148 110.133 244.032 110.076C243.917 110.02 243.791 109.988 243.663 109.981C243.535 109.974 243.406 109.993 243.285 110.036C242.037 110.449 240.593 110.882 239.2 110.775C237.874 110.681 236.703 110.005 236.219 109.072C235.848 108.351 235.797 107.354 236.068 106.122C236.474 104.272 237.345 102.556 238.599 101.137C238.683 101.042 238.747 100.932 238.788 100.812C238.829 100.692 238.846 100.565 238.839 100.439C238.831 100.313 238.798 100.189 238.743 100.076C238.687 99.962 238.609 99.8603 238.515 99.7766C238.42 99.6928 238.309 99.6286 238.19 99.5875C238.07 99.5464 237.943 99.5293 237.817 99.5371C237.691 99.545 237.567 99.5776 237.453 99.6332C237.34 99.6888 237.238 99.7663 237.154 99.8611C235.683 101.526 234.661 103.538 234.185 105.708C233.816 107.397 233.923 108.827 234.504 109.958C235.224 111.359 236.748 112.361 238.544 112.638Z" fill="black"/>
<path d="M245.035 110.473C244.908 110.092 244.635 109.776 244.275 109.596C243.916 109.416 243.5 109.385 243.118 109.512C241.924 109.91 240.537 110.324 239.24 110.224C238.117 110.141 237.102 109.579 236.715 108.816C236.4 108.213 236.366 107.34 236.61 106.23C236.996 104.473 237.825 102.843 239.019 101.495C239.216 101.271 239.343 100.992 239.383 100.696C239.423 100.399 239.374 100.097 239.243 99.828C239.112 99.5589 238.904 99.3345 238.646 99.1831C238.388 99.0317 238.091 98.96 237.792 98.9769C237.591 98.9872 237.395 99.038 237.214 99.1262C237.034 99.2143 236.873 99.3381 236.742 99.4899C235.208 101.224 234.143 103.322 233.648 105.583C233.251 107.399 233.372 108.954 234.013 110.203C234.43 110.999 235.044 111.675 235.798 112.164C236.601 112.696 237.512 113.045 238.466 113.185C238.649 113.214 238.825 113.235 239.013 113.247C239.229 113.263 239.444 113.274 239.654 113.274C241.267 113.274 242.77 112.82 244.074 112.39C244.263 112.328 244.438 112.229 244.589 112.098C244.74 111.968 244.864 111.809 244.953 111.631C245.042 111.453 245.096 111.259 245.11 111.06C245.124 110.861 245.098 110.662 245.035 110.473ZM243.962 111.136C243.939 111.184 243.906 111.228 243.865 111.263C243.825 111.298 243.777 111.324 243.725 111.34C242.355 111.794 240.747 112.274 239.096 112.147C238.941 112.136 238.786 112.114 238.632 112.092C236.996 111.837 235.638 110.943 235 109.7C234.481 108.678 234.393 107.379 234.73 105.822C235.184 103.742 236.163 101.814 237.574 100.22C237.61 100.179 237.654 100.145 237.704 100.121C237.753 100.097 237.807 100.084 237.862 100.081C237.915 100.077 237.969 100.084 238.019 100.101C238.069 100.118 238.116 100.145 238.155 100.181C238.237 100.254 238.287 100.357 238.294 100.466C238.301 100.576 238.265 100.684 238.194 100.767C236.876 102.255 235.961 104.056 235.535 105.998C235.237 107.36 235.308 108.484 235.735 109.324C236.303 110.434 237.652 111.219 239.165 111.324C240.658 111.438 242.17 110.993 243.478 110.561C243.527 110.543 243.58 110.536 243.632 110.54C243.685 110.544 243.736 110.559 243.782 110.584C243.832 110.606 243.876 110.639 243.913 110.68C243.949 110.721 243.976 110.769 243.992 110.821C244.023 110.926 244.01 111.039 243.958 111.136H243.962Z" fill="black"/>
<path d="M238.556 128.738C243.938 129.578 249.429 129.406 254.747 128.228C254.997 128.172 255.214 128.02 255.351 127.804C255.488 127.588 255.533 127.327 255.477 127.077C255.421 126.828 255.269 126.611 255.053 126.474C254.837 126.337 254.576 126.292 254.326 126.347C244.355 128.586 233.534 126.975 224.646 121.929C224.536 121.867 224.415 121.826 224.289 121.811C224.164 121.795 224.036 121.805 223.914 121.838C223.792 121.872 223.678 121.929 223.578 122.007C223.479 122.085 223.395 122.182 223.333 122.292C223.27 122.402 223.23 122.523 223.214 122.649C223.199 122.774 223.208 122.902 223.242 123.024C223.275 123.146 223.333 123.26 223.411 123.36C223.488 123.459 223.585 123.543 223.695 123.605C228.298 126.201 233.333 127.94 238.556 128.738Z" fill="black"/>
<path d="M256.018 126.958C255.974 126.763 255.893 126.579 255.778 126.416C255.663 126.252 255.517 126.113 255.348 126.007C255.18 125.9 254.991 125.828 254.795 125.794C254.598 125.76 254.396 125.765 254.202 125.81C244.357 128.019 233.683 126.428 224.92 121.45C224.747 121.35 224.555 121.285 224.357 121.261C224.158 121.236 223.957 121.252 223.765 121.307C223.573 121.358 223.393 121.447 223.237 121.57C223.081 121.692 222.952 121.846 222.857 122.02C222.758 122.193 222.695 122.383 222.67 122.581C222.645 122.778 222.66 122.979 222.712 123.17C222.765 123.362 222.855 123.542 222.977 123.699C223.099 123.856 223.251 123.987 223.424 124.086C225.733 125.396 228.158 126.491 230.667 127.356C235.397 128.978 240.362 129.81 245.362 129.819C248.56 129.82 251.749 129.466 254.869 128.764C255.261 128.676 255.602 128.437 255.817 128.098C256.033 127.759 256.105 127.349 256.018 126.957V126.958ZM245.375 128.709C243.122 128.709 240.873 128.535 238.646 128.191C233.486 127.41 228.512 125.692 223.97 123.123C223.922 123.097 223.88 123.061 223.846 123.018C223.812 122.975 223.787 122.925 223.772 122.872C223.758 122.819 223.754 122.764 223.762 122.71C223.769 122.655 223.788 122.603 223.816 122.556C223.841 122.509 223.875 122.468 223.917 122.436C223.959 122.403 224.007 122.38 224.059 122.367C224.095 122.356 224.134 122.35 224.172 122.35C224.244 122.349 224.316 122.368 224.377 122.406C233.382 127.513 244.353 129.151 254.447 126.881C254.501 126.869 254.556 126.868 254.61 126.877C254.664 126.887 254.716 126.907 254.762 126.937C254.808 126.965 254.847 127.002 254.879 127.046C254.91 127.089 254.932 127.139 254.944 127.191C254.966 127.297 254.946 127.407 254.89 127.5C254.861 127.546 254.823 127.586 254.778 127.617C254.734 127.649 254.683 127.671 254.63 127.682C251.592 128.366 248.489 128.711 245.375 128.709Z" fill="black"/>
<path d="M301.656 111.228C301.876 111.265 302.102 111.225 302.296 111.114C307.753 107.959 311.027 101.623 310.442 95.3452C310.43 95.2192 310.394 95.0967 310.334 94.9848C310.275 94.8729 310.195 94.7737 310.097 94.6929C310 94.6121 309.888 94.5513 309.767 94.514C309.646 94.4766 309.519 94.4635 309.393 94.4752C309.267 94.487 309.144 94.5235 309.032 94.5826C308.92 94.6417 308.821 94.7223 308.74 94.8197C308.66 94.9171 308.599 95.0295 308.561 95.1505C308.524 95.2714 308.511 95.3985 308.523 95.5245C309.031 100.979 306.073 106.704 301.332 109.445C301.16 109.544 301.022 109.694 300.939 109.874C300.855 110.055 300.83 110.256 300.865 110.452C300.901 110.647 300.996 110.827 301.137 110.966C301.279 111.105 301.46 111.198 301.656 111.23V111.228Z" fill="black"/>
<path d="M310.991 95.2918C310.976 95.0911 310.922 94.8953 310.83 94.716C310.739 94.5366 310.612 94.3773 310.458 94.2474C310.305 94.1175 310.127 94.0195 309.934 93.9591C309.742 93.8988 309.54 93.8774 309.34 93.8961C309.139 93.9148 308.945 93.9733 308.767 94.0681C308.589 94.1629 308.432 94.2921 308.305 94.4483C308.178 94.6044 308.084 94.7843 308.027 94.9775C307.97 95.1707 307.952 95.3732 307.975 95.5733C308.462 100.822 305.616 106.33 301.052 108.966C300.781 109.122 300.564 109.358 300.433 109.642C300.302 109.925 300.261 110.243 300.318 110.551C300.374 110.858 300.524 111.141 300.748 111.36C300.971 111.578 301.257 111.723 301.566 111.772C301.648 111.788 301.731 111.796 301.814 111.795C302.08 111.794 302.341 111.723 302.571 111.591C308.213 108.33 311.6 101.777 310.991 95.2918ZM301.75 110.683C301.665 110.67 301.587 110.632 301.525 110.573C301.464 110.514 301.422 110.437 301.406 110.353C301.39 110.269 301.401 110.182 301.437 110.105C301.472 110.027 301.531 109.963 301.605 109.92C306.533 107.076 309.6 101.131 309.074 95.4689C309.065 95.3607 309.098 95.2531 309.168 95.1694C309.237 95.0857 309.336 95.0326 309.444 95.0217C309.553 95.016 309.659 95.0515 309.742 95.121C309.825 95.1905 309.878 95.2888 309.892 95.3962C310.459 101.457 307.296 107.583 302.02 110.633C301.938 110.681 301.843 110.699 301.75 110.683Z" fill="black"/>
<path d="M281.889 79.0347C281.648 79.0351 281.41 78.9828 281.192 78.8817C280.973 78.7805 280.78 78.6329 280.624 78.4491C278.22 75.6162 274.874 73.7468 271.201 73.185C267.528 72.6232 263.776 73.4068 260.634 75.3915C260.45 75.5078 260.245 75.5867 260.031 75.6237C259.816 75.6606 259.597 75.655 259.384 75.6071C259.172 75.5592 258.971 75.47 258.793 75.3445C258.616 75.219 258.464 75.0597 258.348 74.8757C258.232 74.6917 258.153 74.4866 258.116 74.2721C258.079 74.0577 258.085 73.838 258.132 73.6257C258.18 73.4134 258.27 73.2126 258.395 73.0348C258.521 72.857 258.68 72.7056 258.864 72.5893C262.68 70.1779 267.239 69.2258 271.702 69.9084C276.165 70.5909 280.231 72.8621 283.152 76.304C283.356 76.5452 283.488 76.8399 283.53 77.1533C283.573 77.4667 283.525 77.7857 283.392 78.0727C283.259 78.3598 283.047 78.6029 282.781 78.7733C282.515 78.9438 282.205 79.0345 281.889 79.0347Z" fill="black"/>
<path d="M232.744 71.4826C232.503 71.483 232.264 71.4305 232.045 71.329C231.826 71.2274 231.632 71.0792 231.477 70.8947C229.081 68.0546 225.739 66.1756 222.068 65.6036C218.397 65.0315 214.642 65.805 211.496 67.7816C211.311 67.8971 211.105 67.9751 210.89 68.0111C210.676 68.0471 210.456 68.0404 210.243 67.9915C209.815 67.8926 209.443 67.6275 209.209 67.2544C208.976 66.8813 208.901 66.4308 208.999 66.002C209.098 65.5732 209.363 65.2013 209.737 64.968C213.559 62.5663 218.121 61.6265 222.582 62.3216C227.043 63.0167 231.102 65.2999 234.013 68.7508C234.216 68.9922 234.346 69.2864 234.388 69.5991C234.429 69.9118 234.381 70.2298 234.248 70.5158C234.115 70.8019 233.903 71.0441 233.638 71.2139C233.372 71.3838 233.063 71.4742 232.748 71.4747L232.744 71.4826Z" fill="black"/>
<path d="M222.454 91.9005C222.139 91.9003 221.825 91.8718 221.515 91.8153C219.389 91.4238 217.543 89.6589 216.583 87.103C215.822 85.0817 215.693 82.9105 215.626 80.8608C215.619 80.6432 215.655 80.4265 215.731 80.2228C215.808 80.0191 215.924 79.8325 216.073 79.6737C216.222 79.5149 216.4 79.3869 216.599 79.2971C216.797 79.2073 217.011 79.1575 217.228 79.1504C217.446 79.1433 217.663 79.1792 217.866 79.2559C218.07 79.3326 218.257 79.4486 218.416 79.5975C218.574 79.7463 218.702 79.9249 218.792 80.1232C218.882 80.3214 218.932 80.5354 218.939 80.753C219 82.6007 219.102 84.3848 219.686 85.9374C220.219 87.3538 221.172 88.3821 222.117 88.5558C223.622 88.8338 225.021 87.0894 225.408 86.5469C226.062 85.6389 226.558 84.5936 227.083 83.4825C227.177 83.2859 227.308 83.1095 227.469 82.9635C227.631 82.8175 227.819 82.7048 228.024 82.6317C228.229 82.5586 228.447 82.5266 228.664 82.5375C228.882 82.5485 229.095 82.6021 229.291 82.6954C229.488 82.7887 229.664 82.9199 229.81 83.0813C229.956 83.2428 230.069 83.4314 230.142 83.6364C230.215 83.8415 230.247 84.0589 230.236 84.2763C230.225 84.4937 230.172 84.7068 230.078 84.9035C229.511 86.0963 228.928 87.33 228.097 88.4831C226.508 90.694 224.491 91.9005 222.454 91.9005Z" fill="black"/>
<path d="M214.172 87.9678C212.234 87.9718 210.317 87.5713 208.543 86.792C208.152 86.6069 207.848 86.2762 207.698 85.8704C207.547 85.4646 207.561 85.016 207.736 84.6204C207.912 84.2248 208.235 83.9135 208.637 83.753C209.039 83.5926 209.488 83.5957 209.888 83.7617C212.222 84.7844 214.846 84.9354 217.282 84.1873C217.702 84.0565 218.156 84.0978 218.545 84.302C218.934 84.5062 219.227 84.8567 219.357 85.2763C219.488 85.6959 219.447 86.1503 219.243 86.5394C219.038 86.9286 218.688 87.2207 218.268 87.3515C216.942 87.7624 215.561 87.9702 214.172 87.9678Z" fill="black"/>
<path d="M267.895 98.0089C267.581 98.0089 267.267 97.98 266.958 97.9226C264.831 97.531 262.985 95.7662 262.025 93.2114C261.264 91.1878 261.134 89.0121 261.067 86.9692C261.06 86.7517 261.095 86.5348 261.172 86.331C261.248 86.1271 261.364 85.9404 261.512 85.7813C261.661 85.6222 261.839 85.4939 262.038 85.4038C262.236 85.3137 262.45 85.2634 262.667 85.256C262.885 85.2485 263.101 85.284 263.305 85.3604C263.509 85.4367 263.696 85.5525 263.855 85.701C264.014 85.8496 264.142 86.028 264.232 86.2261C264.323 86.4242 264.373 86.6382 264.38 86.8557C264.438 88.6285 264.545 90.4875 265.127 92.0413C265.661 93.4577 266.614 94.486 267.558 94.6596C269.065 94.9354 270.462 93.1921 270.85 92.6508C271.502 91.7428 271.999 90.6975 272.525 89.5864C272.713 89.1892 273.051 88.8831 273.465 88.7354C273.879 88.5877 274.335 88.6104 274.732 88.7987C275.129 88.987 275.435 89.3254 275.583 89.7393C275.731 90.1533 275.708 90.609 275.52 91.0062C274.952 92.2002 274.368 93.4361 273.538 94.5859C271.949 96.8024 269.932 98.0089 267.895 98.0089Z" fill="black"/>
<path d="M259.614 94.0761C257.676 94.0794 255.759 93.6786 253.985 92.8992C253.786 92.8109 253.606 92.6842 253.456 92.5265C253.306 92.3688 253.189 92.1831 253.111 91.9801C253.032 91.777 252.995 91.5605 253.001 91.3429C253.006 91.1254 253.054 90.911 253.143 90.7121C253.231 90.5132 253.357 90.3337 253.515 90.1837C253.673 90.0337 253.859 89.9163 254.062 89.8381C254.265 89.7599 254.481 89.7225 254.699 89.7279C254.916 89.7334 255.131 89.7817 255.33 89.87C257.664 90.8914 260.287 91.0424 262.724 90.2956C263.143 90.1647 263.598 90.2058 263.987 90.4099C264.376 90.614 264.669 90.9644 264.8 91.384C264.931 91.8036 264.889 92.2581 264.685 92.6474C264.481 93.0366 264.131 93.3289 263.711 93.4598C262.384 93.8706 261.003 94.0784 259.614 94.0761Z" fill="black"/>
<path d="M302.554 83.4305C302.141 83.4301 301.742 83.2751 301.437 82.9958C301.132 82.7164 300.942 82.333 300.905 81.921C300.093 72.8051 294.699 64.2362 286.832 59.5625C283.642 57.6648 280.17 56.4073 276.494 55.0749C275.447 54.6958 274.401 54.3156 273.362 53.9217C268.888 52.2193 263.807 49.9494 260.039 45.9555C255.877 41.5451 254.239 35.5242 255.866 30.6166C256.011 30.2081 256.311 29.8728 256.7 29.6824C257.09 29.4921 257.538 29.4618 257.95 29.5982C258.361 29.7346 258.703 30.0268 258.902 30.4121C259.101 30.7974 259.141 31.2453 259.013 31.6597C257.765 35.4266 259.114 40.1446 262.45 43.6811C265.757 47.1847 270.417 49.2571 274.539 50.8233C275.561 51.2115 276.592 51.5849 277.623 51.9583C281.282 53.2839 285.066 54.6561 288.525 56.7137C297.29 61.9266 303.299 71.4738 304.206 81.6305C304.244 82.0682 304.108 82.5035 303.826 82.8406C303.544 83.1776 303.14 83.389 302.702 83.4282C302.653 83.4297 302.604 83.4305 302.554 83.4305Z" fill="black"/>
<path d="M202.7 111.495C202.487 111.495 202.276 111.454 202.079 111.373C193.046 107.718 186.861 98.0031 187.369 88.2731C187.805 79.9346 192.703 72.6335 196.349 67.8679C211.031 48.6781 233.008 34.8169 256.654 29.8402C257.085 29.7499 257.533 29.8341 257.901 30.0744C258.269 30.3147 258.526 30.6914 258.617 31.1215C258.707 31.5517 258.623 32.0001 258.382 32.3681C258.142 32.7361 257.766 32.9936 257.335 33.0839C234.456 37.8995 213.186 51.3123 198.98 69.8824C195.601 74.2985 191.064 81.0265 190.677 88.4457C190.239 96.8091 195.558 105.159 203.32 108.3C203.676 108.445 203.971 108.709 204.155 109.047C204.338 109.385 204.398 109.777 204.324 110.154C204.251 110.532 204.048 110.872 203.752 111.117C203.455 111.361 203.082 111.495 202.698 111.495H202.7Z" fill="black"/>
<path d="M73.7335 269.028C73.623 269.028 73.5127 269.017 73.4044 268.995C56.8727 265.671 27.3571 256.259 15.4152 230.574C7.17654 212.851 9.65981 189.735 21.7414 171.68C32.1228 156.166 49.4342 143.863 70.475 137.037C90.6454 130.492 111.787 129.344 129.807 129.084L130.798 129.069C137.994 128.97 145.439 128.868 151.996 126.212C158.166 123.716 164.406 117.866 164.438 110.437C164.457 106.186 162.497 102.281 160.423 98.1474C158.812 94.9344 157.144 91.6112 156.383 87.9873C153.836 75.8695 161.784 64.6448 168.995 56.22C182.034 40.9828 196.667 27.1846 212.642 15.061C220.587 9.04578 229.304 3.19511 239.293 1.18284C248.527 -0.67848 260.72 1.3213 267.646 8.47603C271.156 2.97606 278.541 0.82419 284.497 2.00681C290.384 3.17581 295.885 6.8871 301.316 13.3643C303.113 15.5071 304.783 17.7804 306.4 19.9799C308.587 22.9557 310.849 26.0326 313.388 28.719C318.73 34.3711 325.564 38.5931 332.174 42.671C338.13 46.346 344.285 50.1469 349.521 55.0488C359.95 64.8162 366.242 78.6558 366.784 93.0208C367.325 107.386 362.093 121.667 352.43 132.208C352.133 132.532 351.719 132.725 351.28 132.744C350.841 132.764 350.413 132.608 350.088 132.311C349.764 132.014 349.572 131.6 349.552 131.161C349.533 130.722 349.689 130.293 349.986 129.969C359.066 120.066 363.98 106.644 363.471 93.1445C362.961 79.6454 357.051 66.6434 347.255 57.4685C342.261 52.7936 336.245 49.0812 330.433 45.4913C323.642 41.2988 316.619 36.9633 310.978 30.9957C308.298 28.1584 305.975 24.9998 303.728 21.9422C302.139 19.7858 300.505 17.5556 298.776 15.4946C293.92 9.70632 288.902 6.25948 283.852 5.25845C278.571 4.20975 271.604 6.5069 269.558 12.0352C269.454 12.3157 269.277 12.5629 269.044 12.7505C268.811 12.9381 268.532 13.0593 268.235 13.101C267.939 13.1428 267.637 13.1037 267.362 12.9878C267.086 12.8719 266.847 12.6835 266.67 12.4427C261.094 4.86689 248.737 2.66168 239.948 4.43334C230.612 6.31395 222.27 11.924 214.646 17.7032C198.86 29.6826 184.402 43.3164 171.518 58.3719C164.802 66.219 157.382 76.5992 159.631 87.303C160.304 90.5058 161.803 93.4941 163.391 96.6572C165.548 100.958 167.779 105.404 167.757 110.448C167.718 119.414 160.44 126.373 153.246 129.288C146.108 132.178 138.351 132.284 130.848 132.388L129.858 132.401C112.081 132.657 91.2481 133.781 71.4999 140.189C51.1604 146.788 34.4676 158.626 24.4982 173.523C13.0465 190.637 10.662 212.481 18.4239 229.175C29.7496 253.537 58.1472 262.543 74.0604 265.746C74.464 265.826 74.8233 266.053 75.0684 266.384C75.3135 266.715 75.4269 267.124 75.3864 267.534C75.3459 267.944 75.1544 268.323 74.8493 268.599C74.5442 268.876 74.1473 269.028 73.7358 269.028H73.7335Z" fill="black"/>
<path d="M239.586 161.78C239.58 161.819 239.569 161.857 239.553 161.893C239.476 162.15 239.335 162.384 239.145 162.574C239.106 162.613 239.066 162.646 239.031 162.678C239.007 162.701 238.981 162.721 238.954 162.74L238.855 162.806C238.778 162.855 238.697 162.898 238.612 162.933C238.566 162.954 238.518 162.971 238.468 162.983L238.413 163L270.925 156.569C270.873 156.574 270.822 156.576 270.77 156.575C270.439 156.574 270.116 156.475 269.842 156.289C269.568 156.104 269.356 155.84 269.233 155.533C269.11 155.226 269.081 154.889 269.152 154.565C269.222 154.242 269.387 153.947 269.626 153.718C269.67 153.679 269.715 153.641 269.759 153.604C269.803 153.568 269.815 153.56 269.847 153.538C269.883 153.512 269.921 153.49 269.961 153.472C270.036 153.426 270.116 153.388 270.199 153.358L270.292 153.324C270.348 153.308 270.406 153.291 270.464 153.28L237.698 159.76C237.731 159.754 237.764 159.75 237.798 159.749C237.854 159.74 237.912 159.737 237.969 159.739C238.187 159.738 238.403 159.781 238.604 159.864C238.806 159.947 238.989 160.069 239.144 160.223C239.298 160.377 239.421 160.56 239.504 160.761C239.588 160.962 239.631 161.178 239.632 161.396C239.632 161.452 239.626 161.509 239.62 161.567C239.615 161.639 239.603 161.71 239.586 161.78ZM370.696 181.502L366.701 171.768C366.557 171.412 366.294 171.118 365.956 170.936C365.618 170.755 365.227 170.697 364.851 170.773L360.607 171.613L357.735 172.18L171.431 209.039C165.376 206.896 160.028 202.537 156.714 197.029C153.969 192.472 153.196 187.08 154.266 179.655L238.273 163.031L238.334 163.014L238.406 162.998L270.918 156.568H270.962L270.979 156.562L271.166 156.524L271.222 156.512L348.007 141.32L350.869 140.752L352.004 140.525C352.231 140.48 352.446 140.388 352.636 140.255C352.825 140.122 352.984 139.951 353.103 139.753C353.223 139.555 353.299 139.334 353.328 139.104C353.356 138.875 353.337 138.641 353.27 138.42L351.536 132.713L350.64 129.763L350.527 129.37L350.344 128.78C350.226 128.387 349.966 128.053 349.615 127.841C349.263 127.63 348.846 127.557 348.444 127.636L288.354 139.359L287.884 139.453L283.558 140.293L224.296 151.856L220.318 152.628L220.295 152.634L213.308 153.996L212.296 154.19L200.109 156.574L190.552 158.435L146.629 167.004C146.209 167.082 145.835 167.322 145.59 167.672L142.828 171.589L76.025 266.252L75.3849 267.16L74.6108 268.253L74.1024 268.971L67.6888 278.064L67.2961 278.617C67.2021 278.749 67.1296 278.894 67.0816 279.048C66.959 279.415 66.9685 279.812 67.1084 280.172C67.2482 280.533 67.5096 280.832 67.8473 281.02C68.185 281.207 68.5777 281.271 68.9573 281.199C69.3369 281.128 69.6795 280.926 69.9258 280.628C69.9536 280.596 69.9797 280.563 70.0041 280.528L140.43 180.729C139.602 187.027 140.27 193.523 142.447 199.418C146.005 209.065 154.704 218.24 164.351 222.642C164.793 222.847 165.236 223.041 165.683 223.222C165.98 223.345 166.307 223.376 166.621 223.311L167.65 223.112L358.228 185.938L362.736 185.06L369.483 183.744C369.724 183.698 369.951 183.599 370.149 183.454C370.347 183.308 370.51 183.121 370.625 182.904C370.741 182.691 370.807 182.454 370.82 182.211C370.832 181.968 370.79 181.726 370.696 181.502ZM166.482 219.976C157.421 216.118 148.858 207.265 145.544 198.282C142.638 190.393 142.676 181.311 145.649 173.339L147.918 170.129L224.151 155.262L284.805 143.429H284.844H284.859L347.613 131.186L349.574 137.645L270.468 153.3L237.702 159.781H237.681L237.586 159.804H237.559L152.487 176.637C152.154 176.702 151.85 176.867 151.615 177.111C151.38 177.355 151.225 177.665 151.172 177.999C150.2 183.95 149.631 191.689 153.879 198.749C157.669 205.042 163.834 209.992 170.79 212.329C171.064 212.422 171.357 212.441 171.64 212.384L364.148 174.287L366.861 180.894L166.482 219.976ZM239.586 161.78C239.58 161.819 239.569 161.857 239.553 161.893C239.476 162.15 239.335 162.384 239.145 162.574C239.106 162.613 239.066 162.646 239.031 162.678C239.007 162.701 238.981 162.721 238.954 162.74C238.924 162.766 238.891 162.788 238.855 162.806C238.778 162.855 238.697 162.898 238.612 162.933C238.566 162.954 238.518 162.971 238.468 162.983L238.413 163L270.925 156.569C270.873 156.574 270.822 156.576 270.77 156.575C270.439 156.574 270.116 156.475 269.842 156.289C269.568 156.104 269.356 155.84 269.233 155.533C269.11 155.226 269.081 154.889 269.152 154.565C269.222 154.242 269.387 153.947 269.626 153.718C269.67 153.679 269.715 153.641 269.759 153.604C269.803 153.568 269.815 153.56 269.847 153.538C269.883 153.512 269.921 153.49 269.961 153.472C270.036 153.426 270.116 153.388 270.199 153.358L270.292 153.324C270.348 153.308 270.406 153.291 270.464 153.28L237.698 159.76C237.731 159.754 237.764 159.75 237.798 159.749C237.854 159.74 237.912 159.737 237.969 159.739C238.187 159.738 238.403 159.781 238.604 159.864C238.806 159.947 238.989 160.069 239.144 160.223C239.298 160.377 239.421 160.56 239.504 160.761C239.588 160.962 239.631 161.178 239.632 161.396C239.632 161.452 239.626 161.509 239.62 161.567C239.615 161.639 239.603 161.71 239.586 161.78Z" fill="black"/>
<path d="M72.8905 308.273C72.579 308.274 72.2737 308.186 72.0097 308.021C71.7457 307.855 71.5337 307.619 71.3981 307.338C67.2249 298.713 65.561 288.784 66.7141 279.382C66.7677 278.946 66.9925 278.548 67.339 278.278C67.6855 278.007 68.1254 277.885 68.5618 277.939C68.9983 277.992 69.3956 278.217 69.6663 278.563C69.9371 278.91 70.0591 279.35 70.0055 279.786C68.9295 288.563 70.4844 297.832 74.383 305.89C74.5059 306.143 74.5626 306.423 74.5477 306.704C74.5327 306.984 74.4466 307.257 74.2975 307.495C74.1484 307.733 73.9411 307.93 73.6952 308.066C73.4493 308.202 73.1728 308.274 72.8917 308.273H72.8905Z" fill="black"/>
<path d="M109.246 312.389C108.943 312.389 108.646 312.306 108.387 312.149C108.128 311.993 107.917 311.768 107.777 311.5C107.636 311.232 107.572 310.93 107.591 310.628C107.61 310.326 107.711 310.035 107.884 309.786L163.372 229.857C163.621 229.501 164 229.256 164.427 229.176L371.685 190.239C372.095 190.162 372.52 190.243 372.873 190.465C373.226 190.687 373.483 191.034 373.591 191.437L375.789 199.608C375.849 199.829 375.862 200.059 375.828 200.285C375.795 200.511 375.714 200.727 375.593 200.92C375.472 201.114 375.312 201.28 375.123 201.408C374.934 201.537 374.721 201.625 374.497 201.667L172.12 239.763C170.166 251.082 174.071 262.28 182.235 268.534C182.584 268.801 182.812 269.196 182.87 269.632C182.928 270.068 182.81 270.509 182.543 270.858C182.276 271.207 181.881 271.435 181.445 271.493C181.009 271.551 180.568 271.433 180.219 271.166C170.792 263.944 166.42 250.93 169.078 238.01C169.145 237.687 169.305 237.392 169.54 237.162C169.774 236.931 170.072 236.776 170.395 236.715L372.126 198.733L370.792 193.778L165.71 232.305L110.609 311.676C110.456 311.896 110.253 312.076 110.015 312.2C109.778 312.324 109.514 312.389 109.246 312.389Z" fill="black"/>
<path d="M176.042 278.101C175.684 278.101 175.337 277.985 175.051 277.77C168.049 272.543 163.038 265.085 160.845 256.627C158.652 248.168 159.408 239.215 162.989 231.244C163.169 230.843 163.502 230.531 163.913 230.375C164.324 230.219 164.78 230.233 165.181 230.414C165.582 230.594 165.895 230.927 166.051 231.338C166.207 231.749 166.193 232.205 166.012 232.606C162.741 239.89 162.051 248.07 164.054 255.799C166.058 263.528 170.636 270.342 177.034 275.119C177.312 275.328 177.519 275.619 177.623 275.951C177.727 276.283 177.724 276.64 177.614 276.97C177.504 277.3 177.293 277.588 177.011 277.791C176.729 277.995 176.39 278.105 176.042 278.105V278.101Z" fill="black"/>
<path d="M250.196 271.946C249.785 271.945 249.388 271.792 249.083 271.515C248.779 271.238 248.588 270.857 248.549 270.447C248.509 270.038 248.624 269.628 248.87 269.298C249.116 268.968 249.477 268.741 249.881 268.663L387.482 241.772L385.588 235.24L252.118 261.946C251.687 262.032 251.239 261.944 250.873 261.7C250.508 261.456 250.254 261.077 250.167 260.646C250.081 260.215 250.17 259.767 250.414 259.401C250.657 259.036 251.036 258.782 251.468 258.695L386.426 231.691C386.833 231.609 387.256 231.683 387.611 231.899C387.966 232.114 388.227 232.456 388.343 232.855L391.165 242.589C391.23 242.81 391.247 243.042 391.217 243.27C391.187 243.498 391.109 243.718 390.989 243.914C390.869 244.111 390.71 244.28 390.521 244.412C390.332 244.543 390.118 244.634 389.892 244.678L250.516 271.915C250.411 271.935 250.304 271.946 250.196 271.946Z" fill="black"/>
<path d="M238.831 264.569H238.825C238.386 264.568 237.964 264.393 237.654 264.081C237.344 263.77 237.17 263.349 237.17 262.909C237.17 262.47 237.345 262.048 237.656 261.737C237.967 261.427 238.389 261.252 238.828 261.252C239.268 261.252 239.689 261.427 240 261.737C240.311 262.048 240.486 262.47 240.486 262.909C240.487 263.349 240.312 263.77 240.002 264.081C239.692 264.393 239.27 264.568 238.831 264.569Z" fill="black"/>
<path d="M188.992 274.54C188.58 274.54 188.183 274.387 187.878 274.111C187.574 273.835 187.382 273.455 187.342 273.046C187.302 272.636 187.415 272.226 187.66 271.896C187.905 271.566 188.265 271.338 188.668 271.258L206.504 267.692C206.749 267.628 207.005 267.62 207.254 267.67C207.502 267.721 207.735 267.827 207.936 267.982C208.137 268.136 208.3 268.335 208.412 268.562C208.524 268.789 208.583 269.039 208.583 269.292V269.298C208.583 269.681 208.45 270.052 208.207 270.349C207.964 270.645 207.626 270.848 207.251 270.923L189.318 274.508C189.211 274.53 189.101 274.54 188.992 274.54Z" fill="black"/>
<path d="M282.715 353.337C284.461 353.138 286.2 352.911 287.936 352.645L264.225 377.65C263.947 377.942 263.572 378.124 263.17 378.164L109.933 391.981C109.883 391.983 109.833 391.983 109.784 391.981C109.478 391.981 109.178 391.897 108.916 391.738C107.961 391.146 107.039 390.501 106.154 389.808C105.976 389.677 105.827 389.511 105.714 389.321C105.601 389.131 105.528 388.92 105.498 388.701C105.468 388.482 105.482 388.26 105.539 388.046C105.596 387.833 105.696 387.633 105.831 387.458C105.967 387.284 106.136 387.138 106.328 387.03C106.521 386.922 106.733 386.853 106.953 386.828C107.172 386.803 107.395 386.822 107.607 386.884C107.819 386.946 108.016 387.05 108.188 387.19C108.861 387.714 109.529 388.195 110.192 388.62L262.255 374.909L282.715 353.337Z" fill="black"/>
<path d="M391.234 243.051C391.234 243.125 391.229 243.198 391.218 243.271C391.209 243.348 391.194 243.424 391.174 243.498C391.153 243.572 391.127 243.644 391.097 243.714C391.067 243.784 391.031 243.853 390.991 243.918C390.933 244.018 390.862 244.111 390.781 244.194L365.606 270.745L330.041 308.24C329.454 307.278 328.805 306.355 328.096 305.478L384.805 245.666L388.368 241.909C388.518 241.751 388.697 241.623 388.895 241.534C389.094 241.445 389.308 241.395 389.526 241.389C389.743 241.383 389.96 241.42 390.164 241.498C390.367 241.575 390.553 241.693 390.711 241.842C390.917 242.034 391.069 242.276 391.152 242.545C391.16 242.558 391.163 242.573 391.164 242.588C391.185 242.659 391.202 242.731 391.214 242.804V242.821C391.226 242.897 391.233 242.974 391.234 243.051Z" fill="black"/>
<path d="M183.078 290.463C182.699 290.462 182.331 290.332 182.036 290.094C181.741 289.856 181.537 289.523 181.457 289.153C181.377 288.782 181.427 288.395 181.598 288.057C181.769 287.718 182.051 287.448 182.397 287.293C185.841 285.723 189.091 283.759 192.083 281.441C197.376 277.379 201.927 272.475 205.682 268.203C206.423 267.357 207.157 266.5 207.899 265.65C213.46 259.207 219.144 252.825 224.469 246.894C225.444 245.807 228.416 242.5 231.899 243.603C234.554 244.443 235.665 247.365 235.363 249.689C235.08 251.863 233.834 253.681 232.832 255.137C232.583 255.5 232.201 255.749 231.769 255.829C231.337 255.91 230.89 255.816 230.528 255.567C230.165 255.319 229.916 254.937 229.836 254.504C229.755 254.072 229.849 253.626 230.098 253.263C230.941 252.034 231.895 250.641 232.076 249.257C232.204 248.271 231.762 247.031 230.899 246.76C229.924 246.453 228.629 247.214 226.937 249.104C221.628 255.025 215.951 261.391 210.413 267.813C209.669 268.674 208.923 269.531 208.177 270.386C204.318 274.776 199.624 279.831 194.104 284.067C190.908 286.541 187.437 288.635 183.759 290.309C183.545 290.408 183.313 290.46 183.078 290.463Z" fill="black"/>
<path d="M220.407 273.065C220.116 273.065 219.831 272.988 219.58 272.843C219.328 272.698 219.119 272.489 218.974 272.238C218.828 271.987 218.751 271.702 218.75 271.412C218.749 271.121 218.825 270.836 218.969 270.584C223.469 262.716 228.647 255.255 234.441 248.285C235.576 246.924 239.011 242.799 243.241 244.016C246.645 244.996 248.055 248.961 247.401 252.074C246.787 254.994 244.811 257.309 243.225 259.171C242.939 259.505 242.532 259.712 242.093 259.747C241.654 259.781 241.22 259.639 240.886 259.354C240.551 259.068 240.344 258.66 240.31 258.222C240.276 257.783 240.417 257.349 240.703 257.014C242.116 255.358 243.717 253.481 244.158 251.387C244.498 249.755 243.832 247.634 242.325 247.2C240.894 246.791 239.1 247.867 236.99 250.404C231.319 257.226 226.252 264.528 221.847 272.228C221.702 272.482 221.492 272.694 221.239 272.841C220.986 272.987 220.699 273.065 220.407 273.065Z" fill="black"/>
<path d="M225.627 284.363C225.327 284.363 225.032 284.281 224.775 284.127C224.518 283.973 224.307 283.752 224.166 283.487C224.025 283.222 223.958 282.924 223.973 282.625C223.987 282.325 224.083 282.035 224.25 281.786C227.447 276.996 230.642 272.206 233.833 267.414L237.447 261.992C237.47 261.958 237.494 261.925 237.519 261.894L239.126 259.479C240.413 257.55 242.011 255.151 244.56 253.864C247.347 252.462 251.397 252.961 252.985 255.938C253.666 257.208 253.804 258.749 253.423 260.646C253.348 261.023 253.251 261.429 253.129 261.888C251.977 266.18 250.361 270.334 248.311 274.277C248.147 274.614 247.875 274.886 247.537 275.049C247.199 275.211 246.816 275.254 246.45 275.17C246.085 275.087 245.759 274.882 245.525 274.589C245.291 274.296 245.163 273.932 245.162 273.557C245.163 273.288 245.227 273.023 245.351 272.785C247.3 269.044 248.834 265.102 249.927 261.029C250.031 260.641 250.111 260.302 250.172 259.996C250.399 258.861 250.364 258.066 250.059 257.499C249.423 256.304 247.381 256.156 246.051 256.825C244.285 257.717 243.009 259.629 241.885 261.318L240.213 263.83C240.189 263.865 240.165 263.898 240.139 263.931L236.591 269.254C233.398 274.045 230.203 278.836 227.007 283.627C226.855 283.854 226.65 284.04 226.409 284.168C226.168 284.297 225.899 284.364 225.627 284.363Z" fill="black"/>
<path d="M255.929 276.723C255.83 278.766 254.985 280.59 254.129 282.284C242.223 305.747 222.517 324.731 198.63 335.74C173.013 347.544 151.529 356.175 131.524 362.622C131.568 362.02 131.491 361.573 131.231 361.373C130.602 360.876 129.982 360.363 129.381 359.838C149.59 353.391 171.267 344.712 197.238 332.741C220.453 322.039 239.606 303.593 251.169 280.793C251.898 279.363 252.55 277.955 252.616 276.578C252.666 275.533 252.229 274.246 251.312 273.821C250.622 273.501 249.594 273.655 248.688 274.219C248.445 274.374 248.212 274.546 247.992 274.733C247.964 274.761 247.937 274.788 247.91 274.81C247.247 275.39 246.644 276.113 245.98 276.932L233.062 292.81C232.925 292.979 232.756 293.119 232.565 293.223C232.373 293.326 232.163 293.391 231.947 293.414C231.73 293.436 231.512 293.416 231.303 293.354C231.094 293.292 230.9 293.19 230.731 293.053C230.562 292.915 230.422 292.746 230.318 292.555C230.214 292.364 230.149 292.154 230.127 291.937C230.104 291.721 230.124 291.502 230.186 291.293C230.248 291.085 230.351 290.89 230.488 290.721L243.405 274.839C244.037 274.026 244.728 273.26 245.471 272.546C245.526 272.491 245.584 272.441 245.636 272.392C245.665 272.358 245.698 272.331 245.725 272.303C246.104 271.972 246.509 271.671 246.935 271.402C247.447 271.08 247.999 270.824 248.576 270.639C249.093 270.476 249.629 270.378 250.171 270.348C251.04 270.292 251.909 270.451 252.702 270.811C253.002 270.95 253.286 271.123 253.548 271.325C255.094 272.463 256.028 274.513 255.929 276.723Z" fill="black"/>
<path d="M114.816 312.461C112.933 312.461 111.063 312.437 109.205 312.389C93.7062 311.998 78.684 309.981 64.5562 306.394C64.3452 306.34 64.1468 306.246 63.9724 306.115C63.798 305.985 63.651 305.822 63.5397 305.635C63.3149 305.257 63.2494 304.805 63.3576 304.379C63.4659 303.953 63.7389 303.587 64.1167 303.363C64.4945 303.138 64.9461 303.072 65.3722 303.181C79.2606 306.708 94.0365 308.691 109.295 309.074C114.447 309.21 119.736 309.154 125.004 308.91C130.905 308.634 137.173 308.109 143.087 306.142C150.772 303.589 156.487 298.138 162.704 290.738C165.375 287.56 167.91 284.148 170.363 280.849C171.725 279.021 173.13 277.13 174.55 275.288C175.752 273.729 176.87 272.337 177.966 271.022C179.017 269.759 180.178 268.451 181.765 267.617C183.781 266.558 186.129 266.606 187.749 267.736C189.489 268.94 190.31 271.117 190.179 274.205C189.941 279.896 187.912 285.365 184.381 289.834C184.104 290.166 183.708 290.376 183.277 290.42C182.847 290.464 182.416 290.339 182.077 290.07C181.738 289.801 181.518 289.41 181.463 288.981C181.409 288.552 181.524 288.118 181.784 287.773C184.878 283.855 186.656 279.06 186.863 274.071C186.918 272.779 186.786 271.107 185.853 270.461C185.148 269.969 184.064 270.155 183.302 270.555C182.254 271.105 181.382 272.094 180.507 273.146C179.436 274.428 178.351 275.79 177.169 277.315C175.768 279.131 174.37 281.011 173.019 282.828C170.538 286.164 167.972 289.613 165.239 292.87C159.934 299.182 153.492 306.177 144.129 309.288C137.834 311.381 131.289 311.935 125.155 312.221C121.701 312.381 118.242 312.461 114.816 312.461Z" fill="black"/>
<path d="M359.013 172.798C358.662 172.797 358.321 172.686 358.037 172.479C357.754 172.272 357.544 171.98 357.437 171.646L348.017 142.304C347.882 141.885 347.92 141.43 348.121 141.039C348.322 140.648 348.67 140.353 349.088 140.219C349.507 140.084 349.962 140.122 350.353 140.323C350.744 140.524 351.039 140.872 351.173 141.29L360.593 170.633C360.66 170.841 360.685 171.059 360.667 171.276C360.649 171.493 360.589 171.704 360.49 171.898C360.39 172.091 360.253 172.264 360.087 172.404C359.921 172.545 359.729 172.652 359.522 172.718C359.357 172.771 359.186 172.797 359.013 172.798Z" fill="black"/>
<path d="M379.111 234.974C378.775 234.974 378.447 234.871 378.171 234.681C377.894 234.49 377.682 234.221 377.562 233.907L365.838 203.137C365.755 202.933 365.714 202.714 365.717 202.493C365.72 202.272 365.767 202.055 365.855 201.852C365.943 201.65 366.071 201.468 366.23 201.315C366.39 201.163 366.579 201.044 366.785 200.966C366.991 200.887 367.211 200.851 367.431 200.858C367.652 200.865 367.868 200.917 368.069 201.009C368.269 201.101 368.449 201.233 368.598 201.396C368.747 201.558 368.862 201.749 368.936 201.957L380.66 232.726C380.738 232.93 380.774 233.146 380.768 233.364C380.762 233.581 380.713 233.796 380.624 233.994C380.535 234.193 380.407 234.372 380.249 234.521C380.091 234.671 379.905 234.787 379.701 234.865C379.513 234.937 379.313 234.974 379.111 234.974Z" fill="black"/>
<path d="M354.871 344.391C347.744 344.391 340.754 342.792 334.591 339.521C334.377 339.407 334.19 339.247 334.044 339.054C333.898 338.86 333.797 338.636 333.747 338.398C333.697 338.161 333.699 337.915 333.755 337.679C333.81 337.443 333.917 337.221 334.067 337.031C337.531 332.64 339.314 326.976 339.223 320.654C339.131 314.673 336.99 308.905 333.159 304.311C332.877 303.974 332.741 303.538 332.78 303.101C332.819 302.663 333.031 302.258 333.368 301.977C333.705 301.695 334.141 301.558 334.578 301.597C335.016 301.637 335.421 301.848 335.703 302.185C340.021 307.362 342.433 313.864 342.537 320.604C342.628 326.943 341.016 332.72 337.86 337.444C351.706 343.883 369.547 341.668 382.873 331.688C395.563 322.185 403.904 306.522 405.756 288.717C408.506 262.287 396.296 235.252 374.65 219.841C374.302 219.582 374.07 219.197 374.002 218.769C373.935 218.341 374.038 217.903 374.289 217.55C374.541 217.197 374.92 216.956 375.347 216.88C375.774 216.803 376.214 216.896 376.572 217.14C387.597 224.989 396.496 235.941 402.309 248.805C408.123 261.67 410.454 275.59 409.053 289.054C407.106 307.781 398.287 324.281 384.861 334.339C376.016 340.967 365.298 344.391 354.871 344.391Z" fill="black"/>
<path d="M94.3974 388.949C83.6642 388.949 72.8413 386.396 64.3031 382.985C48.7542 376.772 36.0269 366.179 28.4602 353.153C19.3045 337.402 18.4828 318.051 26.1471 298.664C32.0239 283.81 41.8946 270.825 49.8381 261.173C50.0787 260.879 50.2921 260.616 50.5077 260.359C50.789 260.021 51.193 259.809 51.6307 259.769C52.0684 259.73 52.504 259.865 52.8418 260.146C53.1795 260.428 53.3916 260.832 53.4316 261.269C53.4715 261.707 53.3359 262.143 53.0546 262.48C52.8469 262.729 52.6403 262.983 52.4326 263.237C44.6083 272.744 34.9362 285.458 29.2297 299.883C21.9467 318.305 22.6969 336.632 31.3225 351.487C38.5192 363.876 50.6678 373.968 65.5299 379.907C82.5451 386.704 106.132 388.786 120.47 378.11C123.078 376.168 125.242 373.692 126.817 370.847C127.448 369.687 129.314 365.455 129.768 363.142C129.647 362.726 129.694 362.28 129.897 361.899C130.1 361.517 130.445 361.23 130.857 361.099L131 361.052C131.259 360.967 131.535 360.948 131.803 360.996C132.071 361.043 132.324 361.156 132.538 361.324C132.752 361.493 132.922 361.711 133.031 361.961C133.141 362.21 133.187 362.483 133.166 362.755C132.929 365.831 130.095 371.748 129.722 372.435C127.917 375.7 125.436 378.542 122.444 380.772C114.497 386.692 104.487 388.949 94.3974 388.949Z" fill="black"/>
<path d="M129.383 361.491C128.983 361.491 128.596 361.346 128.295 361.083C114.497 349.062 107.161 329.872 109.606 312.2C109.659 311.767 109.733 311.309 109.808 310.853C109.876 310.419 110.114 310.03 110.469 309.771C110.824 309.512 111.268 309.405 111.702 309.473C112.136 309.541 112.525 309.779 112.784 310.134C113.043 310.49 113.15 310.933 113.082 311.367V311.385C113.014 311.801 112.946 312.216 112.895 312.634C110.596 329.251 117.498 347.279 130.475 358.585C130.729 358.807 130.91 359.101 130.993 359.428C131.075 359.755 131.056 360.1 130.938 360.416C130.819 360.732 130.607 361.005 130.33 361.197C130.053 361.389 129.723 361.492 129.386 361.492L129.383 361.491Z" fill="black"/>
<path d="M362.745 85.3088C362.071 61.7086 338.354 49.626 321.063 38.2674C320.358 37.8107 319.575 37.4886 318.753 37.3174C317.262 35.8976 315.854 34.3949 314.5 32.8366C310.073 27.7214 305.921 22.3349 301.65 17.0812C297.534 12.0262 293.281 6.88256 286.75 4.994C285.197 4.55146 283.587 4.33736 281.972 4.35843C280.077 3.9158 278.01 4.1757 276.07 5.15289C275.022 5.6809 274.023 6.30194 273.086 7.00854C271.167 8.25525 269.575 9.94299 268.441 11.9308L268.435 11.9365C264.861 7.89834 260.026 5.03146 254.806 3.65136C242.254 0.325948 230.09 5.47408 220.494 13.4017C220.4 13.4846 220.305 13.5674 220.217 13.6503C220.057 13.8063 219.906 13.9704 219.763 14.1417C218.669 14.8499 217.575 15.5729 216.498 16.3072C215.597 16.9125 214.706 17.5276 213.824 18.1526C210.484 19.6891 207.507 21.9124 205.085 24.6775C203.642 25.8215 202.206 26.9701 200.792 28.1527C200.105 28.7317 199.555 29.4563 199.182 30.2739C192.994 35.2518 187.017 40.4885 181.454 46.1564C176.153 51.5514 171.278 57.3495 166.874 63.4985C162.709 69.3106 155.726 78.0258 159.328 85.4416C159.441 85.6845 159.576 85.9331 159.721 86.1759C159.748 86.9114 159.798 87.6514 159.881 88.3755C160.08 90.2516 160.471 92.1025 161.046 93.8993C161.614 95.6846 162.372 97.4074 163.106 99.1314C163.46 99.9546 163.818 100.774 164.179 101.59C164.25 101.738 164.869 103.17 164.88 103.17C165.406 104.424 165.845 105.714 166.195 107.028C166.211 107.083 166.261 107.47 166.317 107.846C166.09 109.752 166.184 111.724 166.499 113.708C166.579 114.22 166.722 114.721 166.924 115.199C166.781 115.702 166.61 116.193 166.449 116.69C166.404 116.823 166.35 116.972 166.3 117.094C165.872 117.998 165.394 118.878 164.869 119.729C164.659 120.069 164.427 120.397 164.2 120.728C164.117 120.834 163.714 121.375 163.532 121.58C162.842 122.374 162.102 123.123 161.316 123.822C161.256 123.878 160.819 124.242 160.599 124.431C160.355 124.596 159.886 124.922 159.819 124.966C159.505 125.176 159.179 125.364 158.858 125.552C157.593 126.198 156.289 126.765 154.953 127.248C153.394 127.792 152.009 128.744 150.942 130.004C141.246 132.115 130.976 131.988 121.01 132.037C100.536 132.143 78.6862 132.578 60.8697 143.965C48.9981 148.821 38.0572 155.953 29.772 165.687C16.3694 181.438 9.45641 203.326 15.845 223.57C17.5906 229.111 20.176 234.487 23.6183 239.176C26.391 242.962 29.5904 246.983 33.6785 248.889C33.9657 250.397 34.9985 251.706 36.601 252.132C36.9654 252.226 37.3297 252.325 37.694 252.419C38.3035 252.574 38.9403 252.59 39.5565 252.463C39.6507 252.446 39.738 252.425 39.8322 252.402C40.3906 252.839 40.9536 253.265 41.5347 253.685C48.4397 258.767 56.2187 262.651 64.4936 265.003C64.4936 265.003 64.5106 265.009 64.5163 265.009C66.1809 265.479 67.8603 265.888 69.5544 266.236C69.9325 266.309 70.3144 266.361 70.6984 266.39C71.1537 266.99 71.7457 267.472 72.4249 267.797C73.1042 268.122 73.8512 268.279 74.6038 268.257C74.7911 268.251 74.9778 268.231 75.1622 268.197C76.1734 268.02 77.1404 267.452 77.8577 266.374C100.144 232.884 123.542 200.173 148.052 168.242C148.306 167.91 148.485 167.528 148.578 167.121C148.921 167.128 149.264 167.094 149.599 167.021C163.25 164.159 176.901 161.296 190.553 158.43C193.547 157.8 196.543 157.172 199.541 156.546C199.729 156.558 199.923 156.563 200.109 156.569C204.336 156.712 208.634 156.348 212.296 154.186C212.539 154.047 212.783 153.898 213.02 153.737C213.113 153.82 213.207 153.909 213.307 153.992C213.363 154.046 213.422 154.098 213.484 154.146C215.987 156.251 219.185 154.843 220.307 152.644C220.31 152.642 220.314 152.639 220.316 152.635C220.318 152.631 220.318 152.626 220.318 152.622C221.008 151.26 220.904 149.599 219.34 148.291C214.429 144.158 211.749 138.125 208.987 132.468C206.28 126.916 203.904 121.119 203.303 114.956C203.581 114.421 203.696 113.815 203.634 113.215C203.561 112.581 203.501 111.939 203.451 111.304C203.357 110.288 203.285 109.271 203.236 108.254C202.789 99.885 203.501 91.5091 205.108 83.2614C206.042 78.4605 207.241 73.7153 208.617 69.0189C208.799 68.4003 208.982 67.7704 209.164 67.1405C209.374 66.4062 209.584 65.6651 209.805 64.9206C210.739 61.7325 211.76 58.5342 213.186 55.5947C213.39 55.1747 213.606 54.7775 213.843 54.3905C215.042 52.3907 216.621 50.8267 218.423 49.4569C219.574 48.5896 220.769 47.782 222.003 47.0371C225.98 44.6015 230.055 42.3316 234.229 40.2274C241.167 36.7224 248.34 33.7045 255.697 31.1955C256.404 30.9469 257.116 30.7029 257.829 30.4714C256.93 34.2399 257.427 38.2065 259.227 41.637C262.393 47.5479 269.282 49.8575 275.254 51.8346C281.281 53.8287 287.193 55.8512 292.269 59.8065C297.369 63.7788 301.014 69.1369 302.434 75.4575C301.103 76.9601 301.484 79.5955 302.81 80.9484C302.922 81.0675 303.044 81.1769 303.175 81.2752C303.484 81.5343 303.835 81.7378 304.214 81.8767C305.689 82.4522 307.362 81.9823 308.666 80.9484C308.196 81.3252 309.727 81.4409 310.296 81.6838C311.251 82.1011 312.149 82.6376 312.97 83.2807C314.269 84.3139 315.378 85.5665 316.245 86.9818C318.515 90.6442 319.179 94.9707 318.433 99.2018C316.804 108.439 309.959 115.405 302.6 120.638C302.021 121.04 301.551 121.579 301.23 122.206C300.251 122.229 299.288 122.447 298.394 122.846C297.501 123.245 296.696 123.818 296.026 124.532C295.913 124.645 295.816 124.759 295.722 124.872C295.163 125.549 294.853 126.398 294.843 127.276C294.843 127.38 294.843 127.479 294.855 127.579C292.892 130.074 290.794 132.461 288.573 134.729C287.336 135.993 287.236 137.907 287.892 139.441C287.942 139.555 287.991 139.668 288.052 139.782C288.886 141.395 290.576 142.466 292.61 141.655C294.894 140.721 297.272 140.036 299.703 139.612C302.073 139.213 304.2 138.893 306.354 137.739C306.773 137.517 307.152 137.228 307.477 136.882C308.347 136.945 309.221 136.838 310.051 136.568C316.198 134.508 322.494 132.925 328.884 131.833C334.188 130.937 339.789 130.866 344.887 128.8C344.909 128.811 344.929 128.824 344.948 128.839C346.406 129.922 348.268 130.186 350.075 129.86C350.268 129.827 350.462 129.789 350.649 129.739C352.853 129.197 354.897 127.795 355.908 125.955C359.451 119.524 361.973 112.581 363.383 105.376C364.718 98.5287 365.143 91.7894 362.745 85.3088ZM348.547 95.8389C348.487 98.7501 348.207 99.9985 347.526 103.042C346.831 106.246 345.87 109.385 344.652 112.429C341.492 112.429 338.261 113.252 335.333 114.39C335.333 114.39 335.333 114.39 335.333 114.401C334.713 114.638 334.095 114.892 333.465 115.18C330.156 115.561 326.847 116.004 323.566 116.584C321.726 116.915 319.892 117.291 318.068 117.699C323.599 111.291 327.374 103.59 326.957 94.7278C326.67 88.5854 324.233 82.5963 319.77 78.2926C317.179 75.7957 313.814 73.6858 310.379 73.1444C307.676 61.2717 298.406 52.2783 287.501 47.4945C281.926 45.0476 275.729 43.9262 270.364 41.0582C265.91 38.6884 264.182 34.0147 267.17 29.6894C267.634 29.7356 268.101 29.7538 268.568 29.7439C274.219 29.6304 278.876 24.8 282.925 20.6019L283.052 20.6904C283.069 20.7006 284.003 21.3532 284.262 21.5132C284.456 21.7062 284.953 22.176 285.025 22.2475C289.174 26.3243 292.629 31.242 296.279 35.7534C303.471 44.6322 310.41 53.4655 321.486 57.5264C326.541 60.736 331.575 64.0285 335.846 67.6025C339.094 70.3263 341.938 73.2659 343.801 76.3416C345.695 79.4911 346.673 82.5679 346.729 85.689C346.575 87.3853 346.907 89.0903 347.684 90.6057C348.016 91.2971 348.262 92.0261 348.419 92.7768C348.487 93.1321 348.57 94.9332 348.547 95.8389ZM198.855 148.238L197.446 148.14C196.165 148.046 195.192 148.465 194.53 149.145L147.388 159.04C145.572 159.42 144.664 160.636 144.46 162.011C143.079 162.061 141.803 162.89 140.897 164.067C118.75 192.922 97.4987 222.434 77.1438 252.603C76.2324 251.69 75.075 251.062 73.8127 250.796C65.128 249.028 58.8688 246.37 51.5154 241.239C45.6318 237.139 39.738 230.737 35.8531 224.273C34.9189 222.731 33.4983 221.543 31.815 220.897C31.361 219.633 30.9581 218.287 30.5552 216.698C29.5269 212.642 29.3169 210.342 29.4826 205.792C29.5167 204.786 29.5882 203.781 29.688 202.781C29.7266 202.401 29.7652 202.019 29.814 201.646C29.8424 201.502 29.881 201.314 29.9275 201.066C30.3248 199.082 30.7447 197.11 31.319 195.171C32.5288 191.072 33.4572 188.912 35.617 185.07C37.6668 181.413 39.5565 178.744 41.9648 176.031C47.5726 169.717 53.3019 165.546 60.8152 161.624C62.3837 160.8 63.9988 160.034 65.6603 159.326C66.4937 159.159 67.2918 158.849 68.0188 158.409L68.2616 158.253C74.1781 155.949 80.5259 154.265 87.0621 153.082C88.073 152.914 89.0305 152.512 89.8582 151.908C90.6859 151.304 91.3608 150.514 91.8289 149.603C98.2879 148.553 104.973 148.241 112.031 148.127C121.003 147.983 129.986 148.183 138.942 147.575C147.013 147.022 155.388 146.116 162.973 143.148C171.215 139.933 179.104 134.756 182.807 126.382C184.032 123.608 184.182 120.57 182.685 118.144C182.811 117.553 182.934 116.962 183.026 116.36C183.353 114.317 183.109 112.274 182.286 110.542L182.303 109.879C182.406 109.77 182.502 109.654 182.59 109.532C184.987 106.19 183.384 101.15 180.225 98.9078C179.479 96.8524 178.595 94.7982 177.656 92.6758C175.689 88.2347 174.888 83.2398 176.975 78.9645C177.478 77.9389 177.791 76.8307 177.898 75.6935C178.722 74.4292 179.573 73.1807 180.45 71.9482C180.893 71.324 181.34 70.7111 181.793 70.0982L182.826 68.7363C186.677 63.8253 190.931 59.2345 195.4 54.8808C204.593 45.9362 214.056 38.6113 224.221 31.2908C225.242 30.5653 226.122 29.6591 226.818 28.6169C230.199 26.3969 233.654 24.2886 237.182 22.2918C238.18 21.7352 239.035 20.9542 239.679 20.0105C241.249 19.3836 242.887 18.9422 244.559 18.6951C244.565 18.7065 245.222 18.6452 245.338 18.6452C246.019 18.6293 246.7 18.5964 247.393 18.618C247.471 18.618 248.023 18.6509 248.338 18.6622C248.709 18.728 249.626 18.8665 249.753 18.8994C250.289 19.0209 250.819 19.1593 251.342 19.3194C251.463 19.3579 252.363 19.695 252.704 19.8108C252.969 19.9493 253.488 20.2148 253.565 20.2648C254.111 20.5631 254.642 20.8893 255.154 21.242C254.955 21.1285 255.695 21.7947 256.237 22.2975C247.245 25.214 238.49 28.8187 230.051 33.0795C221.748 37.2788 211.135 42.0184 206.478 50.5646C204.776 53.697 203.583 57.1473 202.517 60.5964C202.075 62.0174 201.655 63.4338 201.229 64.823C200.871 66.0003 200.524 67.1806 200.191 68.364C198.998 72.5633 197.954 76.7944 197.12 81.0755C195.794 87.8704 194.963 94.7539 194.843 101.66C194.816 103.328 194.827 105.003 194.887 106.671C194.937 108.168 195.026 109.665 195.153 111.162C194.949 111.682 194.853 112.237 194.869 112.795C195.085 120.95 197.903 128.474 201.388 135.749C203.106 139.346 204.869 143.087 207.034 146.518C204.306 147.094 201.579 147.668 198.855 148.238Z" fill="black"/>
<path d="M348.547 95.8387C348.487 98.7499 348.207 99.9983 347.526 103.042C346.831 106.246 345.87 109.385 344.652 112.428C341.493 112.428 338.261 113.252 335.333 114.39C335.333 114.39 335.333 114.39 335.333 114.401C334.714 114.638 334.095 114.892 333.465 115.179C330.157 115.561 326.847 116.003 323.566 116.583C321.726 116.915 319.892 117.29 318.068 117.699C323.599 111.291 327.375 103.589 326.957 94.7276C326.67 88.5853 324.233 82.5961 319.771 78.2924C317.18 75.7955 313.815 73.6856 310.379 73.1443C307.677 61.2715 298.406 52.2782 287.502 47.4944C281.927 45.0474 275.729 43.9261 270.364 41.0581C265.91 38.6883 264.182 34.0145 267.17 29.6892C267.635 29.7355 268.102 29.7537 268.569 29.7437C274.219 29.6302 278.876 24.7999 282.926 20.6017L283.053 20.6902C283.07 20.7004 284.004 21.353 284.263 21.513C284.457 21.706 284.954 22.1759 285.025 22.2474C289.175 26.3241 292.63 31.2418 296.28 35.7533C303.472 44.632 310.411 53.4653 321.487 57.5262C326.542 60.7358 331.575 64.0283 335.846 67.6023C339.094 70.3262 341.939 73.2657 343.801 76.3414C345.695 79.4909 346.674 82.5678 346.729 85.6889C346.576 87.3852 346.907 89.0902 347.685 90.6055C348.016 91.297 348.263 92.026 348.419 92.7766C348.487 93.1319 348.57 94.9331 348.547 95.8387Z" fill="black"/>
<path d="M256.227 22.2962C247.234 25.2127 238.48 28.8174 230.041 33.0782C221.738 37.2775 211.125 42.0171 206.468 50.5633C204.064 54.9771 202.677 60.0322 201.219 64.8217C199.571 70.1636 198.2 75.5867 197.109 81.0696C195.18 90.98 194.291 101.085 195.143 111.156C194.942 111.678 194.849 112.236 194.869 112.795C195.085 120.95 197.903 128.474 201.388 135.749C203.106 139.346 204.869 143.087 207.035 146.518C204.305 147.092 201.577 147.664 198.853 148.235L197.444 148.136C196.163 148.042 195.19 148.462 194.527 149.142L147.386 159.036C145.57 159.416 144.662 160.632 144.458 162.008C143.077 162.058 141.801 162.886 140.895 164.063C118.748 192.918 97.4966 222.43 77.1416 252.599C76.2303 251.686 75.0728 251.059 73.8106 250.793C65.1259 249.024 58.8667 246.366 51.5133 241.235C45.6297 237.136 39.7359 230.733 35.851 224.27C34.9168 222.728 33.4962 221.54 31.8128 220.893C31.3588 219.629 30.9559 218.283 30.553 216.694C29.5248 212.639 29.3148 210.338 29.4805 205.788C29.5145 204.783 29.586 203.777 29.6859 202.777C29.7245 202.397 29.7631 202.016 29.8119 201.642C29.8403 201.498 29.8789 201.311 29.9254 201.062C30.3226 199.078 30.7426 197.106 31.3168 195.167C32.5267 191.068 33.4551 188.908 35.6149 185.066C37.6646 181.41 39.5543 178.74 41.9627 176.028C47.5705 169.714 53.2997 165.543 60.8131 161.621C62.3816 160.797 63.9966 160.03 65.6582 159.322C66.4916 159.156 67.2897 158.845 68.0166 158.405L68.2595 158.25C74.176 155.946 80.5238 154.262 87.06 153.079C88.0709 152.911 89.0284 152.509 89.8561 151.904C90.6838 151.3 91.3586 150.511 91.8268 149.599C98.2858 148.549 104.971 148.237 112.029 148.124C121.001 147.98 129.984 148.179 138.94 147.571C147.01 147.018 155.386 146.113 162.971 143.145C171.213 139.929 179.102 134.753 182.804 126.378C184.03 123.604 184.18 120.566 182.683 118.141C182.809 117.549 182.932 116.958 183.024 116.356C183.35 114.314 183.106 112.271 182.284 110.539L182.301 109.876C182.404 109.767 182.5 109.651 182.588 109.529C184.985 106.186 183.382 101.147 180.222 98.9043C179.477 96.8489 178.593 94.7946 177.654 92.6722C175.687 88.2312 174.886 83.2363 176.973 78.9609C177.476 77.9354 177.789 76.8271 177.896 75.69C178.72 74.4256 179.571 73.1772 180.448 71.9446C180.891 71.3204 181.338 70.7075 181.791 70.0947L182.824 68.7327C186.675 63.8218 190.928 59.2309 195.398 54.8772C204.591 45.9327 214.054 38.6077 224.219 31.2873C225.24 30.5618 226.12 29.6555 226.816 28.6133C230.197 26.3934 233.652 24.285 237.18 22.2882C238.178 21.7316 239.033 20.9507 239.677 20.007C241.247 19.3801 242.885 18.9386 244.557 18.6916C244.563 18.7029 245.22 18.6416 245.336 18.6416C246.017 18.6258 246.698 18.5928 247.391 18.6144C247.468 18.6144 248.021 18.6473 248.335 18.6587C248.707 18.7245 249.624 18.863 249.751 18.8959C250.286 19.0173 250.816 19.1558 251.34 19.3158C251.461 19.3544 252.361 19.6915 252.702 19.8072C252.967 19.9457 253.486 20.2113 253.563 20.2612C254.109 20.5595 254.639 20.8857 255.152 21.2384C254.945 21.1306 255.685 21.7934 256.227 22.2962Z" fill="black"/>
<path d="M354.629 196.113C354.33 196.113 354.037 196.032 353.78 195.879C353.524 195.726 353.313 195.506 353.171 195.243C353.029 194.98 352.961 194.683 352.974 194.385C352.987 194.086 353.08 193.797 353.244 193.547L359.827 183.513C359.943 183.323 360.095 183.158 360.276 183.028C360.456 182.898 360.661 182.805 360.878 182.756C361.095 182.707 361.32 182.702 361.539 182.742C361.758 182.781 361.967 182.865 362.153 182.986C362.339 183.108 362.498 183.266 362.622 183.451C362.746 183.636 362.831 183.844 362.873 184.063C362.915 184.281 362.912 184.506 362.865 184.723C362.818 184.941 362.728 185.147 362.6 185.329L356.017 195.363C355.866 195.593 355.661 195.783 355.418 195.914C355.176 196.045 354.904 196.113 354.629 196.113Z" fill="black"/>
<path d="M163.987 232.396C163.848 232.397 163.709 232.379 163.574 232.344C163.148 232.235 162.783 231.961 162.559 231.583C162.336 231.204 162.271 230.753 162.38 230.327L164.423 222.359C164.532 221.933 164.806 221.568 165.184 221.344C165.563 221.12 166.014 221.056 166.44 221.165C166.866 221.274 167.231 221.548 167.455 221.927C167.678 222.305 167.743 222.757 167.634 223.183L165.591 231.151C165.499 231.507 165.292 231.823 165.002 232.048C164.711 232.273 164.354 232.396 163.987 232.396Z" fill="black"/>
<path d="M264.16 356.072C260.613 356.072 257.079 355.955 253.558 355.72C251.6 355.593 249.693 355.402 247.925 354.472C245.646 353.274 244.265 350.975 244.491 348.75C244.787 345.844 247.286 343.852 251.919 342.829C256.348 341.853 260.775 340.874 265.198 339.892L267.468 339.388C267.897 339.294 268.345 339.374 268.715 339.611C269.085 339.847 269.346 340.22 269.441 340.649C269.535 341.077 269.456 341.526 269.221 341.896C268.985 342.266 268.612 342.528 268.184 342.624L265.909 343.128C261.481 344.111 257.054 345.091 252.63 346.066C250.513 346.534 247.952 347.437 247.784 349.085C247.686 350.063 248.555 351.06 249.464 351.538C250.658 352.165 252.121 352.305 253.777 352.412C263.362 353.045 272.985 352.803 282.526 351.69C284.359 351.481 286.045 351.259 287.694 351.009C302.112 348.872 316.168 344.764 329.467 338.799C331.283 337.989 333.099 337.121 334.898 336.217C335.29 336.019 335.745 335.986 336.163 336.124C336.58 336.262 336.926 336.56 337.123 336.953C337.321 337.345 337.354 337.8 337.217 338.218C337.079 338.635 336.781 338.981 336.388 339.178C334.549 340.103 332.677 340.994 330.827 341.824C317.253 347.912 302.908 352.105 288.192 354.287C286.509 354.543 284.779 354.771 282.909 354.985C276.685 355.709 270.425 356.072 264.16 356.072Z" fill="black"/>
<path d="M243.376 343.582C241.662 343.582 239.776 343.528 237.991 342.862C235.525 341.954 233.803 339.994 233.503 337.755C233.118 334.932 235.034 332.477 237.105 331.299C239.109 330.146 241.374 329.864 243.37 329.614L264.782 326.937C265.218 326.882 265.659 327.003 266.006 327.273C266.353 327.543 266.579 327.94 266.634 328.376C266.688 328.813 266.567 329.253 266.297 329.6C266.027 329.948 265.63 330.173 265.194 330.228L243.785 332.905C242.016 333.127 240.186 333.359 238.754 334.179C237.683 334.788 236.616 336.026 236.791 337.312C236.944 338.455 238.086 339.362 239.149 339.755C240.545 340.276 242.154 340.269 243.855 340.265L264.155 340.161H264.163C264.603 340.16 265.025 340.334 265.336 340.644C265.648 340.954 265.823 341.375 265.824 341.814C265.826 342.254 265.652 342.675 265.342 342.987C265.032 343.298 264.611 343.474 264.171 343.475L243.869 343.581L243.376 343.582Z" fill="black"/>
<path d="M247.471 330.926C244.072 330.926 240.68 330.804 237.293 330.562C235.326 330.421 233.414 330.214 231.645 329.262C229.748 328.241 227.97 326.051 228.277 323.474C228.601 320.737 230.92 318.794 235.168 317.697C244.435 315.306 253.924 313.884 263.484 313.451C263.702 313.44 263.921 313.472 264.126 313.545C264.332 313.619 264.521 313.732 264.683 313.879C264.845 314.026 264.976 314.204 265.069 314.401C265.162 314.599 265.215 314.813 265.224 315.032C265.234 315.25 265.201 315.468 265.126 315.673C265.051 315.878 264.937 316.067 264.789 316.228C264.641 316.389 264.462 316.519 264.264 316.61C264.066 316.702 263.851 316.753 263.633 316.762C254.302 317.184 245.041 318.574 235.997 320.907C234.078 321.402 231.752 322.317 231.57 323.864C231.457 324.848 232.312 325.858 233.221 326.347C234.411 326.99 235.878 327.142 237.533 327.255C246.348 327.886 255.203 327.677 263.978 326.632C264.414 326.58 264.854 326.704 265.199 326.976C265.544 327.247 265.768 327.645 265.82 328.082C265.872 328.518 265.749 328.957 265.477 329.303C265.205 329.648 264.807 329.872 264.371 329.924C258.762 330.592 253.119 330.926 247.471 330.926Z" fill="black"/>
<path d="M262.854 316.761H262.805C257.776 316.613 252.13 315.096 247.775 313.789C244.113 312.687 242.052 310.693 241.97 308.174C241.917 306.244 243.155 304.357 245.123 303.356C246.676 302.573 248.336 302.42 249.802 302.287L290.056 298.593C286.657 296.497 284.019 294.225 281.938 291.626C279.722 288.865 279.147 286.196 280.318 284.115C281.191 282.564 283.255 280.897 288.149 281.765C296.871 283.337 305.232 286.488 312.821 291.064C317.69 293.991 324.704 298.563 329.391 304.445C330.145 305.378 330.835 306.359 331.458 307.384C331.84 308.001 332.19 308.637 332.508 309.289C332.603 309.485 332.659 309.697 332.672 309.915C332.685 310.132 332.655 310.35 332.584 310.555C332.513 310.761 332.402 310.951 332.258 311.114C332.114 311.277 331.938 311.409 331.743 311.505C331.547 311.6 331.335 311.656 331.117 311.669C330.9 311.682 330.682 311.652 330.477 311.581C330.271 311.51 330.081 311.399 329.918 311.255C329.755 311.11 329.623 310.935 329.527 310.74C329.256 310.183 328.957 309.64 328.631 309.113C328.08 308.208 327.469 307.34 326.802 306.517C322.442 301.048 315.758 296.7 311.109 293.906C303.866 289.538 295.887 286.529 287.563 285.028C286.48 284.837 283.885 284.521 283.2 285.74C282.534 286.924 284.041 288.958 284.517 289.553C287.183 292.881 290.947 295.644 296.363 298.251C296.69 298.408 296.956 298.668 297.121 298.991C297.286 299.314 297.34 299.682 297.276 300.039C297.212 300.395 297.032 300.721 296.764 300.966C296.497 301.211 296.157 301.362 295.795 301.394L250.097 305.588C248.868 305.702 247.6 305.815 246.615 306.312C245.82 306.714 245.259 307.456 245.277 308.074C245.322 309.483 247.924 310.375 248.722 310.615C252.881 311.863 258.256 313.311 262.894 313.452C263.334 313.458 263.753 313.639 264.059 313.954C264.365 314.27 264.534 314.694 264.528 315.133C264.521 315.573 264.341 315.991 264.025 316.298C263.71 316.604 263.286 316.773 262.847 316.766L262.854 316.761Z" fill="black"/>
<path d="M119.67 382.346C119.379 382.345 119.093 382.266 118.842 382.119C98.5796 370.386 85.6128 347.717 85.8068 324.37C85.8104 323.931 85.9885 323.511 86.3018 323.203C86.4569 323.05 86.6406 322.93 86.8423 322.848C87.0441 322.766 87.2599 322.725 87.4775 322.727C87.6951 322.729 87.9102 322.773 88.1106 322.858C88.3109 322.943 88.4926 323.067 88.6452 323.222C88.7978 323.377 88.9183 323.561 89 323.762C89.0816 323.964 89.1227 324.18 89.1209 324.398C88.937 346.573 101.255 368.105 120.502 379.25C120.818 379.432 121.065 379.714 121.204 380.052C121.344 380.389 121.368 380.763 121.273 381.115C121.178 381.467 120.97 381.779 120.68 382C120.39 382.222 120.035 382.342 119.67 382.341V382.346Z" fill="black"/>
<path d="M358.294 344.238C358.1 344.238 357.908 344.204 357.726 344.139C357.313 343.989 356.976 343.681 356.79 343.283C356.604 342.885 356.584 342.429 356.733 342.015C362.043 327.36 360.777 310.538 353.347 297.017C353.147 296.633 353.106 296.186 353.232 295.771C353.357 295.357 353.64 295.008 354.02 294.8C354.399 294.591 354.845 294.539 355.262 294.655C355.679 294.771 356.035 295.046 356.252 295.42C364.134 309.765 365.479 327.606 359.85 343.145C359.734 343.464 359.522 343.741 359.244 343.936C358.966 344.132 358.634 344.237 358.294 344.238Z" fill="black"/>
<path d="M385.808 158.126C385.499 158.126 385.195 158.039 384.933 157.875C384.67 157.711 384.458 157.477 384.322 157.199C384.186 156.921 384.13 156.61 384.161 156.302C384.192 155.994 384.308 155.701 384.497 155.456L394.546 142.441C394.815 142.093 395.211 141.866 395.647 141.811C396.082 141.755 396.523 141.874 396.871 142.143C397.218 142.411 397.445 142.807 397.501 143.243C397.557 143.679 397.438 144.119 397.169 144.467L387.12 157.482C386.966 157.683 386.767 157.845 386.539 157.957C386.312 158.069 386.062 158.127 385.808 158.126Z" fill="#E0E0E0"/>
<path d="M398.601 185.545C398.245 185.546 397.899 185.432 397.613 185.221C397.328 185.01 397.117 184.712 397.014 184.372C396.91 184.033 396.918 183.668 397.037 183.333C397.156 182.999 397.38 182.711 397.675 182.513L411.322 173.342C411.503 173.221 411.706 173.136 411.919 173.093C412.132 173.05 412.352 173.05 412.566 173.092C412.779 173.134 412.983 173.217 413.164 173.338C413.345 173.458 413.501 173.613 413.622 173.794C413.744 173.974 413.828 174.177 413.871 174.39C413.914 174.604 413.915 174.823 413.873 175.037C413.831 175.251 413.748 175.454 413.627 175.635C413.507 175.816 413.352 175.972 413.171 176.094L399.523 185.264C399.251 185.448 398.929 185.546 398.601 185.545Z" fill="#E0E0E0"/>
<path d="M57.9131 107.378C57.4907 107.377 57.0845 107.215 56.7782 106.924L44.8169 95.6424C44.6495 95.4957 44.5134 95.3169 44.4167 95.1164C44.3199 94.916 44.2646 94.6981 44.2539 94.4758C44.2432 94.2535 44.2774 94.0313 44.3544 93.8225C44.4315 93.6137 44.5498 93.4226 44.7023 93.2605C44.8549 93.0984 45.0385 92.9687 45.2422 92.8792C45.446 92.7896 45.6657 92.7421 45.8882 92.7393C46.1108 92.7365 46.3316 92.7786 46.5375 92.863C46.7435 92.9474 46.9303 93.0725 47.0868 93.2307L59.0481 104.512C59.2892 104.74 59.4564 105.035 59.5282 105.358C59.6 105.682 59.573 106.02 59.4508 106.328C59.3286 106.637 59.1168 106.901 58.8427 107.088C58.5686 107.275 58.2448 107.375 57.9131 107.376V107.378Z" fill="#DADADA"/>
<path d="M341.6 22.5573C341.564 22.1362 341.691 21.7175 341.955 21.3872L352.201 8.52817C352.337 8.35796 352.505 8.21613 352.695 8.11079C352.885 8.00544 353.095 7.93863 353.311 7.91418C353.527 7.88973 353.746 7.90812 353.955 7.96829C354.165 8.02846 354.36 8.12923 354.53 8.26486C354.7 8.40049 354.842 8.56832 354.947 8.75876C355.053 8.9492 355.12 9.15853 355.144 9.37479C355.168 9.59105 355.15 9.81001 355.09 10.0192C355.03 10.2283 354.929 10.4236 354.793 10.5938L344.548 23.4528C344.341 23.7131 344.061 23.9052 343.744 24.0042C343.426 24.1032 343.086 24.1046 342.768 24.008C342.45 23.9115 342.168 23.7215 341.96 23.4628C341.751 23.2041 341.625 22.8886 341.597 22.5573H341.6Z" fill="black"/>
</svg>
