<svg width="552" height="440" viewBox="0 0 552 440" fill="none" xmlns="http://www.w3.org/2000/svg">
<path d="M269.849 383.177C405.13 383.177 514.796 361.679 514.796 335.16C514.796 308.641 405.13 287.143 269.849 287.143C134.569 287.143 24.9023 308.641 24.9023 335.16C24.9023 361.679 134.569 383.177 269.849 383.177Z" fill="#C7C7C7"/>
<path d="M477.006 257.86C455.807 274.68 426.409 248.688 433.438 227.397C437.072 216.402 445.694 207.653 447.426 196.028C449.214 184.012 454.89 178.944 464.177 171.686C467.811 168.843 469.267 163.661 470.964 159.338C474.151 151.312 478.99 144.502 486.614 140.18C496.085 134.848 514.727 142.037 517.044 153.938C519.864 168.43 501.061 175.287 494.915 184.585C489.63 192.611 494.617 203.09 486.889 211.747C475.241 224.783 493.677 245.466 477.006 257.86Z" fill="#C7C7C7"/>
<path d="M454.798 282.374C454.583 282.371 454.377 282.289 454.22 282.143C454.063 281.996 453.967 281.796 453.95 281.582C450.189 240.227 462.789 198.321 488.518 166.584C488.661 166.409 488.868 166.297 489.094 166.274C489.319 166.25 489.545 166.316 489.722 166.458C489.898 166.604 490.01 166.813 490.033 167.04C490.057 167.268 489.99 167.495 489.848 167.674C464.406 199.054 451.943 240.513 455.658 281.433C455.677 281.66 455.606 281.885 455.46 282.059C455.314 282.233 455.105 282.342 454.878 282.362L454.798 282.374Z" fill="black"/>
<path d="M466.814 230.665C461.081 238.759 456.587 247.863 446.875 249.605C432.223 252.3 414.681 266.276 415.575 284.529C415.323 321.7 472.008 320.943 476.341 293.335C478.405 280.287 481.719 274.6 495.065 272.697C503.09 271.55 505.464 264.82 507.676 257.929C509.745 254.768 512.776 252.356 516.321 251.05C521.401 249.204 527.133 250.007 532.556 249.846C537.349 249.697 542.141 248.7 545.696 245.547C549.151 242.409 551.348 238.122 551.876 233.485C552.414 228.57 551.196 223.623 548.436 219.52C545.803 215.524 542.022 212.418 537.59 210.612C533.004 208.719 527.855 208.719 523.269 210.612C518.064 212.756 514.028 216.642 509.981 220.437L509.901 220.518C507.255 222.943 504.036 224.657 500.547 225.499C497.058 226.341 493.412 226.284 489.951 225.333C481.329 223.063 472.948 221.939 466.814 230.665Z" fill="#949494"/>
<path d="M414.887 318.237C414.734 318.239 414.583 318.199 414.451 318.123C414.262 318.008 414.124 317.825 414.066 317.611C414.009 317.398 414.036 317.17 414.141 316.976C438.06 276.557 475.936 246.282 520.632 231.857C520.85 231.787 521.086 231.806 521.289 231.911C521.492 232.015 521.646 232.196 521.716 232.413C521.786 232.63 521.766 232.867 521.662 233.07C521.558 233.273 521.377 233.427 521.159 233.496C476.868 247.78 439.331 277.769 415.62 317.813C415.546 317.942 415.439 318.049 415.31 318.123C415.182 318.198 415.035 318.237 414.887 318.237Z" fill="black"/>
<path d="M72.1515 273.201C93.351 290.021 122.737 264.029 115.72 242.738C112.074 231.777 103.452 223.029 101.732 211.403C99.9436 199.387 94.2568 194.319 84.9813 187.062C81.3467 184.218 79.8906 178.978 78.1937 174.713C74.9949 166.688 70.2253 159.877 62.532 155.555C53.0616 150.223 34.4303 157.412 32.1028 169.313C29.2938 183.805 48.0856 190.662 54.2425 199.96C59.528 207.986 54.5406 218.465 62.2683 227.122C73.9515 240.158 55.4693 260.841 72.1515 273.201Z" fill="#949494"/>
<path d="M94.3482 297.795H94.2679C94.1563 297.785 94.0478 297.752 93.9487 297.7C93.8495 297.648 93.7617 297.577 93.6903 297.49C93.6189 297.404 93.5653 297.304 93.5326 297.197C93.4999 297.09 93.4887 296.977 93.4998 296.866C97.2146 255.946 84.7517 214.487 59.2985 183.106C59.1559 182.927 59.0892 182.7 59.1128 182.473C59.1364 182.245 59.2484 182.036 59.4246 181.891C59.6032 181.748 59.8307 181.682 60.0581 181.705C60.2854 181.729 60.4943 181.841 60.6399 182.017C86.3683 213.753 98.9573 255.659 95.2081 297.015C95.1856 297.228 95.0855 297.425 94.9269 297.569C94.7683 297.713 94.5623 297.793 94.3482 297.795Z" fill="black"/>
<path d="M85.9099 241.098C91.6426 249.193 96.137 258.296 105.848 260.039C120.501 262.756 138.043 276.733 137.149 294.986C137.401 332.156 80.7046 331.388 76.3821 303.791C74.3069 290.743 70.9934 285.045 57.6591 283.153C49.6333 282.007 47.26 275.288 45.0472 268.397C42.9823 265.232 39.95 262.819 36.4022 261.518C31.3231 259.672 25.5904 260.475 20.1672 260.303C15.3747 260.165 10.5821 259.156 7.02786 256.015C3.57309 252.875 1.37345 248.59 0.836548 243.953C0.308024 239.039 1.52568 234.095 4.27617 229.988C6.91269 225.99 10.698 222.884 15.1339 221.08C19.7159 219.188 24.8607 219.188 29.4427 221.08C34.6595 223.224 38.6953 227.11 42.7311 230.905L42.8229 230.986C45.4702 233.409 48.6886 235.121 52.1774 235.964C55.6661 236.806 59.3114 236.75 62.7727 235.801C71.3947 233.519 79.7415 232.396 85.9099 241.098Z" fill="#C7C7C7"/>
<path d="M137.837 328.694C137.686 328.694 137.538 328.656 137.407 328.581C137.277 328.507 137.168 328.399 137.091 328.27C113.387 288.203 75.838 258.199 31.5294 243.919C31.3142 243.848 31.1356 243.695 31.0326 243.493C30.9295 243.291 30.9103 243.057 30.979 242.841C31.0476 242.623 31.1996 242.442 31.4017 242.337C31.6037 242.232 31.8394 242.211 32.0568 242.279C76.756 256.698 114.634 286.974 138.548 327.398C138.657 327.59 138.687 327.818 138.632 328.032C138.576 328.246 138.439 328.43 138.249 328.545C138.129 328.633 137.986 328.685 137.837 328.694Z" fill="black"/>
<path d="M490.914 366.071H58.4617C56.1446 366.071 53.9224 365.151 52.284 363.512C50.6456 361.874 49.7251 359.651 49.7251 357.334V353.688H499.651V357.369C499.641 359.68 498.717 361.893 497.08 363.524C495.442 365.155 493.225 366.071 490.914 366.071Z" fill="#949494"/>
<path d="M452.711 285.183H96.6645L49.7251 353.688H499.651L452.711 285.183Z" fill="white"/>
<path d="M446.577 59.3485H102.798C101.226 59.3576 99.7213 59.9885 98.6128 61.1035C97.5043 62.2184 96.8821 63.7268 96.8821 65.299V285.194H452.528V65.299C452.528 63.7208 451.901 62.2073 450.785 61.0914C449.669 59.9754 448.155 59.3485 446.577 59.3485Z" fill="#949494"/>
<path d="M441.647 78.06H107.729V267.663H441.647V78.06Z" fill="white"/>
<path d="M490.914 366.965H58.4618C55.9185 366.959 53.4811 365.946 51.6827 364.148C49.8843 362.349 48.8713 359.912 48.8652 357.369V353.688C48.8682 353.461 48.9598 353.244 49.1204 353.084C49.281 352.923 49.498 352.831 49.7251 352.828H499.651C499.878 352.831 500.095 352.923 500.255 353.084C500.416 353.244 500.508 353.461 500.511 353.688V357.369C500.508 359.913 499.495 362.352 497.696 364.151C495.897 365.95 493.458 366.962 490.914 366.965ZM50.585 354.606V357.426C50.5881 359.514 51.4189 361.516 52.8954 362.992C54.372 364.469 56.3737 365.3 58.4618 365.303H490.914C493.002 365.3 495.004 364.469 496.48 362.992C497.957 361.516 498.788 359.514 498.791 357.426V354.606H50.585Z" fill="black"/>
<path d="M499.65 354.606H49.7249C49.5688 354.606 49.4156 354.564 49.2821 354.483C49.1486 354.402 49.04 354.286 48.9682 354.147C48.8896 354.013 48.8481 353.861 48.8481 353.706C48.8481 353.55 48.8896 353.398 48.9682 353.264L95.9535 284.667C96.0334 284.552 96.1398 284.459 96.2636 284.395C96.3875 284.332 96.525 284.299 96.6643 284.3H452.711C452.85 284.299 452.988 284.332 453.112 284.395C453.236 284.459 453.342 284.552 453.422 284.667L500.361 353.172C500.449 353.302 500.499 353.452 500.508 353.608C500.516 353.764 500.482 353.919 500.409 354.057C500.336 354.194 500.227 354.31 500.093 354.39C499.959 354.471 499.806 354.514 499.65 354.514V354.606ZM51.353 352.886H498.022L452.31 286.054H97.1229L51.353 352.886Z" fill="black"/>
<path d="M452.528 286.054H96.8824C96.6543 286.054 96.4356 285.963 96.2743 285.802C96.1131 285.641 96.0225 285.422 96.0225 285.194V65.299C96.0404 63.4983 96.7637 61.7764 98.037 60.5031C99.3103 59.2297 101.032 58.5065 102.833 58.4885H446.577C448.378 58.5065 450.1 59.2297 451.373 60.5031C452.647 61.7764 453.37 63.4983 453.388 65.299V285.194C453.388 285.422 453.297 285.641 453.136 285.802C452.975 285.963 452.756 286.054 452.528 286.054ZM97.7079 284.334H451.668V65.3449C451.668 63.9947 451.132 62.6999 450.177 61.7452C449.222 60.7906 447.927 60.2542 446.577 60.2542H102.799C101.448 60.2542 100.154 60.7906 99.1989 61.7452C98.2442 62.6999 97.7079 63.9947 97.7079 65.3449V284.334Z" fill="black"/>
<path d="M441.647 268.535H107.729C107.501 268.532 107.284 268.44 107.124 268.28C106.963 268.119 106.872 267.902 106.869 267.675V78.0715C106.869 77.8434 106.959 77.6247 107.121 77.4634C107.282 77.3022 107.5 77.2116 107.729 77.2116H441.647C441.875 77.2116 442.094 77.3022 442.255 77.4634C442.416 77.6247 442.507 77.8434 442.507 78.0715V267.675C442.504 267.902 442.412 268.119 442.252 268.28C442.091 268.44 441.874 268.532 441.647 268.535ZM108.588 266.815H440.844V78.9314H108.588V266.815Z" fill="black"/>
<path d="M366.17 275.517H183.217V283.83H366.17V275.517Z" fill="white"/>
<path d="M259.175 68.4979C259.177 69.6073 258.85 70.6924 258.236 71.6159C257.621 72.5394 256.746 73.2598 255.722 73.6859C254.698 74.112 253.57 74.2247 252.482 74.0096C251.393 73.7946 250.393 73.2615 249.608 72.4779C248.823 71.6943 248.288 70.6953 248.07 69.6074C247.853 68.5195 247.964 67.3916 248.388 66.3665C248.812 65.3414 249.53 64.4651 250.452 63.8485C251.375 63.2319 252.459 62.9028 253.568 62.9028C255.053 62.9028 256.478 63.4919 257.529 64.5409C258.58 65.5898 259.172 67.013 259.175 68.4979Z" fill="#67A4E9"/>
<path d="M339.204 349.01H210.172C210.016 349.011 209.863 348.969 209.729 348.888C209.596 348.807 209.487 348.691 209.415 348.552C209.337 348.418 209.295 348.266 209.295 348.11C209.295 347.955 209.337 347.803 209.415 347.669L222.876 328.017C222.956 327.903 223.062 327.81 223.186 327.746C223.31 327.682 223.447 327.649 223.587 327.65H325.698C325.837 327.649 325.975 327.682 326.098 327.746C326.222 327.81 326.329 327.903 326.409 328.017L339.949 347.726C340.03 347.859 340.073 348.012 340.073 348.168C340.073 348.323 340.03 348.476 339.949 348.609C339.873 348.737 339.763 348.842 339.632 348.913C339.501 348.983 339.353 349.017 339.204 349.01ZM211.8 347.291H337.576L325.296 329.382H224.149L211.8 347.291Z" fill="black"/>
<path d="M143.328 303.55H119.538C119.387 303.55 119.24 303.51 119.109 303.436C118.979 303.362 118.87 303.255 118.792 303.126C118.719 302.994 118.681 302.846 118.681 302.696C118.681 302.545 118.719 302.397 118.792 302.266L124.892 291.397C124.967 291.265 125.075 291.155 125.206 291.079C125.337 291.002 125.486 290.962 125.637 290.961H148.476C148.623 290.96 148.767 290.996 148.895 291.067C149.024 291.137 149.132 291.239 149.21 291.362C149.28 291.489 149.317 291.631 149.317 291.775C149.317 291.92 149.28 292.062 149.21 292.188L144.108 303.011C144.046 303.168 143.939 303.304 143.8 303.4C143.662 303.496 143.497 303.548 143.328 303.55ZM120.959 301.865H142.744L147.101 292.692H126.142L120.959 301.865Z" fill="black"/>
<path d="M184.421 303.55H160.618C160.478 303.551 160.339 303.517 160.215 303.451C160.091 303.385 159.985 303.289 159.908 303.172C159.828 303.053 159.778 302.917 159.764 302.775C159.75 302.633 159.772 302.489 159.827 302.358L164.322 291.546C164.385 291.388 164.495 291.252 164.635 291.156C164.776 291.06 164.942 291.008 165.113 291.007H187.975C188.114 291.005 188.251 291.036 188.375 291.098C188.499 291.16 188.606 291.252 188.688 291.364C188.769 291.477 188.821 291.608 188.841 291.745C188.861 291.883 188.847 292.023 188.8 292.154L185.235 303.011C185.17 303.173 185.057 303.311 184.911 303.407C184.766 303.504 184.595 303.553 184.421 303.55ZM161.903 301.865H183.79L186.794 292.692H165.675L161.903 301.865Z" fill="black"/>
<path d="M225.501 303.55H201.71C201.579 303.551 201.448 303.521 201.33 303.464C201.211 303.406 201.107 303.322 201.026 303.218C200.945 303.113 200.889 302.992 200.863 302.863C200.836 302.734 200.84 302.6 200.874 302.472L203.763 291.603C203.809 291.419 203.915 291.256 204.065 291.14C204.214 291.023 204.399 290.961 204.588 290.961H227.45C227.577 290.963 227.701 290.991 227.816 291.045C227.931 291.098 228.033 291.175 228.115 291.271C228.195 291.367 228.252 291.479 228.284 291.6C228.316 291.721 228.321 291.847 228.299 291.97L226.35 302.839C226.312 303.038 226.208 303.217 226.053 303.347C225.898 303.476 225.703 303.548 225.501 303.55ZM202.823 301.865H224.779L226.418 292.692H205.253L202.823 301.865Z" fill="black"/>
<path d="M266.57 303.55H242.791C242.67 303.552 242.549 303.527 242.439 303.478C242.328 303.428 242.229 303.355 242.149 303.264C242.068 303.172 242.008 303.064 241.97 302.948C241.933 302.832 241.919 302.709 241.931 302.587L243.204 291.718C243.232 291.509 243.334 291.317 243.492 291.178C243.65 291.039 243.853 290.962 244.064 290.961H266.926C267.042 290.961 267.156 290.984 267.263 291.029C267.369 291.074 267.465 291.141 267.545 291.225C267.703 291.396 267.79 291.622 267.786 291.855L267.442 302.713C267.44 302.826 267.416 302.937 267.372 303.04C267.327 303.143 267.262 303.236 267.181 303.314C267.1 303.392 267.004 303.453 266.899 303.493C266.795 303.534 266.683 303.553 266.57 303.55ZM243.754 301.865H265.756L266.031 292.692H244.786L243.754 301.865Z" fill="black"/>
<path d="M307.674 303.55H283.872C283.647 303.55 283.432 303.463 283.272 303.306C283.111 303.15 283.018 302.937 283.012 302.713L282.679 291.855C282.675 291.74 282.694 291.624 282.735 291.516C282.777 291.407 282.839 291.308 282.92 291.225C282.999 291.14 283.095 291.073 283.202 291.028C283.308 290.983 283.423 290.96 283.539 290.961H306.401C306.61 290.962 306.812 291.04 306.968 291.179C307.124 291.319 307.224 291.51 307.25 291.718L308.522 302.587C308.539 302.708 308.529 302.831 308.493 302.948C308.457 303.065 308.397 303.172 308.316 303.264C308.234 303.353 308.135 303.424 308.025 303.474C307.914 303.523 307.795 303.549 307.674 303.55ZM284.743 301.83H306.699L305.633 292.658H284.422L284.743 301.83Z" fill="black"/>
<path d="M348.754 303.55H324.952C324.751 303.55 324.556 303.479 324.403 303.348C324.25 303.218 324.148 303.038 324.115 302.839L322.166 291.97C322.144 291.847 322.149 291.721 322.181 291.6C322.212 291.479 322.27 291.367 322.35 291.271C322.429 291.174 322.529 291.096 322.642 291.043C322.755 290.989 322.878 290.961 323.003 290.961H345.865C346.056 290.962 346.241 291.025 346.392 291.141C346.543 291.257 346.652 291.419 346.702 291.603L349.58 302.472C349.613 302.6 349.617 302.733 349.591 302.862C349.565 302.991 349.51 303.113 349.431 303.218C349.351 303.321 349.248 303.404 349.131 303.462C349.014 303.52 348.885 303.55 348.754 303.55ZM325.674 301.865H347.631L345.212 292.692H324.035L325.674 301.865Z" fill="black"/>
<path d="M389.835 303.55H366.044C365.861 303.564 365.678 303.519 365.521 303.422C365.365 303.326 365.243 303.182 365.173 303.011L361.619 292.142C361.578 292.014 361.567 291.878 361.587 291.745C361.607 291.612 361.657 291.485 361.733 291.374C361.815 291.265 361.921 291.177 362.042 291.115C362.163 291.054 362.297 291.021 362.433 291.018H385.295C385.466 291.017 385.633 291.067 385.775 291.164C385.916 291.26 386.025 291.397 386.086 291.557L390.58 302.415C390.636 302.547 390.657 302.69 390.643 302.832C390.629 302.974 390.58 303.111 390.5 303.229C390.421 303.33 390.32 303.411 390.205 303.467C390.09 303.523 389.963 303.551 389.835 303.55ZM366.663 301.865H388.551L384.767 292.692H363.671L366.663 301.865Z" fill="black"/>
<path d="M430.916 303.55H407.125C406.962 303.549 406.802 303.502 406.664 303.415C406.527 303.328 406.416 303.204 406.345 303.057L401.174 292.188C401.104 292.062 401.067 291.92 401.067 291.775C401.067 291.631 401.104 291.489 401.174 291.362C401.25 291.239 401.356 291.137 401.482 291.066C401.609 290.996 401.752 290.96 401.897 290.961H424.793C424.945 290.962 425.093 291.002 425.224 291.079C425.355 291.155 425.463 291.265 425.538 291.397L431.649 302.266C431.724 302.397 431.763 302.546 431.761 302.697C431.76 302.849 431.719 302.997 431.642 303.127C431.566 303.257 431.456 303.365 431.324 303.439C431.193 303.513 431.044 303.552 430.893 303.55H430.916ZM407.664 301.865H429.448L424.311 292.692H403.318L407.664 301.865Z" fill="black"/>
<path d="M117.577 318.799H93.7865C93.6362 318.799 93.4886 318.759 93.358 318.685C93.2275 318.611 93.1183 318.504 93.0412 318.375C92.9679 318.243 92.9294 318.095 92.9294 317.945C92.9294 317.794 92.9679 317.646 93.0412 317.515L99.1752 306.646C99.2519 306.513 99.3622 306.403 99.4951 306.326C99.6279 306.25 99.7786 306.21 99.9319 306.21H122.76C122.904 306.211 123.046 306.248 123.172 306.318C123.298 306.388 123.405 306.489 123.482 306.611C123.552 306.738 123.589 306.88 123.589 307.024C123.589 307.169 123.552 307.311 123.482 307.437L118.311 318.306C118.245 318.447 118.142 318.567 118.012 318.654C117.883 318.741 117.733 318.791 117.577 318.799ZM95.254 317.079H117.038L121.395 307.907H100.391L95.254 317.079Z" fill="black"/>
<path d="M158.669 318.799H134.867C134.727 318.798 134.589 318.763 134.465 318.697C134.341 318.631 134.235 318.536 134.156 318.421C134.079 318.301 134.031 318.165 134.017 318.024C134.004 317.882 134.024 317.739 134.076 317.607L138.57 306.738C138.636 306.582 138.746 306.448 138.886 306.355C139.027 306.261 139.192 306.211 139.361 306.21H162.235C162.372 306.209 162.506 306.24 162.628 306.302C162.75 306.364 162.855 306.454 162.934 306.566C163.013 306.675 163.066 306.801 163.088 306.935C163.11 307.068 163.1 307.205 163.06 307.334L159.495 318.203C159.439 318.377 159.328 318.529 159.18 318.636C159.031 318.744 158.852 318.801 158.669 318.799ZM136.163 317.079H158.039L161.043 307.907H139.935L136.163 317.079Z" fill="black"/>
<path d="M199.75 318.799H175.993C175.862 318.8 175.731 318.77 175.613 318.713C175.494 318.655 175.39 318.571 175.309 318.467C175.228 318.363 175.172 318.241 175.146 318.112C175.119 317.983 175.123 317.849 175.156 317.721L178.046 306.852C178.092 306.668 178.198 306.505 178.348 306.389C178.497 306.272 178.682 306.21 178.871 306.21H201.699C201.825 306.212 201.95 306.24 202.065 306.294C202.179 306.347 202.281 306.424 202.364 306.52C202.444 306.616 202.502 306.728 202.534 306.849C202.566 306.97 202.57 307.096 202.547 307.219L200.598 318.088C200.561 318.287 200.456 318.466 200.301 318.596C200.147 318.725 199.952 318.797 199.75 318.799ZM177.071 317.079H199.027L200.667 307.907H179.502L177.071 317.079Z" fill="black"/>
<path d="M240.83 318.799H217.04C216.919 318.799 216.799 318.774 216.688 318.724C216.577 318.675 216.478 318.603 216.398 318.513C216.318 318.42 216.258 318.312 216.221 318.196C216.183 318.08 216.169 317.958 216.18 317.836L217.452 306.967C217.48 306.758 217.583 306.566 217.741 306.427C217.899 306.288 218.102 306.211 218.312 306.21H241.174C241.29 306.21 241.405 306.233 241.511 306.278C241.618 306.323 241.714 306.39 241.794 306.474C241.952 306.64 242.039 306.863 242.034 307.093L241.69 317.962C241.689 318.074 241.665 318.184 241.621 318.286C241.577 318.388 241.514 318.481 241.434 318.559C241.354 318.637 241.26 318.698 241.156 318.739C241.052 318.78 240.942 318.801 240.83 318.799ZM218.003 317.079H240.005L240.28 307.907H219.081L218.003 317.079Z" fill="black"/>
<path d="M281.923 318.799H258.12C257.896 318.799 257.681 318.712 257.52 318.555C257.36 318.399 257.267 318.186 257.261 317.962L256.928 307.093C256.925 306.978 256.945 306.864 256.987 306.757C257.029 306.65 257.091 306.552 257.172 306.47C257.252 306.388 257.348 306.322 257.453 306.278C257.559 306.233 257.673 306.21 257.788 306.21H280.65C280.86 306.209 281.063 306.286 281.22 306.425C281.376 306.565 281.476 306.758 281.498 306.967L282.771 317.836C282.787 317.957 282.776 318.08 282.741 318.196C282.705 318.313 282.645 318.421 282.565 318.513C282.483 318.602 282.384 318.673 282.273 318.723C282.163 318.772 282.044 318.798 281.923 318.799ZM258.992 317.079H280.982L279.916 307.907H258.705L258.992 317.079Z" fill="black"/>
<path d="M323.003 318.799H299.212C299.009 318.802 298.812 318.732 298.656 318.601C298.5 318.471 298.397 318.289 298.364 318.088L296.415 307.219C296.393 307.096 296.398 306.97 296.43 306.85C296.462 306.729 296.52 306.617 296.6 306.521C296.679 306.425 296.779 306.347 296.891 306.294C297.004 306.24 297.127 306.212 297.251 306.21H320.114C320.304 306.211 320.489 306.274 320.64 306.39C320.791 306.506 320.9 306.668 320.95 306.852L323.828 317.721C323.861 317.849 323.865 317.982 323.839 318.111C323.813 318.24 323.759 318.362 323.679 318.467C323.599 318.57 323.497 318.653 323.379 318.711C323.262 318.769 323.133 318.799 323.003 318.799ZM299.923 317.079H321.879L319.46 307.907H298.283L299.923 317.079Z" fill="black"/>
<path d="M364.084 318.799H340.293C340.111 318.8 339.934 318.743 339.788 318.635C339.641 318.528 339.533 318.376 339.479 318.203L335.913 307.334C335.864 307.204 335.848 307.064 335.866 306.926C335.884 306.789 335.935 306.657 336.016 306.544C336.096 306.431 336.203 306.339 336.327 306.277C336.451 306.215 336.588 306.184 336.727 306.187H359.589C359.76 306.185 359.928 306.234 360.071 306.328C360.214 306.422 360.326 306.557 360.392 306.715L364.875 317.584C364.92 317.712 364.934 317.849 364.916 317.984C364.899 318.119 364.849 318.247 364.772 318.359C364.695 318.471 364.592 318.563 364.472 318.627C364.353 318.692 364.219 318.727 364.084 318.73V318.799ZM340.912 317.079H362.799L359.016 307.907H337.92L340.912 317.079Z" fill="black"/>
<path d="M405.164 318.799H381.373C381.21 318.798 381.051 318.751 380.913 318.664C380.775 318.577 380.665 318.453 380.594 318.306L375.423 307.437C375.361 307.306 375.334 307.161 375.344 307.017C375.354 306.872 375.401 306.733 375.48 306.611C375.556 306.488 375.662 306.386 375.788 306.315C375.915 306.245 376.058 306.209 376.203 306.21H399.065C399.216 306.211 399.365 306.251 399.496 306.328C399.627 306.404 399.735 306.514 399.81 306.646L405.921 317.515C405.995 317.646 406.034 317.795 406.033 317.946C406.032 318.098 405.99 318.246 405.914 318.376C405.837 318.506 405.727 318.614 405.596 318.688C405.464 318.762 405.315 318.801 405.164 318.799ZM381.924 317.079H403.708L398.572 307.907H377.567L381.924 317.079Z" fill="black"/>
<path d="M445.431 318.799H421.606C421.444 318.799 421.286 318.752 421.15 318.665C421.013 318.577 420.905 318.453 420.837 318.306L415.621 307.437C415.559 307.306 415.532 307.161 415.542 307.017C415.552 306.872 415.599 306.733 415.678 306.611C415.753 306.488 415.86 306.386 415.986 306.315C416.113 306.245 416.255 306.209 416.4 306.21H439.262C439.415 306.212 439.565 306.253 439.697 306.329C439.83 306.406 439.941 306.515 440.019 306.646L446.119 317.515C446.193 317.646 446.231 317.793 446.231 317.944C446.23 318.094 446.19 318.241 446.114 318.371C446.039 318.501 445.931 318.609 445.801 318.684C445.671 318.759 445.524 318.799 445.373 318.799H445.431ZM422.179 317.079H443.963L438.815 307.907H417.799L422.179 317.079Z" fill="black"/>
<path d="M352.767 24.7688H196.609C185.622 24.7688 176.716 33.675 176.716 44.6613V229.323C176.716 240.309 185.622 249.216 196.609 249.216H352.767C363.754 249.216 372.66 240.309 372.66 229.323V44.6613C372.66 33.675 363.754 24.7688 352.767 24.7688Z" fill="white"/>
<path d="M311.95 35.959C311.95 36.9318 311.662 37.8828 311.121 38.6917C310.581 39.5006 309.813 40.131 308.914 40.5033C308.015 40.8756 307.026 40.973 306.072 40.7832C305.118 40.5934 304.242 40.1249 303.554 39.4371C302.866 38.7492 302.397 37.8727 302.208 36.9186C302.018 35.9645 302.115 34.9755 302.487 34.0767C302.86 33.178 303.49 32.4098 304.299 31.8693C305.108 31.3288 306.059 31.0404 307.032 31.0404C308.335 31.0434 309.585 31.5626 310.506 32.4843C311.428 33.4061 311.947 34.6555 311.95 35.959Z" fill="#EBEBEB"/>
<path d="M333.574 35.959C333.574 36.9318 333.286 37.8828 332.745 38.6917C332.205 39.5006 331.437 40.131 330.538 40.5033C329.639 40.8756 328.65 40.973 327.696 40.7832C326.742 40.5934 325.865 40.1249 325.177 39.4371C324.49 38.7492 324.021 37.8727 323.831 36.9186C323.642 35.9645 323.739 34.9755 324.111 34.0767C324.484 33.178 325.114 32.4098 325.923 31.8693C326.732 31.3288 327.683 31.0404 328.655 31.0404C329.959 31.0434 331.208 31.5626 332.13 32.4843C333.052 33.4061 333.571 34.6555 333.574 35.959Z" fill="#949494"/>
<path d="M355.198 35.959C355.2 36.9351 354.913 37.8899 354.372 38.7024C353.831 39.5149 353.061 40.1486 352.16 40.5231C351.258 40.8977 350.266 40.9963 349.309 40.8064C348.351 40.6166 347.472 40.1468 346.782 39.4566C346.091 38.7664 345.622 37.8869 345.432 36.9295C345.242 35.9721 345.34 34.9799 345.715 34.0785C346.09 33.1772 346.723 32.4073 347.536 31.8665C348.348 31.3256 349.303 31.0381 350.279 31.0404C351.583 31.0434 352.832 31.5626 353.754 32.4844C354.676 33.4061 355.195 34.6555 355.198 35.959Z" fill="black"/>
<path d="M352.767 250.087H196.632C191.127 250.081 185.849 247.891 181.956 243.999C178.063 240.106 175.874 234.828 175.868 229.323V44.7301C175.863 41.9999 176.397 39.2956 177.438 36.7718C178.479 34.248 180.008 31.9542 181.936 30.0216C183.865 28.0889 186.155 26.5553 188.677 25.5084C191.198 24.4615 193.901 23.9219 196.632 23.9204H352.767C358.269 23.9265 363.544 26.1148 367.435 30.0053C371.325 33.8958 373.514 39.1708 373.52 44.6728V229.323C373.517 234.827 371.33 240.105 367.439 243.998C363.548 247.891 358.271 250.081 352.767 250.087ZM196.632 25.6402C191.584 25.6433 186.743 27.6491 183.173 31.2174C179.602 34.7857 177.594 39.6249 177.588 44.6728V229.323C177.594 234.372 179.602 239.213 183.172 242.783C186.742 246.353 191.583 248.361 196.632 248.367H352.767C357.814 248.358 362.652 246.348 366.22 242.779C369.787 239.209 371.794 234.37 371.8 229.323V44.7301C371.794 39.6842 369.787 34.8468 366.219 31.2788C362.651 27.7108 357.813 25.7036 352.767 25.6976L196.632 25.6402Z" fill="black"/>
<path d="M372.66 45.5326H176.716C176.488 45.5326 176.269 45.442 176.108 45.2808C175.947 45.1195 175.856 44.9008 175.856 44.6727C175.856 44.4447 175.947 44.226 176.108 44.0647C176.269 43.9034 176.488 43.8128 176.716 43.8128H372.66C372.888 43.8128 373.107 43.9034 373.268 44.0647C373.429 44.226 373.52 44.4447 373.52 44.6727C373.52 44.9008 373.429 45.1195 373.268 45.2808C373.107 45.442 372.888 45.5326 372.66 45.5326Z" fill="black"/>
<path d="M244.27 69.759L222.979 60.7472L201.699 69.759V19.575H244.27V69.759Z" fill="#949494"/>
<path d="M240.67 81.5569H191.311V134.871H240.67V81.5569Z" fill="#EBEBEB"/>
<path d="M358.076 81.5569H247.492V86.0858H358.076V81.5569Z" fill="#C7C7C7"/>
<path d="M358.076 93.6873H247.492V98.2162H358.076V93.6873Z" fill="#C7C7C7"/>
<path d="M358.076 105.806H247.492V110.335H358.076V105.806Z" fill="#C7C7C7"/>
<path d="M358.076 117.937H247.492V122.466H358.076V117.937Z" fill="#C7C7C7"/>
<path d="M311.4 130.067H247.492V134.596H311.4V130.067Z" fill="#C7C7C7"/>
<path d="M358.076 153.617H191.311V158.146H358.076V153.617Z" fill="#C7C7C7"/>
<path d="M358.076 165.747H191.311V170.276H358.076V165.747Z" fill="#C7C7C7"/>
<path d="M358.076 177.878H191.311V182.407H358.076V177.878Z" fill="#C7C7C7"/>
<path d="M358.076 190.008H191.311V194.537H358.076V190.008Z" fill="#C7C7C7"/>
<path d="M311.4 202.139H191.311V206.667H311.4V202.139Z" fill="#C7C7C7"/>
<path d="M357.388 59.3485H280.604V72.0063H357.388V59.3485Z" fill="#EBEBEB"/>
<path d="M279.446 237.658C279.316 237.66 279.186 237.632 279.068 237.578L261.503 229.197C261.396 229.152 261.299 229.085 261.218 229.001C261.138 228.917 261.075 228.818 261.034 228.709C260.993 228.6 260.975 228.484 260.98 228.367C260.985 228.251 261.014 228.137 261.064 228.032C261.114 227.928 261.186 227.834 261.273 227.758C261.361 227.681 261.463 227.623 261.574 227.587C261.685 227.552 261.801 227.539 261.917 227.549C262.033 227.56 262.146 227.594 262.248 227.649L279.446 235.847L296.644 227.649C296.747 227.589 296.861 227.55 296.98 227.536C297.099 227.522 297.219 227.533 297.333 227.568C297.447 227.603 297.553 227.662 297.643 227.74C297.733 227.818 297.806 227.914 297.857 228.022C297.909 228.13 297.937 228.247 297.94 228.366C297.943 228.486 297.922 228.604 297.877 228.715C297.831 228.826 297.764 228.926 297.678 229.008C297.592 229.091 297.49 229.156 297.378 229.197L279.813 237.658C279.692 237.686 279.567 237.686 279.446 237.658Z" fill="black"/>
<path d="M521.102 439.14H419.14L391.543 335.114C391.543 335.114 363.499 305.499 350.153 284.3C336.807 263.1 331.659 256.095 330.513 249.124C329.504 242.933 322.223 198 320.676 188.426C320.589 187.919 320.623 187.398 320.774 186.906C320.926 186.415 321.19 185.965 321.547 185.594C321.665 185.448 321.804 185.32 321.96 185.216C325.17 182.785 333.001 179.552 341.909 194.915C352.16 212.618 353.65 234.953 353.868 240.146L357.502 246.28L367.466 263.077L379.883 284.002C379.883 284.002 393.08 281.56 402.114 270.816L389.72 249.892L379.791 233.141L375.893 226.549V226.491L349.121 188.965C349.121 188.965 335.982 183.232 323.049 177.178C310.116 171.125 305.977 149.856 315.401 151.301C318.979 151.851 326.867 154.741 335.271 158.123C348.972 163.603 364.015 170.345 364.015 170.345C369.908 164.968 379.94 168.052 379.94 168.052C379.94 168.052 386.98 164.326 394.02 165.358C401.06 166.39 433.231 196.704 438.288 206.736C443.344 216.769 455.257 311.163 455.257 311.163L521.102 439.14Z" fill="white"/>
<path d="M328.919 159.029C328.733 160.831 328.158 162.572 327.234 164.131C326.694 164.955 325.882 165.564 324.939 165.851C323.996 166.139 322.982 166.085 322.074 165.702L312.902 161.952C312.045 161.599 311.327 160.975 310.858 160.177C310.388 159.378 310.192 158.447 310.299 157.527C310.444 155.861 310.974 154.252 311.847 152.826C312.368 152.045 313.136 151.462 314.027 151.169C314.919 150.876 315.883 150.89 316.766 151.209L326.064 154.454C326.995 154.769 327.789 155.397 328.309 156.231C328.83 157.065 329.045 158.054 328.919 159.029Z" fill="#C7C7C7"/>
<path d="M332.726 201.955C330.307 203.927 326.523 204.053 324.516 203.95C324.135 203.933 323.771 203.785 323.487 203.53C323.202 203.275 323.015 202.929 322.957 202.551L320.825 189.389C320.778 189.09 320.812 188.783 320.922 188.501C321.033 188.219 321.217 187.971 321.455 187.784C323.523 186.302 326.074 185.655 328.598 185.972C328.887 185.998 329.165 186.099 329.404 186.263C329.643 186.428 329.835 186.652 329.963 186.913C331.602 190.432 332.921 197.862 333.333 200.384C333.378 200.676 333.345 200.975 333.238 201.25C333.132 201.526 332.955 201.769 332.726 201.955Z" fill="#C7C7C7"/>
<path d="M379.757 233.141C370.71 243.884 357.502 246.326 357.502 246.326L353.868 240.192C353.65 234.998 352.159 212.675 341.909 194.961C333.001 179.598 325.17 182.831 321.959 185.262C321.804 185.366 321.664 185.494 321.547 185.64L294.832 140.558C295.763 141.925 296.823 143.199 297.997 144.364L298.249 144.617C298.67 145.033 299.122 145.416 299.602 145.763C299.739 145.878 299.889 145.97 300.038 146.073C300.296 146.252 300.568 146.409 300.852 146.543C301.04 146.649 301.235 146.74 301.436 146.818C301.631 146.897 301.83 146.966 302.033 147.024C302.217 147.076 302.405 147.114 302.594 147.139C302.789 147.156 302.985 147.156 303.179 147.139C303.841 147.137 304.49 146.959 305.059 146.623C307.456 145.213 307.949 142.45 307.857 140.122C307.868 140.046 307.868 139.969 307.857 139.893C307.854 139.49 307.82 139.087 307.754 138.689C307.754 138.609 307.754 138.551 307.754 138.494C307.722 138.331 307.699 138.167 307.685 138.001C307.584 137.382 307.446 136.769 307.272 136.167C307.331 136.219 307.385 136.276 307.433 136.339L307.57 136.488L307.742 136.683C307.972 136.912 308.258 137.176 308.579 137.474C308.716 137.613 308.862 137.743 309.015 137.864C309.187 138.013 309.37 138.173 309.565 138.311C309.609 138.356 309.659 138.395 309.714 138.425C309.931 138.606 310.161 138.771 310.402 138.918L310.574 139.056C310.969 139.302 311.379 139.524 311.801 139.721C312.014 139.828 312.232 139.924 312.455 140.008C312.671 140.092 312.893 140.161 313.12 140.214C313.332 140.283 313.551 140.329 313.773 140.352C314.373 140.44 314.985 140.409 315.573 140.26C315.758 140.214 315.938 140.153 316.112 140.076C316.303 140.001 316.487 139.909 316.662 139.801C317.134 139.521 317.528 139.127 317.809 138.655C317.885 138.555 317.95 138.447 318.004 138.334C318.109 138.111 318.197 137.881 318.268 137.646C318.283 137.593 318.283 137.538 318.268 137.485C318.346 137.287 318.396 137.078 318.417 136.866C318.465 136.632 318.495 136.394 318.508 136.155C318.514 136.117 318.514 136.079 318.508 136.041C318.543 135.514 318.543 134.985 318.508 134.458C318.508 134.252 318.508 134.046 318.508 133.851C318.455 133.184 318.359 132.522 318.222 131.867C318.194 131.65 318.148 131.435 318.084 131.225C318.027 130.927 317.969 130.629 317.889 130.354C317.809 130.079 317.74 129.769 317.671 129.505C317.327 128.267 317.006 127.373 316.915 127.212L335.259 158.169C326.855 154.787 318.967 151.897 315.39 151.347C305.965 149.902 310.104 171.113 323.037 177.224C335.97 183.335 349.121 188.965 349.121 188.965L375.79 226.491V226.548L379.757 233.141Z" fill="#C7C7C7"/>
<path d="M389.686 249.892C380.64 260.647 367.431 263.077 367.431 263.077L357.502 246.326C357.502 246.326 370.711 243.884 379.757 233.141L389.686 249.892Z" fill="#949494"/>
<path d="M402.08 270.816C393.045 281.56 379.848 284.002 379.848 284.002L367.466 263.077C367.466 263.077 380.674 260.647 389.72 249.892L402.08 270.816Z" fill="white"/>
<path d="M318.554 134.47C318.589 134.997 318.589 135.525 318.554 136.052C318.56 136.09 318.56 136.129 318.554 136.167C318.542 136.406 318.511 136.643 318.463 136.878C318.468 136.942 318.468 137.008 318.463 137.072C318.476 137.137 318.476 137.203 318.463 137.267C318.433 137.398 318.398 137.528 318.36 137.657C318.289 137.893 318.201 138.123 318.096 138.345C318.042 138.458 317.977 138.566 317.901 138.666C317.62 139.138 317.226 139.532 316.754 139.813C316.579 139.92 316.395 140.012 316.204 140.088C316.03 140.164 315.85 140.226 315.665 140.271C315.077 140.421 314.465 140.452 313.865 140.363L313.212 140.225C312.985 140.172 312.763 140.103 312.547 140.019C312.324 139.935 312.106 139.84 311.893 139.732C311.471 139.536 311.061 139.314 310.666 139.067L310.494 138.93C310.253 138.783 310.023 138.618 309.806 138.437C309.751 138.406 309.701 138.367 309.657 138.322C309.462 138.185 309.279 138.024 309.107 137.875C308.935 137.726 308.809 137.623 308.671 137.485C308.35 137.187 308.064 136.923 307.834 136.694C307.783 136.624 307.725 136.559 307.662 136.499L307.525 136.35C307.477 136.288 307.423 136.23 307.364 136.178C307.538 136.781 307.676 137.393 307.777 138.013C307.791 138.178 307.814 138.343 307.846 138.506C307.846 138.563 307.846 138.62 307.846 138.701C307.912 139.099 307.946 139.501 307.949 139.904C307.96 139.98 307.96 140.058 307.949 140.134C308.041 142.427 307.548 145.224 305.151 146.635C304.582 146.97 303.933 147.148 303.271 147.151C303.077 147.168 302.881 147.168 302.686 147.151C302.497 147.126 302.309 147.087 302.125 147.036C301.922 146.978 301.723 146.909 301.528 146.83C301.327 146.752 301.132 146.66 300.944 146.554C300.66 146.42 300.388 146.263 300.13 146.084C299.98 145.981 299.831 145.889 299.694 145.775C299.214 145.428 298.762 145.044 298.341 144.628L298.089 144.376C296.915 143.211 295.855 141.936 294.924 140.569L294.741 140.271L290.418 118.109C292.86 116.779 296.461 114.337 298.157 110.84L316.984 127.086C317.075 127.304 317.396 128.233 317.74 129.379C317.809 129.643 317.889 129.929 317.958 130.228C318.027 130.526 318.096 130.801 318.153 131.099C318.217 131.309 318.263 131.524 318.291 131.741C318.428 132.396 318.524 133.058 318.577 133.725C318.52 134.023 318.532 134.229 318.554 134.47Z" fill="white"/>
<path d="M298.066 110.828C296.369 114.325 292.769 116.767 290.327 118.097L288.79 110.209L292.368 105.909L298.066 110.828Z" fill="black"/>
<path d="M419.141 440C418.951 440.001 418.767 439.938 418.617 439.821C418.467 439.705 418.361 439.542 418.315 439.358L390.798 335.596C388.505 333.211 362.134 305.029 349.465 284.804C347.172 281.124 345.074 277.856 343.228 274.955C334.331 260.991 330.616 255.201 329.676 249.307C328.667 243.116 321.386 198.183 319.839 188.609C319.739 187.967 319.79 187.31 319.989 186.691C320.188 186.072 320.529 185.508 320.985 185.044C321.144 184.862 321.325 184.7 321.524 184.562C322.67 183.649 324 182.994 325.423 182.644C326.846 182.294 328.329 182.256 329.768 182.533C334.274 183.45 338.63 187.486 342.712 194.526C352.756 211.85 354.487 233.393 354.785 239.94L380.342 283.027C382.91 282.419 393.469 279.484 401.105 270.725L375.182 226.984L348.651 189.653C346.863 188.885 334.663 183.565 322.774 177.947C312.73 173.211 308.041 160.21 309.91 154.087C310.189 152.846 310.949 151.766 312.024 151.084C313.099 150.403 314.4 150.176 315.642 150.453C318.841 150.946 325.583 153.262 335.707 157.332C347.872 162.193 361.252 168.132 363.98 169.348C369.621 164.681 378.14 166.653 380.032 167.158C381.511 166.435 387.851 163.58 394.318 164.532C402.149 165.679 434.332 196.635 439.228 206.369C444.261 216.321 455.555 305.304 456.265 310.922L521.985 438.75C522.078 438.951 522.089 439.18 522.017 439.389C521.946 439.598 521.796 439.771 521.6 439.873C521.404 439.975 521.176 439.997 520.964 439.935C520.752 439.874 520.571 439.733 520.46 439.541L454.523 311.564C454.475 311.475 454.444 311.378 454.431 311.278C454.316 310.338 442.496 216.929 437.542 207.138C432.452 197.048 400.658 167.215 393.917 166.218C387.175 165.22 380.433 168.786 380.364 168.82C380.266 168.876 380.158 168.912 380.045 168.923C379.932 168.935 379.819 168.924 379.711 168.889C379.619 168.889 370.069 166 364.622 170.976C364.496 171.088 364.341 171.161 364.174 171.188C364.008 171.214 363.837 171.192 363.682 171.125C363.533 171.056 348.502 164.326 335.019 158.914C325.159 154.958 318.36 152.62 315.333 152.149C314.923 152.049 314.496 152.033 314.08 152.102C313.663 152.172 313.265 152.325 312.91 152.554C312.554 152.782 312.25 153.081 312.014 153.431C311.778 153.782 311.616 154.177 311.538 154.592C309.829 160.175 314.507 172.157 323.485 176.376C336.257 182.395 349.396 188.094 349.523 188.151C349.67 188.209 349.797 188.309 349.889 188.437L376.558 225.964L376.638 226.09L402.871 270.358C402.961 270.51 403.001 270.687 402.987 270.863C402.973 271.04 402.904 271.208 402.791 271.344C396.834 278.136 388.872 282.858 380.055 284.827C379.881 284.862 379.701 284.842 379.538 284.77C379.376 284.698 379.24 284.578 379.149 284.426L353.134 240.639C353.065 240.516 353.022 240.379 353.008 240.238C352.744 234.058 351.105 212.561 341.164 195.397C337.335 188.793 333.368 185.078 329.355 184.218C328.152 183.994 326.915 184.032 325.728 184.328C324.541 184.625 323.432 185.174 322.476 185.938C322.376 186.004 322.287 186.085 322.212 186.179C321.936 186.456 321.73 186.795 321.61 187.168C321.491 187.541 321.461 187.937 321.524 188.323C323.072 197.908 330.352 242.841 331.361 249.032C332.279 254.581 335.948 260.268 344.661 274.038C346.507 276.939 348.582 280.195 350.91 283.887C364.049 304.766 391.91 334.277 392.185 334.576C392.286 334.677 392.358 334.804 392.392 334.942L419.977 438.911C420.033 439.133 420 439.368 419.884 439.565C419.768 439.762 419.579 439.906 419.358 439.966C419.288 439.989 419.215 440.001 419.141 440Z" fill="black"/>
<path d="M367.466 263.937C367.316 263.936 367.168 263.896 367.038 263.822C366.908 263.747 366.798 263.641 366.72 263.513L353.134 240.64C353.064 240.516 353.021 240.379 353.008 240.238C352.744 234.058 351.105 212.561 341.164 195.397C337.335 188.793 333.368 185.078 329.355 184.218C328.152 183.994 326.915 184.032 325.728 184.328C324.54 184.625 323.431 185.174 322.475 185.938C322.375 186.004 322.286 186.085 322.212 186.179C322.125 186.289 322.013 186.375 321.885 186.431C321.757 186.487 321.617 186.511 321.478 186.5C321.34 186.49 321.207 186.448 321.089 186.376C320.972 186.304 320.873 186.205 320.801 186.087L294.087 140.994C293.975 140.804 293.942 140.579 293.993 140.365C294.044 140.151 294.177 139.965 294.362 139.847C294.548 139.735 294.77 139.697 294.983 139.742C295.196 139.787 295.383 139.91 295.509 140.088C296.4 141.407 297.417 142.635 298.547 143.757L298.811 144.021C299.198 144.386 299.608 144.727 300.038 145.041C300.135 145.122 300.238 145.195 300.347 145.259L300.485 145.35C300.702 145.508 300.932 145.646 301.173 145.763C301.344 145.853 301.52 145.934 301.7 146.004C301.869 146.074 302.041 146.135 302.216 146.187L302.629 146.279H302.709C303.363 146.382 304.032 146.252 304.601 145.912C306.275 144.926 307.077 142.989 306.974 140.18C306.974 140.18 306.974 140.008 306.974 139.962C306.971 139.578 306.941 139.195 306.882 138.815C306.882 138.815 306.882 138.724 306.882 138.678C306.888 138.643 306.888 138.609 306.882 138.574C306.882 138.414 306.882 138.288 306.882 138.185C306.882 138.081 306.882 138.185 306.882 138.104C306.801 137.569 306.682 137.041 306.527 136.522C306.523 136.453 306.523 136.384 306.527 136.316C306.487 136.134 306.506 135.945 306.583 135.775C306.659 135.606 306.788 135.465 306.951 135.376C307.114 135.285 307.302 135.25 307.487 135.277C307.671 135.304 307.842 135.391 307.972 135.525L308.189 135.754L308.281 135.857C308.365 135.939 308.441 136.027 308.511 136.121L309.256 136.809C309.375 136.935 309.506 137.05 309.646 137.153L309.806 137.29C309.911 137.389 310.022 137.481 310.139 137.566L310.265 137.669C310.54 137.875 310.735 138.024 310.941 138.15L311.182 138.334C311.549 138.552 311.927 138.758 312.248 138.907L312.363 138.964L312.81 139.159C313.008 139.233 313.211 139.295 313.418 139.343C313.581 139.401 313.75 139.439 313.922 139.457C314.425 139.539 314.94 139.52 315.436 139.4L315.871 139.251C316.026 139.186 316.175 139.109 316.318 139.022C316.669 138.811 316.961 138.515 317.167 138.162L317.293 137.955C317.293 137.955 317.293 137.955 317.293 137.898C317.379 137.711 317.456 137.52 317.522 137.325C317.522 137.325 317.58 137.118 317.58 137.095C317.582 137.038 317.582 136.981 317.58 136.923V136.832V136.706V136.591C317.617 136.406 317.64 136.218 317.648 136.029C317.642 135.987 317.642 135.945 317.648 135.903C317.677 135.414 317.677 134.924 317.648 134.435V133.839C317.597 133.212 317.509 132.588 317.385 131.97C317.356 131.777 317.313 131.585 317.259 131.397C317.19 131.042 317.132 130.767 317.064 130.503C316.995 130.239 316.915 129.918 316.846 129.666C316.513 128.519 316.204 127.614 316.112 127.373C316.035 127.173 316.036 126.951 316.114 126.751C316.193 126.551 316.343 126.388 316.535 126.293C316.727 126.199 316.948 126.179 317.154 126.239C317.36 126.299 317.537 126.433 317.648 126.616L335.993 157.63C336.082 157.785 336.121 157.964 336.104 158.142C336.087 158.32 336.014 158.488 335.897 158.623C335.78 158.758 335.623 158.853 335.449 158.895C335.275 158.937 335.093 158.924 334.927 158.857C325.067 154.901 318.268 152.562 315.241 152.092C314.831 151.991 314.404 151.975 313.988 152.045C313.571 152.114 313.173 152.268 312.818 152.497C312.463 152.725 312.158 153.024 311.922 153.374C311.686 153.724 311.524 154.119 311.446 154.534C309.737 160.118 314.415 172.099 323.393 176.319C336.165 182.338 349.304 188.036 349.431 188.094C349.578 188.152 349.705 188.251 349.797 188.38L376.466 225.906L376.546 226.033L390.396 249.445C390.486 249.6 390.525 249.78 390.508 249.958C390.492 250.137 390.421 250.306 390.305 250.442C384.346 257.238 376.379 261.961 367.557 263.926L367.466 263.937ZM354.716 239.952L367.855 262.114C370.424 261.507 380.983 258.571 388.631 249.812L375.113 226.996L348.582 189.664C346.794 188.896 334.594 183.576 322.705 177.958C312.661 173.223 307.972 160.221 309.841 154.099C310.12 152.857 310.88 151.777 311.955 151.096C313.03 150.414 314.331 150.187 315.573 150.464C318.508 150.923 324.47 152.918 333.287 156.403L319.311 132.739C319.311 133.06 319.391 133.392 319.414 133.736V134.355C319.461 134.928 319.461 135.503 319.414 136.075C319.421 136.14 319.421 136.205 319.414 136.27C319.401 136.513 319.37 136.754 319.322 136.992V137.118C319.307 137.234 319.284 137.349 319.254 137.462L319.185 137.703V137.772C319.103 138.045 319.003 138.313 318.887 138.574C318.893 138.612 318.893 138.651 318.887 138.689C318.813 138.846 318.724 138.996 318.623 139.136C318.282 139.713 317.801 140.194 317.224 140.535C317.009 140.661 316.787 140.776 316.559 140.879C316.342 140.964 316.12 141.036 315.894 141.097C315.198 141.277 314.472 141.312 313.762 141.2C313.484 141.178 313.21 141.12 312.948 141.028C312.71 140.967 312.476 140.891 312.248 140.799C312.043 140.731 311.844 140.647 311.652 140.546C311.168 140.321 310.697 140.069 310.242 139.79L310.001 139.606C309.756 139.45 309.518 139.282 309.29 139.102L309.13 138.976L308.774 138.689C308.826 139.069 308.857 139.452 308.866 139.836C308.872 139.939 308.872 140.042 308.866 140.145C308.992 143.585 307.88 146.061 305.644 147.38C304.75 147.919 303.696 148.13 302.663 147.976H302.594C302.365 147.976 302.147 147.884 301.941 147.839L301.253 147.598L300.565 147.288C300.261 147.13 299.966 146.954 299.682 146.761H299.613L321.891 184.379C323.016 183.545 324.303 182.954 325.668 182.645C327.034 182.335 328.45 182.312 329.825 182.579C334.331 183.496 338.687 187.532 342.769 194.572C352.687 211.85 354.418 233.393 354.716 239.952Z" fill="black"/>
<path d="M379.849 284.862C379.7 284.862 379.553 284.825 379.422 284.752C379.292 284.68 379.182 284.576 379.103 284.449L366.686 263.513C366.624 263.39 366.591 263.255 366.591 263.117C366.591 262.98 366.624 262.844 366.686 262.722C366.742 262.596 366.827 262.485 366.935 262.399C367.043 262.313 367.17 262.254 367.306 262.229C367.443 262.229 380.33 259.718 389.09 249.33C389.178 249.227 389.29 249.146 389.415 249.094C389.541 249.043 389.677 249.021 389.812 249.032C389.949 249.043 390.082 249.087 390.199 249.158C390.317 249.23 390.416 249.328 390.489 249.445L402.883 270.381C402.972 270.533 403.013 270.71 402.999 270.886C402.984 271.063 402.916 271.231 402.802 271.367C396.845 278.159 388.883 282.88 380.067 284.85L379.849 284.862ZM368.773 263.651L380.238 283.027C382.807 282.419 393.366 279.484 401.002 270.725L389.537 251.348C383.939 257.355 376.731 261.626 368.773 263.651Z" fill="black"/>
<path d="M303.26 148.022C303.038 148.039 302.816 148.039 302.595 148.022H302.526C302.297 148.022 302.079 147.93 301.872 147.884L301.184 147.644L300.497 147.334C300.192 147.176 299.897 147 299.614 146.807L299.488 146.726L299.086 146.428C298.601 146.084 298.145 145.7 297.722 145.282L297.447 145.007C296.236 143.802 295.142 142.485 294.179 141.074L293.996 140.787C293.927 140.688 293.88 140.574 293.858 140.455L287.953 110.392C287.925 110.268 287.927 110.138 287.959 110.015C287.991 109.891 288.052 109.777 288.137 109.682L291.703 105.382C291.775 105.292 291.865 105.217 291.968 105.164C292.07 105.111 292.183 105.079 292.299 105.073C292.528 105.058 292.753 105.132 292.929 105.279L317.454 126.444C317.589 126.557 317.685 126.709 317.729 126.88C317.89 127.292 318.188 128.152 318.497 129.265C318.577 129.54 318.658 129.826 318.727 130.136C318.795 130.445 318.864 130.732 318.933 131.053C318.999 131.278 319.045 131.508 319.07 131.741C319.213 132.406 319.309 133.08 319.357 133.759V134.378C319.404 134.943 319.404 135.51 319.357 136.075C319.364 136.14 319.364 136.205 319.357 136.27C319.344 136.513 319.313 136.754 319.265 136.992V137.118C319.25 137.234 319.227 137.349 319.197 137.462L319.128 137.703V137.772C319.046 138.045 318.946 138.313 318.83 138.574C318.836 138.612 318.836 138.651 318.83 138.689C318.756 138.846 318.667 138.995 318.566 139.136C318.225 139.713 317.744 140.194 317.167 140.535C316.952 140.661 316.73 140.776 316.502 140.879C316.285 140.964 316.063 141.036 315.837 141.097C315.141 141.277 314.415 141.312 313.705 141.2L312.959 141.051C312.699 140.982 312.442 140.898 312.191 140.799C311.986 140.731 311.787 140.647 311.595 140.546C311.111 140.321 310.64 140.069 310.185 139.79L309.944 139.606C309.699 139.45 309.461 139.282 309.233 139.102L309.073 138.976L308.717 138.689C308.769 139.069 308.8 139.452 308.809 139.836C308.815 139.939 308.815 140.042 308.809 140.145C308.935 143.585 307.823 146.061 305.587 147.38C304.885 147.804 304.08 148.027 303.26 148.022ZM302.732 146.268H302.813C303.467 146.37 304.136 146.241 304.704 145.901C306.378 144.915 307.181 142.977 307.078 140.168C307.078 140.168 307.078 139.996 307.078 139.95C307.075 139.566 307.044 139.183 306.986 138.804C306.986 138.804 306.986 138.712 306.986 138.666C306.992 138.632 306.992 138.597 306.986 138.563C306.986 138.402 306.986 138.276 306.986 138.173C306.986 138.07 306.986 138.173 306.986 138.093C306.905 137.558 306.786 137.029 306.631 136.511C306.627 136.442 306.627 136.373 306.631 136.304C306.59 136.123 306.61 135.933 306.686 135.764C306.763 135.594 306.892 135.454 307.055 135.364C307.218 135.273 307.406 135.239 307.59 135.266C307.775 135.293 307.945 135.38 308.075 135.513L308.293 135.742L308.385 135.846C308.468 135.927 308.545 136.016 308.614 136.109L309.359 136.797C309.48 136.922 309.61 137.037 309.749 137.141L309.91 137.279C310.015 137.377 310.126 137.469 310.242 137.554L310.368 137.657C310.643 137.864 310.838 138.013 311.045 138.139L311.285 138.322C311.652 138.54 312.031 138.746 312.352 138.895L312.466 138.953L312.914 139.148C313.112 139.222 313.315 139.283 313.521 139.331C313.709 139.384 313.901 139.422 314.095 139.446C314.575 139.526 315.067 139.507 315.539 139.388L315.975 139.239C316.13 139.175 316.279 139.098 316.422 139.01C316.772 138.799 317.064 138.503 317.27 138.15L317.397 137.944C317.397 137.944 317.397 137.944 317.397 137.887C317.483 137.7 317.559 137.508 317.626 137.313C317.626 137.313 317.683 137.107 317.683 137.084C317.686 137.027 317.686 136.969 317.683 136.912V136.82V136.694V136.579C317.721 136.394 317.744 136.206 317.752 136.018C317.746 135.976 317.746 135.933 317.752 135.892C317.781 135.407 317.781 134.92 317.752 134.435V133.828C317.7 133.2 317.612 132.576 317.488 131.959C317.459 131.765 317.417 131.574 317.362 131.386C317.293 131.03 317.236 130.755 317.167 130.491C317.098 130.228 317.018 129.907 316.949 129.654C316.674 128.657 316.399 127.877 316.273 127.533L292.574 107.079L289.822 110.392L295.555 139.881L295.67 140.053C296.56 141.363 297.573 142.584 298.696 143.699L298.96 143.963C299.347 144.329 299.757 144.669 300.187 144.984C300.284 145.065 300.388 145.137 300.497 145.201L300.634 145.293C300.851 145.451 301.081 145.589 301.322 145.706C301.493 145.796 301.669 145.876 301.849 145.947C302.018 146.017 302.19 146.078 302.365 146.13L302.732 146.268Z" fill="black"/>
<path d="M315.424 152.161C315.265 152.163 315.109 152.119 314.973 152.036C314.837 151.953 314.727 151.833 314.656 151.691L307.777 137.852C307.7 137.652 307.701 137.43 307.779 137.231C307.858 137.031 308.008 136.868 308.2 136.773C308.392 136.678 308.613 136.659 308.819 136.718C309.025 136.778 309.201 136.913 309.313 137.095L316.193 150.923C316.243 151.023 316.274 151.133 316.281 151.246C316.289 151.358 316.275 151.471 316.238 151.578C316.202 151.685 316.145 151.783 316.07 151.867C315.995 151.952 315.904 152.02 315.803 152.069C315.687 152.133 315.556 152.165 315.424 152.161Z" fill="black"/>
<path d="M370.585 241.82C370.438 241.823 370.293 241.787 370.165 241.716C370.036 241.646 369.928 241.544 369.851 241.419L352.756 213.684C352.645 213.493 352.613 213.267 352.667 213.053C352.72 212.839 352.855 212.654 353.042 212.538C353.234 212.43 353.46 212.4 353.673 212.453C353.886 212.506 354.071 212.639 354.189 212.824L371.284 240.548C371.393 240.738 371.425 240.963 371.374 241.176C371.323 241.389 371.192 241.574 371.009 241.694C370.881 241.774 370.735 241.817 370.585 241.82Z" fill="black"/>
<path d="M402.08 214.097C401.959 214.097 401.839 214.072 401.728 214.022C401.617 213.973 401.519 213.901 401.438 213.81L363.396 170.907C363.259 170.743 363.189 170.533 363.202 170.32C363.215 170.107 363.309 169.907 363.464 169.76C363.549 169.685 363.647 169.627 363.754 169.59C363.86 169.552 363.973 169.536 364.086 169.543C364.199 169.549 364.31 169.578 364.411 169.627C364.513 169.676 364.604 169.745 364.68 169.829L402.733 212.721C402.881 212.894 402.956 213.118 402.941 213.345C402.926 213.572 402.823 213.785 402.653 213.937C402.488 214.058 402.284 214.116 402.08 214.097Z" fill="black"/>
<path d="M415.689 201.405C415.474 201.409 415.265 201.331 415.105 201.187L379.39 168.705C379.294 168.634 379.215 168.543 379.156 168.439C379.098 168.335 379.062 168.22 379.05 168.101C379.039 167.982 379.052 167.862 379.089 167.749C379.127 167.635 379.187 167.531 379.267 167.442C379.347 167.354 379.445 167.282 379.554 167.234C379.663 167.185 379.78 167.159 379.9 167.158C380.019 167.157 380.137 167.181 380.247 167.228C380.357 167.276 380.455 167.345 380.536 167.433L416.251 199.914C416.377 200.031 416.465 200.183 416.504 200.351C416.543 200.518 416.531 200.693 416.469 200.854C416.408 201.014 416.299 201.152 416.158 201.251C416.017 201.349 415.85 201.403 415.678 201.405H415.689Z" fill="black"/>
<path d="M391.543 336.02C391.334 336.014 391.134 335.933 390.981 335.791C390.828 335.648 390.732 335.455 390.711 335.247C390.69 335.039 390.746 334.831 390.867 334.661C390.988 334.491 391.168 334.371 391.371 334.323C397.029 333.136 402.606 331.585 408.065 329.68C408.277 329.598 408.514 329.604 408.723 329.696C408.931 329.788 409.095 329.96 409.177 330.173C409.259 330.386 409.253 330.622 409.161 330.831C409.068 331.04 408.897 331.203 408.684 331.285C403.141 333.23 397.476 334.808 391.726 336.009L391.543 336.02Z" fill="black"/>
<path d="M120.834 93.951C122.993 93.951 124.743 92.2006 124.743 90.0413C124.743 87.882 122.993 86.1316 120.834 86.1316C118.674 86.1316 116.924 87.882 116.924 90.0413C116.924 92.2006 118.674 93.951 120.834 93.951Z" fill="#C7C7C7"/>
<path d="M139.74 93.9626C138.963 93.9648 138.204 93.7365 137.557 93.3065C136.91 92.8765 136.406 92.2642 136.108 91.5473C135.81 90.8303 135.731 90.0409 135.882 89.2792C136.033 88.5175 136.407 87.8178 136.956 87.2687C137.505 86.7196 138.204 86.346 138.966 86.195C139.728 86.0441 140.517 86.1227 141.234 86.4209C141.951 86.7191 142.563 87.2235 142.993 87.8701C143.423 88.5167 143.652 89.2763 143.649 90.0528C143.649 91.0898 143.238 92.0842 142.504 92.8174C141.771 93.5506 140.777 93.9626 139.74 93.9626Z" fill="#C7C7C7"/>
<path d="M120.834 112.858C122.993 112.858 124.743 111.107 124.743 108.948C124.743 106.789 122.993 105.038 120.834 105.038C118.674 105.038 116.924 106.789 116.924 108.948C116.924 111.107 118.674 112.858 120.834 112.858Z" fill="#C7C7C7"/>
<path d="M120.834 131.764C122.993 131.764 124.743 130.014 124.743 127.854C124.743 125.695 122.993 123.945 120.834 123.945C118.674 123.945 116.924 125.695 116.924 127.854C116.924 130.014 118.674 131.764 120.834 131.764Z" fill="#C7C7C7"/>
<path d="M120.834 150.682C122.993 150.682 124.743 148.931 124.743 146.772C124.743 144.613 122.993 142.862 120.834 142.862C118.674 142.862 116.924 144.613 116.924 146.772C116.924 148.931 118.674 150.682 120.834 150.682Z" fill="#C7C7C7"/>
<path d="M116.912 165.679C116.912 164.903 117.142 164.145 117.573 163.5C118.004 162.855 118.616 162.353 119.333 162.056C120.049 161.759 120.838 161.682 121.599 161.833C122.359 161.984 123.058 162.358 123.606 162.906C124.155 163.454 124.528 164.153 124.679 164.914C124.831 165.674 124.753 166.463 124.456 167.179C124.159 167.896 123.657 168.508 123.012 168.939C122.367 169.37 121.609 169.6 120.834 169.6C119.794 169.6 118.796 169.187 118.061 168.451C117.325 167.716 116.912 166.719 116.912 165.679Z" fill="#C7C7C7"/>
<path d="M139.74 112.869C138.963 112.871 138.204 112.643 137.557 112.213C136.91 111.783 136.406 111.171 136.108 110.454C135.81 109.737 135.731 108.947 135.882 108.186C136.033 107.424 136.407 106.724 136.956 106.175C137.505 105.626 138.204 105.252 138.966 105.101C139.728 104.951 140.517 105.029 141.234 105.327C141.951 105.626 142.563 106.13 142.993 106.776C143.423 107.423 143.652 108.183 143.649 108.959C143.649 109.996 143.238 110.991 142.504 111.724C141.771 112.457 140.777 112.869 139.74 112.869Z" fill="#C7C7C7"/>
<path d="M135.865 127.866C135.865 127.092 136.094 126.337 136.524 125.694C136.953 125.051 137.564 124.55 138.278 124.254C138.993 123.958 139.779 123.88 140.537 124.031C141.295 124.182 141.992 124.554 142.539 125.101C143.086 125.648 143.458 126.345 143.609 127.103C143.76 127.861 143.682 128.648 143.386 129.362C143.091 130.076 142.589 130.687 141.946 131.117C141.304 131.546 140.548 131.775 139.774 131.775C139.26 131.777 138.751 131.677 138.276 131.481C137.801 131.285 137.37 130.997 137.006 130.634C136.643 130.27 136.355 129.839 136.159 129.364C135.963 128.889 135.863 128.38 135.865 127.866Z" fill="#C7C7C7"/>
<path d="M135.865 146.772C135.867 145.999 136.098 145.245 136.529 144.603C136.96 143.962 137.571 143.462 138.286 143.168C139.001 142.874 139.786 142.798 140.544 142.951C141.302 143.103 141.997 143.476 142.543 144.023C143.089 144.57 143.46 145.267 143.61 146.025C143.76 146.783 143.682 147.569 143.385 148.282C143.089 148.996 142.588 149.606 141.945 150.035C141.303 150.464 140.547 150.693 139.774 150.693C139.26 150.693 138.751 150.592 138.276 150.395C137.8 150.197 137.369 149.908 137.006 149.544C136.643 149.18 136.355 148.748 136.159 148.272C135.963 147.796 135.863 147.287 135.865 146.772Z" fill="#C7C7C7"/>
<path d="M135.865 165.679C135.867 164.906 136.098 164.151 136.529 163.51C136.96 162.868 137.571 162.369 138.286 162.075C139.001 161.781 139.786 161.705 140.544 161.857C141.302 162.009 141.997 162.382 142.543 162.93C143.089 163.477 143.46 164.174 143.61 164.932C143.76 165.69 143.682 166.475 143.385 167.189C143.089 167.903 142.588 168.513 141.945 168.942C141.303 169.371 140.547 169.6 139.774 169.6C139.26 169.6 138.751 169.498 138.276 169.301C137.8 169.104 137.369 168.815 137.006 168.451C136.643 168.086 136.355 167.654 136.159 167.178C135.963 166.703 135.863 166.193 135.865 165.679Z" fill="#C7C7C7"/>
<path d="M120.834 188.495C122.993 188.495 124.743 186.744 124.743 184.585C124.743 182.426 122.993 180.675 120.834 180.675C118.674 180.675 116.924 182.426 116.924 184.585C116.924 186.744 118.674 188.495 120.834 188.495Z" fill="#C7C7C7"/>
<path d="M135.865 184.597C135.865 183.823 136.094 183.067 136.524 182.424C136.953 181.781 137.564 181.28 138.278 180.984C138.993 180.689 139.779 180.611 140.537 180.762C141.295 180.913 141.992 181.285 142.539 181.832C143.086 182.379 143.458 183.075 143.609 183.834C143.76 184.592 143.682 185.378 143.386 186.093C143.091 186.807 142.589 187.418 141.946 187.847C141.303 188.277 140.548 188.506 139.774 188.506C138.737 188.506 137.743 188.094 137.01 187.361C136.277 186.628 135.865 185.633 135.865 184.597Z" fill="#C7C7C7"/>
<path d="M410.289 94.146C409.512 94.1482 408.753 93.9199 408.106 93.4899C407.46 93.0599 406.955 92.4476 406.657 91.7307C406.359 91.0137 406.28 90.2244 406.431 89.4627C406.582 88.701 406.956 88.0012 407.505 87.4521C408.054 86.9031 408.754 86.5294 409.515 86.3784C410.277 86.2275 411.066 86.3061 411.783 86.6043C412.5 86.9025 413.113 87.4069 413.543 88.0535C413.973 88.7001 414.201 89.4598 414.199 90.2363C414.199 91.2732 413.787 92.2676 413.054 93.0009C412.32 93.7341 411.326 94.146 410.289 94.146Z" fill="#C7C7C7"/>
<path d="M429.196 94.146C428.42 94.146 427.661 93.9157 427.016 93.4844C426.371 93.053 425.868 92.4399 425.572 91.7227C425.275 91.0056 425.198 90.2166 425.351 89.4556C425.503 88.6947 425.877 87.996 426.427 87.4481C426.977 86.9002 427.676 86.5276 428.438 86.3776C429.199 86.2276 429.988 86.3069 430.704 86.6054C431.42 86.904 432.032 87.4083 432.462 88.0547C432.891 88.701 433.119 89.4603 433.117 90.2363C433.117 90.7507 433.015 91.26 432.818 91.7351C432.621 92.2102 432.332 92.6417 431.968 93.0049C431.603 93.3681 431.171 93.6559 430.695 93.8517C430.22 94.0475 429.71 94.1475 429.196 94.146Z" fill="#C7C7C7"/>
<path d="M410.289 113.052C412.448 113.052 414.199 111.302 414.199 109.143C414.199 106.983 412.448 105.233 410.289 105.233C408.13 105.233 406.379 106.983 406.379 109.143C406.379 111.302 408.13 113.052 410.289 113.052Z" fill="#C7C7C7"/>
<path d="M410.289 131.959C412.448 131.959 414.199 130.208 414.199 128.049C414.199 125.89 412.448 124.139 410.289 124.139C408.13 124.139 406.379 125.89 406.379 128.049C406.379 130.208 408.13 131.959 410.289 131.959Z" fill="#C7C7C7"/>
<path d="M410.289 150.865C412.448 150.865 414.199 149.115 414.199 146.956C414.199 144.796 412.448 143.046 410.289 143.046C408.13 143.046 406.379 144.796 406.379 146.956C406.379 149.115 408.13 150.865 410.289 150.865Z" fill="#C7C7C7"/>
<path d="M429.196 113.052C431.355 113.052 433.105 111.302 433.105 109.143C433.105 106.983 431.355 105.233 429.196 105.233C427.036 105.233 425.286 106.983 425.286 109.143C425.286 111.302 427.036 113.052 429.196 113.052Z" fill="#C7C7C7"/>
<path d="M429.196 131.959C431.355 131.959 433.105 130.208 433.105 128.049C433.105 125.89 431.355 124.139 429.196 124.139C427.036 124.139 425.286 125.89 425.286 128.049C425.286 130.208 427.036 131.959 429.196 131.959Z" fill="#C7C7C7"/>
<path d="M429.196 150.865C431.355 150.865 433.105 149.115 433.105 146.956C433.105 144.796 431.355 143.046 429.196 143.046C427.036 143.046 425.286 144.796 425.286 146.956C425.286 149.115 427.036 150.865 429.196 150.865Z" fill="#C7C7C7"/>
<path d="M390.764 93.481C392.923 93.481 394.674 91.7306 394.674 89.5713C394.674 87.412 392.923 85.6616 390.764 85.6616C388.605 85.6616 386.854 87.412 386.854 89.5713C386.854 91.7306 388.605 93.481 390.764 93.481Z" fill="#C7C7C7"/>
<path d="M390.764 112.399C392.923 112.399 394.674 110.648 394.674 108.489C394.674 106.33 392.923 104.579 390.764 104.579C388.605 104.579 386.854 106.33 386.854 108.489C386.854 110.648 388.605 112.399 390.764 112.399Z" fill="#C7C7C7"/>
<path d="M390.764 131.305C392.923 131.305 394.674 129.555 394.674 127.396C394.674 125.236 392.923 123.486 390.764 123.486C388.605 123.486 386.854 125.236 386.854 127.396C386.854 129.555 388.605 131.305 390.764 131.305Z" fill="#C7C7C7"/>
<path d="M386.854 146.302C386.856 145.529 387.088 144.775 387.519 144.133C387.95 143.492 388.561 142.992 389.276 142.698C389.99 142.404 390.776 142.328 391.534 142.48C392.291 142.633 392.987 143.006 393.532 143.553C394.078 144.1 394.449 144.797 394.599 145.555C394.749 146.313 394.671 147.099 394.375 147.812C394.079 148.526 393.577 149.136 392.935 149.565C392.292 149.994 391.537 150.223 390.764 150.223C390.249 150.223 389.74 150.122 389.265 149.925C388.79 149.727 388.358 149.438 387.995 149.074C387.632 148.71 387.344 148.277 387.148 147.802C386.953 147.326 386.853 146.817 386.854 146.302Z" fill="#C7C7C7"/>
<path d="M412.594 10.1046C412.594 10.6823 412.364 11.2364 411.956 11.6449C411.547 12.0535 410.993 12.283 410.415 12.283H404.683V18.0157C404.68 18.4463 404.551 18.8666 404.311 19.224C404.07 19.5815 403.73 19.8602 403.333 20.0254C402.935 20.1906 402.498 20.2349 402.075 20.1527C401.652 20.0706 401.263 19.8656 400.956 19.5635C400.548 19.1517 400.317 18.5958 400.314 18.0157V12.283H394.581C394.004 12.283 393.45 12.0535 393.041 11.6449C392.633 11.2364 392.403 10.6823 392.403 10.1046C392.403 9.5268 392.633 8.9727 393.041 8.56417C393.45 8.15563 394.004 7.92613 394.581 7.92613H400.314V2.19343C400.311 1.76041 400.437 1.33632 400.677 0.975317C400.916 0.614318 401.257 0.332787 401.657 0.166672C402.057 0.000557086 402.497 -0.0426016 402.922 0.0427035C403.346 0.128009 403.736 0.3379 404.04 0.645593C404.449 1.05742 404.68 1.61327 404.683 2.19343V7.92613H410.415C410.993 7.92613 411.547 8.15563 411.956 8.56417C412.364 8.9727 412.594 9.5268 412.594 10.1046Z" fill="#C7C7C7"/>
<path d="M407.95 34.5946C404.167 34.5946 404.155 40.4878 407.95 40.4878C411.745 40.4878 411.745 34.5946 407.95 34.5946Z" fill="#C7C7C7"/>
<path d="M434.974 10.7007C431.191 10.7007 431.179 16.5825 434.974 16.5825C438.769 16.5825 438.769 10.7007 434.974 10.7007Z" fill="#C7C7C7"/>
<path d="M503.904 106.311C503.904 106.889 503.675 107.443 503.266 107.851C502.858 108.26 502.304 108.489 501.726 108.489H495.993V114.222C495.993 114.508 495.937 114.791 495.827 115.056C495.718 115.32 495.557 115.56 495.355 115.762C495.153 115.965 494.913 116.125 494.648 116.235C494.384 116.344 494.101 116.4 493.815 116.4C493.528 116.403 493.243 116.349 492.977 116.241C492.712 116.132 492.47 115.972 492.268 115.769C492.065 115.566 491.904 115.325 491.796 115.059C491.688 114.793 491.633 114.509 491.636 114.222V108.489H485.904C485.325 108.489 484.77 108.26 484.359 107.852C483.949 107.444 483.717 106.89 483.714 106.311C483.714 106.023 483.77 105.738 483.88 105.473C483.99 105.207 484.152 104.966 484.355 104.762C484.558 104.559 484.8 104.398 485.066 104.288C485.331 104.178 485.616 104.121 485.904 104.121H491.636V98.4455C491.635 98.1585 491.69 97.874 491.799 97.6083C491.908 97.3427 492.068 97.1012 492.27 96.8977C492.473 96.6942 492.713 96.5327 492.978 96.4225C493.243 96.3123 493.528 96.2556 493.815 96.2556C494.393 96.2667 494.946 96.496 495.363 96.8977C495.564 97.1015 495.724 97.3431 495.832 97.6087C495.94 97.8743 495.995 98.1587 495.993 98.4455V104.121H501.726C502.305 104.124 502.859 104.356 503.267 104.766C503.675 105.177 503.904 105.732 503.904 106.311Z" fill="#C7C7C7"/>
<path d="M471.663 123.979C467.868 123.979 467.868 129.872 471.663 129.872C475.458 129.872 475.458 123.979 471.663 123.979Z" fill="#C7C7C7"/>
<path d="M474.862 80.8805C471.067 80.8805 471.067 86.7737 474.862 86.7737C478.657 86.7737 478.68 80.8805 474.862 80.8805Z" fill="#C7C7C7"/>
<path d="M153.705 35.959C153.705 36.5378 153.476 37.0931 153.067 37.5035C152.659 37.9138 152.105 38.1459 151.526 38.1489H145.794V43.8816C145.754 44.4335 145.506 44.9499 145.101 45.3268C144.696 45.7036 144.163 45.9131 143.609 45.9131C143.056 45.9131 142.523 45.7036 142.118 45.3268C141.713 44.9499 141.465 44.4335 141.425 43.8816V38.1489H135.693C135.114 38.1459 134.56 37.9138 134.152 37.5035C133.743 37.0931 133.514 36.5378 133.514 35.959C133.517 35.3822 133.748 34.8298 134.156 34.422C134.563 34.0141 135.116 33.7836 135.693 33.7806H141.425V28.0479C141.425 27.4701 141.655 26.916 142.063 26.5075C142.472 26.099 143.026 25.8695 143.604 25.8695C144.182 25.868 144.739 26.0945 145.152 26.5001C145.553 26.9165 145.783 27.4694 145.794 28.0479V33.7806H151.526C152.104 33.7806 152.658 34.0101 153.067 34.4186C153.475 34.8272 153.705 35.3813 153.705 35.959Z" fill="#C7C7C7"/>
<path d="M118.185 28.7015C114.39 28.7015 114.39 34.5947 118.185 34.5947C121.98 34.5947 121.98 28.7015 118.185 28.7015Z" fill="#C7C7C7"/>
<path d="M159.438 8.07512C155.643 8.07512 155.643 13.9569 159.438 13.9569C163.233 13.9569 163.233 8.07512 159.438 8.07512Z" fill="#C7C7C7"/>
<path d="M64.1601 128.737C64.1616 129.025 64.106 129.311 63.9965 129.577C63.887 129.843 63.7257 130.085 63.5221 130.289C63.3184 130.493 63.0764 130.654 62.81 130.763C62.5437 130.873 62.2582 130.929 61.9702 130.927H56.2375V136.66C56.2375 137.237 56.008 137.792 55.5995 138.2C55.1909 138.609 54.6368 138.838 54.0591 138.838C53.7731 138.839 53.4899 138.783 53.226 138.672C52.9622 138.562 52.723 138.4 52.5227 138.196C52.3186 137.996 52.1567 137.757 52.0464 137.493C51.9362 137.229 51.8798 136.946 51.8806 136.66V130.927H46.1479C45.8609 130.927 45.5767 130.87 45.3116 130.76C45.0466 130.65 44.8059 130.488 44.6035 130.285C44.4011 130.081 44.2408 129.84 44.132 129.574C44.0232 129.309 43.968 129.024 43.9695 128.737C43.9686 128.162 44.1953 127.609 44.6001 127.201C45.0119 126.792 45.5678 126.561 46.1479 126.559H51.8806V120.826C51.8806 120.248 52.1102 119.694 52.5187 119.286C52.9272 118.877 53.4813 118.648 54.0591 118.648C54.3468 118.646 54.6318 118.703 54.8976 118.813C55.1633 118.923 55.4044 119.085 55.6069 119.29C56.0117 119.698 56.2384 120.251 56.2375 120.826V126.559H61.9702C62.2572 126.557 62.5417 126.612 62.8074 126.721C63.073 126.83 63.3145 126.99 63.518 127.193C63.7215 127.395 63.883 127.636 63.9932 127.901C64.1034 128.166 64.1601 128.45 64.1601 128.737Z" fill="#C7C7C7"/>
<path d="M27.8145 122.018C24.0195 122.018 24.0195 127.9 27.8145 127.9C31.6096 127.9 31.6096 122.018 27.8145 122.018Z" fill="#C7C7C7"/>
</svg>
