<svg width="530" height="401" viewBox="0 0 530 401" fill="none" xmlns="http://www.w3.org/2000/svg">
<path d="M207.737 380.845C207.497 380.845 207.267 380.75 207.098 380.58C206.929 380.411 206.833 380.181 206.833 379.941C206.833 379.701 206.929 379.471 207.098 379.302C207.267 379.133 207.497 379.037 207.737 379.037C209.548 379.037 211.352 379.011 213.133 378.95C213.252 378.945 213.371 378.963 213.483 379.004C213.594 379.045 213.697 379.108 213.784 379.189C213.871 379.271 213.941 379.368 213.99 379.477C214.039 379.585 214.066 379.702 214.069 379.821C214.075 379.94 214.056 380.059 214.015 380.171C213.973 380.283 213.91 380.386 213.829 380.473C213.747 380.56 213.649 380.63 213.54 380.679C213.432 380.728 213.314 380.754 213.195 380.757C211.362 380.822 209.522 380.861 207.743 380.845H207.737ZM196.899 380.375C196.873 380.378 196.847 380.378 196.821 380.375C194.998 380.22 193.167 380.016 191.389 379.786C191.171 379.757 190.97 379.649 190.825 379.484C190.68 379.318 190.599 379.105 190.599 378.885C190.599 378.846 190.599 378.807 190.599 378.772C190.632 378.534 190.757 378.319 190.947 378.173C191.138 378.027 191.378 377.962 191.616 377.991C193.372 378.221 195.179 378.419 196.97 378.574C197.089 378.584 197.204 378.618 197.309 378.674C197.414 378.73 197.507 378.806 197.582 378.898C197.734 379.078 197.81 379.311 197.793 379.546C197.772 379.77 197.67 379.978 197.505 380.131C197.34 380.284 197.124 380.371 196.899 380.375ZM223.997 379.996C223.774 379.996 223.559 379.913 223.393 379.763C223.228 379.614 223.123 379.408 223.1 379.186C223.097 379.155 223.097 379.124 223.1 379.092C223.098 378.868 223.18 378.652 223.33 378.485C223.48 378.318 223.687 378.214 223.91 378.192C225.685 378.001 227.489 377.781 229.267 377.544C229.387 377.522 229.51 377.524 229.629 377.551C229.748 377.577 229.861 377.628 229.96 377.699C230.059 377.77 230.142 377.861 230.206 377.965C230.269 378.069 230.31 378.185 230.327 378.306C230.344 378.427 230.337 378.55 230.305 378.668C230.273 378.785 230.218 378.896 230.142 378.991C230.067 379.087 229.973 379.167 229.866 379.225C229.759 379.284 229.641 379.32 229.52 379.332C227.716 379.588 225.889 379.811 224.111 380.003C224.072 380.001 224.034 379.994 223.997 379.983V379.996ZM180.826 377.868C180.759 377.868 180.691 377.859 180.626 377.842C178.847 377.437 177.063 376.98 175.32 376.491C175.133 376.435 174.97 376.32 174.853 376.164C174.736 376.008 174.673 375.818 174.672 375.623C174.671 375.538 174.683 375.453 174.708 375.371C174.777 375.142 174.932 374.95 175.141 374.834C175.349 374.718 175.595 374.687 175.825 374.749C177.529 375.231 179.281 375.675 181.037 376.077C181.254 376.126 181.446 376.254 181.575 376.436C181.704 376.618 181.762 376.841 181.737 377.062C181.712 377.284 181.606 377.488 181.44 377.637C181.274 377.786 181.059 377.868 180.836 377.868H180.826ZM240.083 377.46C239.876 377.459 239.675 377.387 239.515 377.256C239.355 377.125 239.244 376.943 239.202 376.741C239.19 376.679 239.184 376.616 239.182 376.553C239.183 376.345 239.256 376.144 239.388 375.983C239.521 375.823 239.704 375.713 239.908 375.672C241.657 375.312 243.432 374.927 245.188 374.519C245.421 374.466 245.666 374.508 245.869 374.635C246.072 374.761 246.217 374.963 246.273 375.196C246.301 375.311 246.305 375.431 246.285 375.547C246.266 375.664 246.223 375.776 246.159 375.876C246.097 375.977 246.015 376.066 245.918 376.135C245.822 376.205 245.712 376.254 245.596 376.281C243.834 376.692 242.033 377.084 240.271 377.447C240.208 377.456 240.146 377.46 240.083 377.46ZM255.925 373.638C255.725 373.637 255.531 373.571 255.372 373.45C255.214 373.328 255.099 373.157 255.048 372.964C255.028 372.891 255.018 372.816 255.018 372.74C255.017 372.539 255.082 372.343 255.204 372.183C255.326 372.023 255.498 371.908 255.692 371.856C257.344 371.419 259.061 370.956 260.933 370.444C261.164 370.381 261.412 370.412 261.62 370.531C261.828 370.65 261.981 370.847 262.044 371.079C262.107 371.31 262.076 371.557 261.957 371.766C261.838 371.974 261.641 372.127 261.409 372.19C259.585 372.689 257.814 373.162 256.159 373.609C256.082 373.63 256.004 373.642 255.925 373.644V373.638ZM165.288 373.022C165.177 373.021 165.067 372.998 164.965 372.954C163.264 372.277 161.573 371.552 159.934 370.797C159.776 370.723 159.643 370.605 159.55 370.458C159.457 370.31 159.408 370.139 159.409 369.965C159.41 369.837 159.439 369.711 159.494 369.595C159.598 369.38 159.781 369.214 160.005 369.132C160.23 369.05 160.477 369.058 160.695 369.155C162.315 369.897 163.96 370.612 165.638 371.28C165.832 371.357 165.993 371.5 166.094 371.683C166.195 371.866 166.229 372.078 166.191 372.284C166.153 372.489 166.045 372.675 165.885 372.81C165.725 372.944 165.523 373.02 165.314 373.022H165.288ZM271.635 369.291C271.44 369.29 271.249 369.227 271.093 369.11C270.936 368.994 270.82 368.83 270.764 368.643C270.742 368.56 270.73 368.476 270.728 368.39C270.729 368.195 270.792 368.006 270.909 367.849C271.025 367.693 271.189 367.578 271.376 367.522C273.015 367.053 274.722 366.551 276.594 366.019C276.765 365.971 276.946 365.974 277.115 366.028C277.284 366.082 277.433 366.184 277.544 366.322C277.655 366.46 277.723 366.628 277.74 366.805C277.756 366.981 277.721 367.159 277.637 367.315C277.522 367.524 277.328 367.679 277.099 367.746C275.422 368.232 273.643 368.747 271.871 369.252C271.795 369.276 271.715 369.292 271.635 369.297V369.291ZM150.716 365.799C150.55 365.798 150.388 365.752 150.246 365.666C148.682 364.72 147.133 363.723 145.637 362.706C145.44 362.569 145.305 362.36 145.26 362.124C145.216 361.888 145.266 361.645 145.4 361.446C145.539 361.253 145.745 361.122 145.978 361.078C146.211 361.034 146.452 361.081 146.651 361.209L146.68 361.229C148.131 362.22 149.64 363.192 151.176 364.118C151.383 364.24 151.534 364.439 151.594 364.671C151.655 364.904 151.621 365.151 151.5 365.359C151.419 365.494 151.304 365.607 151.167 365.684C151.029 365.761 150.874 365.801 150.716 365.799ZM287.283 364.737C287.088 364.735 286.899 364.671 286.743 364.555C286.587 364.438 286.472 364.275 286.415 364.089C286.391 364.008 286.379 363.924 286.379 363.839C286.378 363.643 286.44 363.451 286.557 363.294C286.674 363.136 286.839 363.02 287.027 362.965H287.047C288.689 362.479 290.454 361.961 292.229 361.426C292.459 361.363 292.705 361.392 292.915 361.506C293.124 361.62 293.281 361.811 293.353 362.038C293.421 362.268 293.395 362.515 293.28 362.726C293.166 362.937 292.974 363.093 292.744 363.162L291.773 363.454C290.357 363.872 288.948 364.293 287.562 364.704C287.471 364.731 287.377 364.743 287.283 364.74V364.737ZM520.823 363.937C520.66 363.936 520.5 363.891 520.36 363.808C520.219 363.724 520.104 363.604 520.026 363.46C519.187 361.886 518.271 360.338 517.306 358.861C517.24 358.762 517.195 358.651 517.173 358.534C517.15 358.418 517.151 358.298 517.175 358.182C517.199 358.066 517.246 357.955 517.313 357.857C517.38 357.759 517.465 357.675 517.565 357.611C517.767 357.485 518.01 357.442 518.243 357.49C518.476 357.538 518.682 357.674 518.818 357.87C519.809 359.392 520.762 360.986 521.623 362.609C521.698 362.746 521.735 362.901 521.731 363.057C521.727 363.214 521.683 363.367 521.602 363.501C521.521 363.635 521.407 363.746 521.27 363.822C521.134 363.898 520.98 363.938 520.823 363.937ZM302.896 360.089C302.701 360.088 302.511 360.025 302.354 359.908C302.198 359.792 302.083 359.628 302.028 359.441C302 359.353 301.987 359.261 301.989 359.169C301.991 358.976 302.056 358.789 302.172 358.636C302.289 358.483 302.452 358.371 302.637 358.317C303.582 358.032 304.535 357.753 305.49 357.468L307.845 356.768C308.074 356.704 308.319 356.731 308.528 356.844C308.738 356.957 308.895 357.147 308.966 357.374C309.034 357.603 309.009 357.851 308.895 358.061C308.782 358.272 308.589 358.429 308.36 358.498L303.152 360.046C303.074 360.074 302.992 360.09 302.909 360.092L302.896 360.089ZM137.532 356.234C137.315 356.234 137.105 356.156 136.94 356.014C135.557 354.815 134.199 353.565 132.904 352.295C132.819 352.212 132.752 352.113 132.706 352.003C132.66 351.894 132.636 351.776 132.636 351.657C132.636 351.538 132.66 351.421 132.706 351.311C132.752 351.202 132.819 351.102 132.904 351.019C133.076 350.855 133.305 350.764 133.544 350.764C133.782 350.764 134.011 350.855 134.183 351.019C135.456 352.269 136.791 353.497 138.138 354.663C138.228 354.741 138.302 354.835 138.356 354.941C138.409 355.048 138.441 355.164 138.45 355.282C138.458 355.401 138.443 355.52 138.405 355.633C138.367 355.746 138.307 355.85 138.229 355.939C138.143 356.035 138.037 356.111 137.919 356.162C137.801 356.213 137.674 356.239 137.545 356.237L137.532 356.234ZM318.524 355.453C318.329 355.453 318.138 355.39 317.981 355.273C317.823 355.157 317.707 354.993 317.65 354.806C317.629 354.725 317.618 354.642 317.617 354.559C317.616 354.363 317.678 354.171 317.795 354.012C317.911 353.854 318.077 353.738 318.265 353.682C320.251 353.098 321.906 352.613 323.48 352.156C323.71 352.093 323.956 352.121 324.166 352.236C324.375 352.35 324.532 352.541 324.604 352.768C324.671 352.998 324.644 353.245 324.53 353.455C324.473 353.561 324.396 353.654 324.303 353.729C324.209 353.805 324.101 353.86 323.986 353.892C322.258 354.397 320.524 354.906 318.784 355.418C318.703 355.441 318.621 355.454 318.537 355.457L318.524 355.453ZM334.166 350.919C333.971 350.919 333.78 350.857 333.624 350.74C333.467 350.623 333.353 350.458 333.298 350.271C333.273 350.192 333.261 350.11 333.262 350.028C333.263 349.832 333.327 349.642 333.443 349.484C333.56 349.327 333.723 349.211 333.91 349.153C335.769 348.625 337.473 348.139 339.132 347.679C339.246 347.647 339.365 347.638 339.483 347.651C339.601 347.665 339.715 347.702 339.819 347.76C339.922 347.818 340.014 347.896 340.087 347.989C340.161 348.082 340.215 348.189 340.248 348.303C340.28 348.417 340.289 348.537 340.276 348.655C340.262 348.772 340.225 348.886 340.167 348.99C340.109 349.094 340.031 349.185 339.938 349.258C339.845 349.332 339.738 349.387 339.624 349.419C337.917 349.898 336.161 350.391 334.406 350.896C334.331 350.912 334.255 350.918 334.179 350.915L334.166 350.919ZM511.307 350.802C511.186 350.802 511.066 350.778 510.954 350.731C510.843 350.684 510.742 350.614 510.659 350.527C509.434 349.263 508.129 348.033 506.772 346.87C506.671 346.786 506.59 346.682 506.534 346.564C506.478 346.446 506.449 346.317 506.448 346.186C506.447 345.97 506.522 345.759 506.662 345.593C506.822 345.418 507.043 345.31 507.28 345.291C507.516 345.271 507.752 345.343 507.938 345.49C509.334 346.682 510.682 347.952 511.951 349.267C512.037 349.352 512.104 349.454 512.149 349.566C512.195 349.678 512.217 349.798 512.215 349.919C512.213 350.039 512.187 350.159 512.139 350.269C512.09 350.38 512.02 350.479 511.932 350.562C511.765 350.716 511.546 350.801 511.32 350.799L511.307 350.802ZM349.866 346.549C349.67 346.551 349.478 346.488 349.32 346.372C349.163 346.255 349.047 346.09 348.992 345.901C348.97 345.819 348.959 345.734 348.959 345.649C348.963 345.453 349.03 345.263 349.15 345.108C349.27 344.954 349.437 344.842 349.626 344.79C351.405 344.311 353.189 343.835 354.887 343.384C355.119 343.327 355.365 343.362 355.572 343.483C355.779 343.604 355.931 343.801 355.994 344.032C356.025 344.148 356.032 344.268 356.016 344.386C356 344.504 355.96 344.618 355.9 344.72C355.84 344.823 355.76 344.913 355.665 344.985C355.57 345.057 355.462 345.11 355.347 345.14C353.727 345.568 352.007 346.028 350.103 346.543C350.028 346.552 349.953 346.553 349.879 346.546L349.866 346.549ZM126.277 344.473C126.139 344.473 126.003 344.441 125.88 344.381C125.756 344.32 125.648 344.232 125.564 344.123C124.409 342.675 123.339 341.161 122.36 339.588C122.24 339.381 122.206 339.135 122.267 338.903C122.328 338.671 122.478 338.472 122.684 338.351C122.893 338.236 123.137 338.206 123.368 338.266C123.598 338.326 123.796 338.473 123.922 338.675C123.924 338.683 123.924 338.692 123.922 338.701C124.165 339.096 124.453 339.533 124.647 339.828C125.114 340.524 125.894 341.642 126.979 343.031C127.125 343.222 127.189 343.461 127.16 343.699C127.13 343.936 127.008 344.152 126.821 344.301C126.666 344.412 126.48 344.471 126.29 344.47L126.277 344.473ZM365.647 342.432C365.445 342.434 365.248 342.368 365.089 342.244C364.929 342.119 364.817 341.945 364.769 341.749C364.75 341.674 364.74 341.596 364.74 341.519C364.742 341.318 364.811 341.124 364.935 340.967C365.059 340.81 365.232 340.699 365.427 340.651C367.451 340.145 369.129 339.731 370.707 339.355C370.94 339.303 371.185 339.344 371.39 339.469C371.594 339.594 371.742 339.793 371.801 340.025C371.857 340.258 371.818 340.504 371.693 340.708C371.568 340.912 371.367 341.058 371.134 341.114C369.563 341.496 367.895 341.907 365.867 342.409C365.8 342.424 365.732 342.43 365.663 342.429L365.647 342.432ZM498.493 340.842C498.334 340.842 498.178 340.802 498.039 340.725C496.51 339.844 494.917 339.008 493.3 338.244C493.147 338.171 493.016 338.056 492.924 337.913C492.832 337.77 492.782 337.604 492.779 337.434C492.777 337.28 492.815 337.129 492.888 336.993C492.961 336.858 493.067 336.743 493.197 336.66C493.327 336.578 493.475 336.529 493.629 336.519C493.782 336.51 493.936 336.539 494.075 336.605C495.752 337.402 497.395 338.26 498.953 339.157C499.159 339.278 499.311 339.474 499.377 339.705C499.412 339.839 499.416 339.979 499.389 340.115C499.361 340.251 499.302 340.379 499.218 340.489C499.133 340.599 499.024 340.688 498.899 340.749C498.775 340.81 498.638 340.842 498.499 340.842H498.493ZM381.502 338.665C381.297 338.665 381.097 338.594 380.937 338.465C380.777 338.336 380.666 338.157 380.621 337.956C380.605 337.89 380.596 337.823 380.596 337.755C380.597 337.551 380.667 337.354 380.795 337.195C380.922 337.037 381.1 336.926 381.298 336.88H381.353C383.054 336.498 384.829 336.109 386.62 335.727C386.854 335.681 387.097 335.728 387.296 335.858C387.496 335.988 387.637 336.191 387.689 336.424C387.714 336.54 387.716 336.66 387.695 336.777C387.673 336.893 387.629 337.005 387.564 337.105C387.5 337.204 387.416 337.29 387.318 337.357C387.22 337.424 387.109 337.471 386.993 337.496C385.305 337.855 383.576 338.237 381.697 338.655C381.638 338.663 381.578 338.665 381.519 338.662L381.502 338.665ZM397.458 335.351C397.248 335.351 397.044 335.278 396.882 335.144C396.72 335.009 396.61 334.823 396.571 334.616C396.566 334.563 396.566 334.51 396.571 334.457C396.567 334.245 396.638 334.038 396.773 333.873C396.908 333.709 397.097 333.598 397.306 333.56C399.195 333.204 400.947 332.88 402.66 332.588C402.896 332.545 403.139 332.598 403.337 332.734C403.534 332.871 403.669 333.08 403.711 333.316C403.754 333.551 403.702 333.795 403.566 333.992C403.429 334.189 403.22 334.324 402.984 334.367C401.271 334.671 399.525 334.989 397.649 335.338C397.592 335.35 397.533 335.354 397.475 335.351H397.458ZM483.557 334.444C483.467 334.443 483.378 334.43 483.292 334.406C481.611 333.884 479.865 333.411 478.109 332.987C477.912 332.937 477.736 332.823 477.612 332.662C477.487 332.501 477.421 332.303 477.422 332.099C477.423 332.032 477.431 331.964 477.448 331.898C477.506 331.667 477.652 331.466 477.856 331.341C478.059 331.216 478.304 331.175 478.537 331.228H478.566C480.367 331.659 482.129 332.145 483.826 332.666C484.033 332.729 484.211 332.864 484.327 333.047C484.443 333.231 484.49 333.449 484.458 333.664C484.426 333.878 484.318 334.074 484.154 334.215C483.99 334.357 483.78 334.435 483.564 334.435L483.557 334.444ZM413.528 332.644C413.311 332.642 413.102 332.563 412.938 332.421C412.774 332.279 412.666 332.084 412.634 331.869C412.629 331.822 412.629 331.774 412.634 331.727C412.635 331.512 412.713 331.304 412.855 331.143C412.996 330.981 413.192 330.875 413.405 330.846C415.18 330.587 416.993 330.337 418.788 330.107C419.026 330.08 419.265 330.147 419.454 330.294C419.643 330.44 419.768 330.654 419.802 330.891C419.817 331.009 419.808 331.129 419.777 331.243C419.746 331.358 419.692 331.465 419.619 331.559C419.547 331.653 419.456 331.731 419.353 331.79C419.25 331.849 419.136 331.887 419.018 331.902C417.295 332.122 415.491 332.371 413.654 332.64L413.528 332.644ZM467.65 331.024C467.609 331.027 467.568 331.027 467.527 331.024C465.807 330.794 464.006 330.593 462.169 330.428C461.947 330.407 461.739 330.305 461.587 330.142C461.435 329.978 461.348 329.764 461.343 329.54C461.343 329.505 461.343 329.476 461.343 329.447C461.366 329.21 461.481 328.992 461.662 328.838C461.844 328.684 462.078 328.607 462.315 328.624C464.145 328.789 465.972 328.996 467.747 329.229C467.985 329.263 468.2 329.389 468.346 329.579C468.419 329.674 468.472 329.782 468.502 329.897C468.532 330.012 468.538 330.132 468.521 330.25C468.494 330.461 468.393 330.655 468.237 330.799C468.081 330.943 467.878 331.027 467.666 331.037L467.65 331.024ZM429.707 330.7C429.481 330.7 429.264 330.616 429.097 330.464C428.93 330.311 428.827 330.102 428.806 329.877V329.845C428.803 329.617 428.886 329.396 429.039 329.227C429.191 329.057 429.402 328.952 429.629 328.931C431.498 328.763 433.325 328.608 435.061 328.504C435.18 328.496 435.299 328.511 435.412 328.549C435.525 328.587 435.63 328.647 435.719 328.726C435.809 328.804 435.883 328.899 435.936 329.006C435.989 329.113 436.02 329.229 436.028 329.348C436.036 329.467 436.021 329.586 435.983 329.699C435.945 329.812 435.885 329.916 435.806 330.006C435.728 330.096 435.633 330.169 435.526 330.222C435.419 330.275 435.303 330.306 435.184 330.315C433.464 330.428 431.644 330.564 429.791 330.729C429.772 330.728 429.752 330.724 429.733 330.719L429.707 330.7ZM451.409 329.848C449.67 329.813 447.865 329.813 446.013 329.848C445.775 329.846 445.548 329.752 445.38 329.585C445.212 329.418 445.116 329.191 445.112 328.954V328.928C445.113 328.692 445.207 328.466 445.374 328.299C445.541 328.132 445.767 328.038 446.003 328.038C447.794 328.012 449.679 328.012 451.461 328.038C451.582 328.035 451.703 328.058 451.814 328.105C451.926 328.153 452.026 328.224 452.109 328.313C452.193 328.398 452.258 328.5 452.302 328.611C452.346 328.722 452.367 328.841 452.365 328.961C452.363 329.081 452.338 329.2 452.291 329.311C452.243 329.422 452.174 329.523 452.088 329.607C452.002 329.691 451.9 329.758 451.787 329.802C451.675 329.847 451.556 329.869 451.435 329.868L451.409 329.848Z" fill="#949494"/>
<path d="M36.1386 34.9691C36.0182 34.9708 35.8988 34.9482 35.7874 34.9026C35.6761 34.8569 35.5752 34.7892 35.4907 34.7034L7.79956 7.0155C7.62989 6.84369 7.53543 6.61152 7.53694 6.37005C7.53846 6.12859 7.63584 5.89762 7.80765 5.72795C7.97947 5.55829 8.21164 5.46383 8.4531 5.46535C8.69457 5.46687 8.92554 5.56425 9.0952 5.73606L36.7864 33.424C36.9125 33.5514 36.9981 33.7133 37.0322 33.8893C37.0664 34.0653 37.0476 34.2475 36.9783 34.4128C36.909 34.5781 36.7922 34.7192 36.6427 34.8182C36.4933 34.9172 36.3178 34.9697 36.1386 34.9691Z" fill="#949494"/>
<path d="M47.8419 22.275C47.6429 22.2742 47.4496 22.2082 47.2916 22.0871C47.1337 21.966 47.0198 21.7965 46.9674 21.6045L41.4933 1.16567C41.431 0.934155 41.4632 0.687374 41.5829 0.479626C41.7026 0.271877 41.8998 0.120175 42.1314 0.0578927C42.3629 -0.00438959 42.6097 0.027852 42.8174 0.14752C43.0252 0.267188 43.1769 0.46448 43.2391 0.695998L48.7165 21.1348C48.7467 21.2501 48.754 21.3702 48.7378 21.4883C48.7216 21.6063 48.6823 21.7201 48.6222 21.823C48.562 21.9258 48.4822 22.0159 48.3872 22.0879C48.2922 22.1599 48.184 22.2124 48.0687 22.2426C47.995 22.2639 47.9186 22.2748 47.8419 22.275Z" fill="#949494"/>
<path d="M23.4447 46.6622C23.3649 46.6623 23.2855 46.6525 23.2082 46.6331L1.12394 40.7152C1.00909 40.6846 0.901395 40.6317 0.807008 40.5594C0.712622 40.4872 0.633391 40.397 0.573836 40.2942C0.514282 40.1913 0.475568 40.0777 0.459912 39.9599C0.444256 39.8421 0.451962 39.7223 0.482588 39.6074C0.513214 39.4926 0.566164 39.3849 0.63841 39.2905C0.710656 39.1961 0.800787 39.1169 0.903654 39.0573C1.00652 38.9978 1.12011 38.9591 1.23793 38.9434C1.35576 38.9278 1.47552 38.9355 1.59037 38.9661L23.6779 44.884C23.8911 44.9394 24.0766 45.0709 24.1997 45.2536C24.3228 45.4363 24.3749 45.6576 24.3463 45.8761C24.3177 46.0945 24.2102 46.2949 24.0442 46.4397C23.8781 46.5845 23.6649 46.6636 23.4447 46.6622Z" fill="#949494"/>
<path d="M334.503 89.7069H334.464C332.65 89.6227 330.811 89.4704 328.987 89.2664C328.765 89.2414 328.561 89.1345 328.414 88.9667C328.267 88.7989 328.189 88.5823 328.193 88.3594C328.192 88.3292 328.192 88.2989 328.193 88.2687C328.225 88.0311 328.348 87.8151 328.536 87.6664C328.724 87.5177 328.962 87.4479 329.201 87.4719C330.96 87.6727 332.764 87.8217 334.548 87.9059C334.788 87.9185 335.013 88.0254 335.174 88.2033C335.334 88.3811 335.418 88.6155 335.407 88.855C335.396 89.0864 335.296 89.3046 335.127 89.4635C334.958 89.6224 334.735 89.7097 334.503 89.7069ZM345.348 89.4866C345.123 89.4845 344.907 89.3992 344.741 89.2473C344.576 89.0954 344.472 88.8876 344.45 88.6639C344.449 88.6402 344.449 88.6164 344.45 88.5926C344.448 88.3647 344.532 88.1444 344.684 87.9748C344.836 87.8052 345.046 87.6986 345.273 87.676C347.038 87.5205 348.836 87.3002 350.598 87.0281C350.835 86.9903 351.078 87.0483 351.272 87.1892C351.467 87.3301 351.597 87.5425 351.635 87.7796C351.673 88.0167 351.615 88.2591 351.474 88.4535C351.333 88.6479 351.12 88.7783 350.883 88.8161C349.069 89.1077 347.233 89.3344 345.435 89.4931C345.41 89.4991 345.384 89.5023 345.357 89.5028L345.348 89.4866ZM318.414 87.3326C318.34 87.3325 318.266 87.3227 318.194 87.3035C316.458 86.8792 314.68 86.3771 312.914 85.8232C312.731 85.7651 312.571 85.6497 312.458 85.4941C312.345 85.3385 312.285 85.1507 312.286 84.9583C312.287 84.8679 312.302 84.7782 312.331 84.6927C312.405 84.4665 312.564 84.2779 312.774 84.1666C312.985 84.0554 313.23 84.0304 313.459 84.0967L313.501 84.1129C315.192 84.6409 316.918 85.1268 318.631 85.5479C318.862 85.611 319.058 85.7614 319.179 85.967C319.3 86.1727 319.336 86.4174 319.279 86.6492C319.231 86.841 319.121 87.0116 318.967 87.1351C318.813 87.2585 318.622 87.3279 318.424 87.3326H318.414ZM361.304 86.3609C361.109 86.3608 360.92 86.2976 360.765 86.1808C360.609 86.064 360.496 85.8998 360.442 85.7131C360.416 85.6257 360.403 85.5352 360.403 85.4442C360.402 85.2492 360.465 85.0594 360.582 84.9033C360.699 84.7473 360.864 84.6336 361.051 84.5794C362.755 84.0611 364.458 83.4684 366.123 82.8238C366.347 82.7424 366.593 82.7506 366.81 82.8466C367.027 82.9426 367.199 83.1189 367.289 83.3388C367.376 83.5626 367.371 83.8117 367.274 84.0315C367.178 84.2513 366.998 84.4239 366.774 84.5114C365.074 85.1592 363.328 85.7714 361.592 86.3091C361.502 86.3393 361.408 86.3546 361.313 86.3544L361.304 86.3609ZM303.051 82.0075C302.925 82.0064 302.801 81.98 302.685 81.9298C301.027 81.1913 299.368 80.3944 297.746 79.562C297.598 79.4856 297.474 79.3699 297.387 79.2276C297.301 79.0853 297.256 78.9219 297.257 78.7554C297.255 78.6121 297.29 78.4707 297.357 78.3441C297.469 78.1346 297.657 77.9764 297.883 77.9028C298.109 77.8291 298.355 77.8457 298.568 77.9489C298.58 77.9573 298.593 77.9638 298.607 77.9683C300.227 78.7911 301.827 79.5685 303.417 80.2778C303.607 80.362 303.762 80.5087 303.856 80.6935C303.95 80.8782 303.978 81.0897 303.934 81.2925C303.891 81.4953 303.779 81.677 303.618 81.8072C303.457 81.9374 303.255 82.0081 303.048 82.0075H303.051ZM376.255 79.9539C376.094 79.9552 375.936 79.9131 375.797 79.8322C375.658 79.7513 375.543 79.6344 375.465 79.494C375.389 79.3561 375.349 79.2013 375.348 79.0437C375.35 78.8839 375.394 78.7274 375.474 78.5894C375.555 78.4515 375.67 78.3368 375.808 78.2566C377.363 77.3918 378.908 76.4492 380.392 75.4742C380.592 75.3457 380.835 75.3003 381.068 75.3474C381.301 75.3946 381.507 75.5306 381.642 75.7269C381.71 75.8257 381.756 75.9373 381.779 76.0549C381.802 76.1724 381.8 76.2934 381.775 76.4103C381.727 76.6448 381.588 76.8509 381.389 76.9836C379.867 77.9845 378.289 78.9271 376.696 79.8373C376.564 79.9122 376.416 79.9524 376.265 79.9539H376.255ZM288.764 74.2142C288.59 74.2133 288.421 74.164 288.274 74.0717C286.768 73.1 285.249 72.0602 283.74 70.9913C283.622 70.9069 283.525 70.7956 283.459 70.6666C283.392 70.5376 283.358 70.3946 283.357 70.2495C283.359 70.063 283.419 69.8817 283.529 69.7313C283.672 69.5412 283.883 69.4133 284.117 69.3741C284.352 69.3349 284.592 69.3874 284.789 69.5207C286.257 70.5702 287.756 71.5905 289.246 72.5493C289.447 72.6804 289.587 72.8855 289.637 73.1197C289.686 73.354 289.642 73.5984 289.512 73.7996C289.432 73.9257 289.321 74.0298 289.191 74.1022C289.06 74.1746 288.913 74.2131 288.764 74.2142ZM389.5 70.5151C389.373 70.5143 389.247 70.4874 389.131 70.4361C389.014 70.3849 388.91 70.3104 388.823 70.2172C388.674 70.0483 388.592 69.8304 388.593 69.605C388.594 69.4791 388.62 69.3548 388.672 69.2399C388.723 69.125 388.798 69.022 388.891 68.9377C390.216 67.7554 391.515 66.4987 392.749 65.216C392.919 65.0434 393.149 64.9438 393.391 64.9384C393.633 64.9329 393.867 65.0221 394.044 65.1868C394.133 65.2695 394.203 65.369 394.252 65.4795C394.301 65.5899 394.327 65.709 394.329 65.8298C394.332 65.9506 394.309 66.0706 394.264 66.1827C394.219 66.2948 394.152 66.3967 394.067 66.4824C392.807 67.8008 391.476 69.0737 390.115 70.3014C389.944 70.4446 389.727 70.5206 389.503 70.5151H389.5ZM275.273 65.0961C275.109 65.0973 274.947 65.0536 274.806 64.9698C273.277 64.0531 271.703 63.1721 270.122 62.3429C269.974 62.2658 269.85 62.1496 269.763 62.0068C269.676 61.864 269.63 61.7002 269.63 61.5331C269.637 61.3904 269.672 61.2504 269.734 61.1217C269.849 60.9132 270.04 60.7571 270.268 60.6859C270.495 60.6147 270.741 60.6339 270.955 60.7395C272.536 61.559 274.142 62.4595 275.742 63.415C275.947 63.5388 276.094 63.7376 276.154 63.9689C276.186 64.1024 276.189 64.2416 276.16 64.3761C276.131 64.5105 276.072 64.6367 275.988 64.7452C275.903 64.8536 275.796 64.9416 275.672 65.0023C275.549 65.0631 275.413 65.0952 275.276 65.0961H275.273ZM192.747 64.8856C192.6 64.885 192.456 64.8491 192.326 64.7809C192.196 64.7127 192.085 64.6141 192.002 64.4936C191.868 64.2952 191.815 64.0527 191.856 63.8167C191.876 63.6992 191.92 63.5871 191.984 63.4869C192.049 63.3867 192.133 63.3006 192.232 63.2336C193.779 62.2164 195.382 61.2854 197.032 60.4447C197.246 60.338 197.493 60.3189 197.721 60.3915C197.949 60.464 198.14 60.6226 198.253 60.8334C198.362 61.0464 198.382 61.2935 198.31 61.5214C198.238 61.7492 198.079 61.9396 197.868 62.0513C196.326 62.8514 195.147 63.5446 194.428 63.9948C193.984 64.2669 193.586 64.5195 193.281 64.7269C193.124 64.8346 192.937 64.8901 192.747 64.8856ZM260.625 58.0284C260.515 58.028 260.406 58.0094 260.301 57.9733C258.627 57.3546 256.913 56.7878 255.206 56.2857C255.018 56.2295 254.853 56.1135 254.736 55.9551C254.619 55.7968 254.557 55.6047 254.559 55.4079C254.56 55.3249 254.57 55.2422 254.591 55.1617C254.663 54.9335 254.821 54.7421 255.031 54.6279C255.241 54.5137 255.488 54.4856 255.718 54.5496C257.461 55.0613 259.216 55.6444 260.927 56.2728C261.126 56.3478 261.292 56.4904 261.397 56.6756C261.501 56.8608 261.537 57.0768 261.499 57.286C261.46 57.4951 261.349 57.6841 261.185 57.8198C261.022 57.9555 260.815 58.0293 260.603 58.0284H260.625ZM207.42 57.8437C207.233 57.8434 207.05 57.7854 206.897 57.6776C206.744 57.5698 206.628 57.4174 206.565 57.2413C206.531 57.1367 206.514 57.0273 206.516 56.9174C206.519 56.7332 206.578 56.5543 206.685 56.4045C206.792 56.2546 206.942 56.1409 207.115 56.0784H207.141C208.851 55.4695 210.601 54.9156 212.346 54.4232C212.519 54.3733 212.703 54.376 212.874 54.431C213.045 54.486 213.196 54.5908 213.307 54.732C213.419 54.8732 213.485 55.0443 213.499 55.2236C213.512 55.4028 213.472 55.5821 213.383 55.7383C213.325 55.8419 213.247 55.9331 213.154 56.0065C213.06 56.0798 212.953 56.134 212.839 56.1659C211.122 56.6453 209.402 57.1959 207.718 57.7854C207.623 57.8237 207.522 57.8466 207.42 57.8534V57.8437ZM244.87 54.0022C244.826 54.007 244.782 54.007 244.738 54.0022C242.963 53.7463 241.175 53.5487 239.406 53.4223C239.179 53.406 238.967 53.3044 238.812 53.1379C238.657 52.9715 238.571 52.7526 238.57 52.5251V52.4571C238.589 52.2172 238.701 51.9943 238.883 51.8371C239.065 51.6799 239.302 51.6012 239.542 51.6182C241.366 51.751 243.205 51.9421 245.003 52.2109C245.234 52.2382 245.445 52.3532 245.593 52.5321C245.741 52.7109 245.815 52.94 245.799 53.1716C245.782 53.4033 245.678 53.6198 245.506 53.7762C245.334 53.9327 245.109 54.0171 244.877 54.0119L244.87 54.0022ZM223.22 53.973C223.002 53.9708 222.792 53.891 222.628 53.7479C222.463 53.6049 222.355 53.4079 222.323 53.1924C222.323 53.1535 222.323 53.1146 222.323 53.0758C222.321 52.8566 222.399 52.6444 222.542 52.4782C222.685 52.3121 222.883 52.2033 223.1 52.172H223.149C224.934 51.9226 226.757 51.7315 228.561 51.6084C228.683 51.5942 228.806 51.6047 228.923 51.6393C229.04 51.6739 229.149 51.7318 229.243 51.8097C229.337 51.8875 229.414 51.9836 229.47 52.0921C229.526 52.2006 229.559 52.3194 229.568 52.4412C229.577 52.5629 229.561 52.6852 229.521 52.8007C229.481 52.9161 229.418 53.0222 229.336 53.1127C229.255 53.2032 229.155 53.2761 229.044 53.3271C228.933 53.3781 228.813 53.4061 228.691 53.4094C226.916 53.5357 225.128 53.7333 223.35 53.973C223.304 53.9762 223.262 53.9827 223.22 53.9827V53.973Z" fill="black"/>
<path fill-rule="evenodd" clip-rule="evenodd" d="M493.991 219.135C493.811 218.461 493.501 217.829 493.076 217.274C492.652 216.72 492.123 216.255 491.519 215.906C490.914 215.557 490.247 215.331 489.555 215.24C488.863 215.15 488.16 215.196 487.486 215.378L435.275 229.368C434.601 229.547 433.968 229.858 433.414 230.283C432.859 230.707 432.394 231.237 432.044 231.841C431.695 232.446 431.468 233.113 431.376 233.805C431.285 234.497 431.331 235.201 431.511 235.875C433.665 243.918 437.811 259.394 439.969 267.437C440.334 268.798 441.226 269.958 442.447 270.662C443.668 271.366 445.118 271.556 446.479 271.191L498.694 257.198C499.368 257.018 500 256.708 500.554 256.283C501.107 255.859 501.572 255.329 501.921 254.725C502.27 254.121 502.496 253.454 502.586 252.762C502.677 252.07 502.63 251.368 502.448 250.694C500.294 242.651 496.135 227.165 493.991 219.135Z" fill="black"/>
<path d="M465.943 245.716C465.138 245.715 464.341 245.558 463.595 245.256C454.418 241.55 431.596 232.319 431.596 232.319L432.276 230.641C432.276 230.641 455.099 239.872 464.272 243.578C465.169 243.94 466.16 244.001 467.095 243.751C468.03 243.501 468.858 242.953 469.454 242.191C475.537 234.417 490.609 215.109 490.609 215.109L492.034 216.223C492.034 216.223 476.963 235.525 470.883 243.299C470.297 244.051 469.548 244.659 468.692 245.078C467.836 245.497 466.896 245.715 465.943 245.716Z" fill="white"/>
<path d="M187.337 343.057C186.225 343.059 185.137 342.73 184.211 342.113C183.286 341.496 182.564 340.618 182.137 339.591C181.711 338.563 181.599 337.432 181.815 336.341C182.031 335.25 182.566 334.247 183.352 333.46C184.138 332.673 185.14 332.137 186.231 331.92C187.322 331.702 188.453 331.813 189.481 332.238C190.509 332.664 191.388 333.385 192.006 334.309C192.624 335.234 192.954 336.322 192.954 337.434C192.952 338.924 192.36 340.352 191.307 341.406C190.254 342.46 188.827 343.054 187.337 343.057ZM187.337 333.622C186.582 333.622 185.844 333.846 185.217 334.265C184.589 334.684 184.1 335.281 183.812 335.978C183.523 336.675 183.448 337.443 183.595 338.183C183.743 338.923 184.106 339.603 184.64 340.137C185.174 340.67 185.854 341.033 186.595 341.18C187.335 341.327 188.102 341.251 188.8 340.962C189.497 340.672 190.092 340.183 190.511 339.555C190.93 338.927 191.153 338.189 191.153 337.434C191.152 336.423 190.75 335.453 190.034 334.738C189.319 334.023 188.349 333.622 187.337 333.622Z" fill="#949494"/>
<path d="M442.317 184.513C441.456 184.513 440.615 184.258 439.899 183.781C439.183 183.303 438.625 182.624 438.295 181.829C437.966 181.034 437.879 180.159 438.047 179.315C438.215 178.47 438.629 177.695 439.238 177.086C439.846 176.478 440.622 176.063 441.466 175.896C442.31 175.728 443.185 175.814 443.98 176.144C444.775 176.474 445.454 177.032 445.932 177.748C446.41 178.463 446.665 179.305 446.664 180.166C446.662 181.318 446.204 182.423 445.389 183.237C444.574 184.052 443.469 184.511 442.317 184.513ZM442.317 177.626C441.815 177.626 441.323 177.774 440.905 178.053C440.487 178.331 440.161 178.728 439.969 179.192C439.776 179.656 439.725 180.166 439.823 180.659C439.92 181.152 440.162 181.605 440.517 181.96C440.872 182.316 441.324 182.558 441.817 182.656C442.31 182.754 442.821 182.704 443.285 182.512C443.749 182.32 444.146 181.994 444.425 181.577C444.704 181.159 444.853 180.668 444.853 180.166C444.852 179.493 444.585 178.848 444.11 178.372C443.634 177.896 442.99 177.628 442.317 177.626Z" fill="black"/>
<path d="M409.974 131.644C409.767 131.645 409.566 131.575 409.405 131.446C409.243 131.316 409.131 131.136 409.087 130.934C409.042 130.732 409.068 130.52 409.161 130.335C409.254 130.15 409.407 130.003 409.595 129.917L436.334 117.515C436.552 117.414 436.801 117.403 437.026 117.486C437.252 117.569 437.435 117.737 437.536 117.955C437.637 118.173 437.647 118.422 437.565 118.647C437.482 118.873 437.313 119.056 437.095 119.157L410.357 131.559C410.236 131.614 410.106 131.643 409.974 131.644Z" fill="#949494"/>
<path d="M101.31 335.954C101.107 335.953 100.91 335.884 100.75 335.758C100.591 335.633 100.477 335.458 100.429 335.261L87.5433 281.841C87.5025 281.671 87.5119 281.493 87.5704 281.328C87.6289 281.163 87.7339 281.019 87.8728 280.913C88.0117 280.806 88.1784 280.743 88.3528 280.729C88.5272 280.716 88.7017 280.753 88.8552 280.837L147.01 312.678C147.162 312.761 147.286 312.887 147.368 313.039C147.451 313.192 147.488 313.364 147.475 313.537C147.463 313.71 147.401 313.875 147.297 314.014C147.194 314.153 147.052 314.259 146.89 314.32L124.715 322.576L101.763 335.857C101.623 335.928 101.467 335.961 101.31 335.954ZM89.7816 283.406L101.906 333.657L123.876 320.963C123.92 320.938 123.965 320.916 124.013 320.898L144.419 313.306L89.7816 283.406Z" fill="black"/>
<path d="M414.091 56.9432C413.932 56.9427 413.776 56.9014 413.638 56.8234L394.339 45.6711L375.695 38.7264C375.533 38.6661 375.391 38.5604 375.287 38.4219C375.184 38.2834 375.122 38.1181 375.109 37.9454C375.096 37.7728 375.134 37.6002 375.216 37.4481C375.299 37.296 375.423 37.1708 375.575 37.0875L424.486 10.3065C424.639 10.2223 424.814 10.1846 424.989 10.1981C425.164 10.2116 425.331 10.2756 425.47 10.3824C425.609 10.4892 425.714 10.6341 425.772 10.7994C425.83 10.9648 425.839 11.1435 425.798 11.3138L414.956 56.2501C414.924 56.387 414.86 56.5145 414.77 56.622C414.679 56.7295 414.564 56.8141 414.435 56.8687C414.327 56.917 414.21 56.9423 414.091 56.9432ZM378.183 37.7223L395.042 43.9997C395.089 44.0187 395.134 44.0403 395.178 44.0645L413.495 54.6499L423.572 12.8654L378.183 37.7223Z" fill="#949494"/>
<path d="M123.818 322.518C123.69 322.518 123.564 322.491 123.447 322.439C123.33 322.386 123.226 322.309 123.141 322.214L88.6122 283.202C88.5335 283.113 88.4731 283.009 88.4344 282.897C88.3957 282.785 88.3795 282.666 88.3867 282.548C88.394 282.429 88.4244 282.313 88.4765 282.206C88.5285 282.1 88.601 282.004 88.6899 281.926C88.7788 281.847 88.8824 281.786 88.9946 281.748C89.1068 281.709 89.2256 281.693 89.3441 281.7C89.4626 281.707 89.5786 281.738 89.6853 281.79C89.792 281.842 89.8874 281.914 89.9661 282.003L124.495 321.005C124.574 321.094 124.635 321.198 124.674 321.31C124.713 321.422 124.729 321.541 124.722 321.659C124.715 321.778 124.685 321.894 124.633 322C124.582 322.107 124.509 322.203 124.421 322.282C124.255 322.431 124.041 322.516 123.818 322.518Z" fill="black"/>
<path d="M395.156 45.642C394.981 45.6433 394.809 45.5937 394.662 45.4993C394.514 45.4049 394.397 45.2698 394.325 45.1103C394.253 44.9507 394.229 44.7737 394.256 44.6008C394.282 44.4278 394.359 44.2663 394.475 44.1358L423.524 11.3268C423.683 11.1468 423.907 11.0374 424.146 11.0225C424.386 11.0076 424.622 11.0885 424.802 11.2475C424.982 11.4064 425.091 11.6303 425.106 11.8699C425.121 12.1096 425.04 12.3453 424.881 12.5253L395.833 45.3375C395.747 45.433 395.643 45.5094 395.526 45.5619C395.41 45.6144 395.283 45.6416 395.156 45.642Z" fill="#949494"/>
<path d="M116.834 336.67C116.702 336.671 116.57 336.642 116.45 336.586C116.329 336.53 116.223 336.448 116.138 336.346L110.761 329.845C110.677 329.754 110.612 329.648 110.571 329.531C110.529 329.415 110.512 329.291 110.52 329.168C110.528 329.044 110.561 328.924 110.617 328.814C110.674 328.704 110.752 328.606 110.847 328.528C110.943 328.449 111.053 328.39 111.172 328.356C111.29 328.321 111.415 328.312 111.538 328.327C111.66 328.342 111.779 328.383 111.885 328.445C111.992 328.508 112.084 328.592 112.157 328.692L116.643 334.121L122.629 321.906C122.748 321.715 122.934 321.575 123.15 321.513C123.366 321.451 123.598 321.472 123.8 321.571C124.002 321.671 124.159 321.841 124.242 322.05C124.325 322.259 124.328 322.492 124.249 322.703L117.644 336.177C117.577 336.313 117.478 336.429 117.354 336.516C117.231 336.603 117.088 336.658 116.938 336.676L116.834 336.67Z" fill="black"/>
<path d="M401.028 57.5456C400.993 57.5489 400.957 57.5489 400.921 57.5456C400.771 57.5278 400.628 57.4729 400.505 57.3858C400.382 57.2987 400.282 57.1822 400.215 57.0468L394.66 45.7099C394.6 45.6028 394.563 45.4847 394.55 45.3627C394.537 45.2407 394.55 45.1174 394.586 45.0003C394.623 44.8832 394.683 44.7748 394.762 44.6816C394.842 44.5884 394.94 44.5125 395.05 44.4583C395.16 44.4042 395.28 44.373 395.402 44.3667C395.525 44.3604 395.647 44.3791 395.762 44.4216C395.877 44.4642 395.983 44.5297 396.072 44.6142C396.16 44.6987 396.231 44.8004 396.28 44.9131L401.219 54.9867L404.85 50.5913C405.008 50.422 405.224 50.3194 405.455 50.3043C405.685 50.2892 405.913 50.3628 406.092 50.51C406.27 50.6573 406.385 50.8671 406.414 51.0965C406.443 51.3259 406.383 51.5577 406.246 51.7444L401.712 57.2217C401.628 57.3219 401.523 57.4027 401.405 57.4586C401.287 57.5145 401.159 57.5442 401.028 57.5456Z" fill="#949494"/>
<path fill-rule="evenodd" clip-rule="evenodd" d="M252.596 105.326C252.596 105.326 255.261 120.683 258.287 127.501C258.287 127.501 253.357 142.598 263.754 139.486C263.754 139.486 272.202 163.552 294.724 152.28L298.711 164.184L341.629 156.501L332.038 132.975L310.336 94.7534L252.596 105.326Z" fill="white"/>
<path d="M298.711 165.071C298.521 165.071 298.337 165.012 298.183 164.9C298.03 164.789 297.915 164.633 297.856 164.453L294.192 153.527C287.714 156.543 281.761 156.987 276.465 154.842C268.302 151.542 264.289 143.181 263.207 140.551C260.846 141.099 259.032 140.746 257.811 139.495C254.856 136.473 256.777 129.347 257.321 127.553C254.348 120.576 251.815 106.1 251.705 105.478C251.664 105.243 251.718 105.002 251.855 104.807C251.991 104.611 252.199 104.478 252.434 104.435L310.181 93.8789C310.365 93.8446 310.556 93.869 310.726 93.9485C310.896 94.0281 311.037 94.1589 311.13 94.3226L332.832 132.544C332.852 132.578 332.869 132.614 332.883 132.651L342.475 156.174C342.526 156.298 342.548 156.433 342.541 156.567C342.533 156.702 342.495 156.833 342.429 156.951C342.363 157.071 342.27 157.175 342.158 157.254C342.046 157.333 341.917 157.385 341.781 157.408L298.873 165.058C298.819 165.068 298.765 165.072 298.711 165.071ZM294.723 151.37C294.842 151.37 294.96 151.393 295.07 151.438C295.189 151.488 295.296 151.563 295.384 151.657C295.472 151.751 295.54 151.863 295.582 151.985L299.323 163.147L340.363 155.814L331.219 133.38L309.886 95.7738L253.658 106.051C254.277 109.404 256.593 121.424 259.129 127.135C259.217 127.34 259.229 127.57 259.161 127.783C258.449 129.972 257.049 136.117 259.119 138.232C259.968 139.1 261.445 139.223 263.508 138.605C263.731 138.537 263.971 138.558 264.178 138.663C264.386 138.768 264.545 138.949 264.622 139.168C264.658 139.275 268.396 149.63 277.164 153.171C282.211 155.208 287.986 154.632 294.332 151.454C294.454 151.398 294.588 151.369 294.723 151.37Z" fill="black"/>
<path d="M299.197 117.722C299.026 117.722 298.859 117.673 298.715 117.583C298.571 117.492 298.456 117.362 298.382 117.208C298.309 117.054 298.28 116.883 298.3 116.714C298.32 116.544 298.387 116.384 298.494 116.251C303.297 110.285 308.444 107.554 308.661 107.441C308.876 107.33 309.126 107.308 309.357 107.382C309.587 107.455 309.779 107.617 309.89 107.831C310.002 108.046 310.023 108.296 309.95 108.527C309.877 108.757 309.715 108.949 309.5 109.061C309.448 109.087 304.454 111.746 299.903 117.401C299.816 117.504 299.708 117.585 299.586 117.641C299.464 117.696 299.331 117.724 299.197 117.722Z" fill="black"/>
<path d="M307.942 116.847C307.775 116.847 307.611 116.8 307.47 116.711C307.437 116.711 304.402 114.829 302.2 114.12C302.086 114.084 301.981 114.025 301.891 113.948C301.8 113.872 301.726 113.778 301.671 113.672C301.617 113.566 301.584 113.451 301.574 113.332C301.565 113.214 301.578 113.095 301.615 112.981C301.651 112.868 301.709 112.763 301.786 112.673C301.863 112.582 301.957 112.508 302.063 112.453C302.169 112.399 302.284 112.366 302.403 112.356C302.521 112.347 302.64 112.36 302.753 112.397C305.167 113.171 308.286 115.089 308.419 115.169C308.587 115.272 308.717 115.428 308.789 115.612C308.861 115.795 308.87 115.998 308.816 116.188C308.762 116.377 308.648 116.544 308.49 116.663C308.332 116.781 308.14 116.845 307.942 116.844V116.847Z" fill="black"/>
<path fill-rule="evenodd" clip-rule="evenodd" d="M294.183 107.801C294.183 107.801 295.154 112.102 294.921 119.529C294.917 119.612 294.891 119.692 294.845 119.761C294.8 119.83 294.736 119.885 294.662 119.921C294.584 119.954 294.498 119.966 294.414 119.954C294.329 119.943 294.25 119.909 294.183 119.857C292.793 118.532 289.492 115.098 286.211 109.19C286.211 109.19 264.406 112.319 252.848 106.411L253.587 110.061C253.587 110.061 244.193 105.128 246.354 93.8141L241.988 98.4168C241.988 98.4168 245.463 56.1043 286.211 47.8867C318.968 41.308 332.531 61.465 332.531 61.465C332.531 61.465 358.184 73.8222 350.168 99.7999C343.304 122.066 340.068 125.454 334.4 138.183L328.997 139.23L311.013 121.139C311.013 121.139 318.463 115.309 312.957 106.411C309.912 101.565 300.787 99.6121 294.183 107.801Z" fill="black"/>
<path d="M261.063 114.564C260.856 114.565 260.656 114.494 260.496 114.363C260.403 114.289 260.327 114.198 260.27 114.094C260.213 113.99 260.177 113.876 260.164 113.759C260.151 113.641 260.161 113.522 260.194 113.408C260.227 113.295 260.282 113.189 260.357 113.097C260.444 112.986 262.585 110.363 267.159 108.886C267.272 108.85 267.391 108.836 267.509 108.846C267.628 108.856 267.743 108.889 267.849 108.943C267.954 108.998 268.048 109.073 268.125 109.163C268.201 109.254 268.259 109.359 268.296 109.472C268.332 109.585 268.345 109.704 268.335 109.823C268.325 109.941 268.292 110.056 268.238 110.162C268.183 110.267 268.109 110.361 268.018 110.438C267.927 110.515 267.822 110.573 267.709 110.609C263.703 111.905 261.798 114.191 261.778 114.214C261.694 114.323 261.585 114.411 261.461 114.472C261.337 114.533 261.201 114.564 261.063 114.564Z" fill="black"/>
<path fill-rule="evenodd" clip-rule="evenodd" d="M266.543 117.184C267.104 117.108 267.675 117.2 268.184 117.448C268.693 117.697 269.117 118.09 269.402 118.58C269.687 119.069 269.821 119.632 269.786 120.197C269.752 120.762 269.55 121.305 269.207 121.755C268.864 122.206 268.396 122.545 267.86 122.729C267.325 122.913 266.746 122.935 266.199 122.79C265.651 122.646 265.159 122.343 264.784 121.918C264.408 121.494 264.167 120.968 264.091 120.407C263.99 119.655 264.191 118.893 264.651 118.289C265.11 117.684 265.791 117.287 266.543 117.184Z" fill="black"/>
<path fill-rule="evenodd" clip-rule="evenodd" d="M285.395 128.958C286.923 130.541 287.759 132.665 287.721 134.865C287.682 137.064 286.772 139.158 285.189 140.686C283.607 142.213 281.482 143.05 279.283 143.012C277.084 142.973 274.99 142.062 273.462 140.48L285.395 128.958Z" fill="white"/>
<path d="M279.438 143.92C278.204 143.922 276.982 143.675 275.846 143.194C274.71 142.712 273.683 142.006 272.827 141.118C272.743 141.033 272.678 140.931 272.634 140.82C272.591 140.709 272.571 140.59 272.574 140.47C272.575 140.349 272.599 140.23 272.646 140.119C272.694 140.007 272.763 139.907 272.85 139.822L284.782 128.301C284.959 128.138 285.19 128.047 285.43 128.048C285.551 128.049 285.671 128.073 285.782 128.12C285.893 128.168 285.994 128.237 286.078 128.324C287.338 129.623 288.186 131.265 288.517 133.045C288.847 134.824 288.645 136.661 287.936 138.326C287.227 139.992 286.043 141.41 284.531 142.405C283.019 143.4 281.248 143.927 279.438 143.92ZM274.796 140.473C276.199 141.603 277.965 142.181 279.764 142.1C281.563 142.02 283.27 141.285 284.566 140.034C285.861 138.784 286.656 137.103 286.8 135.308C286.944 133.514 286.428 131.728 285.349 130.286L274.796 140.473Z" fill="black"/>
<path fill-rule="evenodd" clip-rule="evenodd" d="M283.108 399.123L272.399 260.628V196.335L343.751 186.78L389.098 205.959C397.287 206.785 423.831 309.72 433.15 399.123H283.108Z" fill="white"/>
<path d="M433.156 400.027H283.108C282.879 400.027 282.659 399.942 282.491 399.787C282.324 399.631 282.221 399.419 282.204 399.191L271.495 260.7C271.495 260.677 271.495 260.654 271.495 260.628V196.335C271.496 196.116 271.575 195.905 271.719 195.74C271.863 195.575 272.062 195.468 272.279 195.438L343.634 185.882C343.794 185.86 343.957 185.882 344.107 185.944L389.341 205.074C390.426 205.217 393.092 206.224 398.99 223.625C402.854 235.013 407.208 250.742 411.59 269.115C421.67 311.398 429.859 358.747 434.057 399.029C434.07 399.155 434.057 399.283 434.018 399.403C433.979 399.524 433.915 399.635 433.83 399.729C433.745 399.823 433.641 399.898 433.525 399.949C433.409 400 433.283 400.027 433.156 400.027ZM283.943 398.219H432.149C427.938 358.229 419.808 311.411 409.825 269.533C405.459 251.215 401.118 235.541 397.273 224.208C391.641 207.585 389.266 206.885 389.014 206.859C388.923 206.849 388.835 206.826 388.751 206.791L343.627 187.709L273.303 197.125V260.612L283.943 398.219Z" fill="black"/>
<path fill-rule="evenodd" clip-rule="evenodd" d="M277.436 180.11C277.436 180.11 276.678 169.596 285.67 163.471C294.661 157.346 350.225 141.665 375.335 151.133C384.728 154.674 386.866 163.766 390.387 177.004C392.233 183.975 391.035 186.171 396.467 196.095C401.899 206.02 393.254 214.756 381.959 214.711C370.664 214.665 341.622 212.994 312.885 202.179C284.147 191.363 278.003 196.64 271.596 199.94C271.596 199.956 266.925 186.125 277.436 180.11Z" fill="#949494"/>
<path d="M296.951 181.817C296.859 181.818 296.767 181.804 296.679 181.775C288.906 179.31 281.106 180.998 281.028 181.014C280.794 181.067 280.549 181.024 280.346 180.895C280.143 180.767 280 180.563 279.948 180.329C279.895 180.095 279.938 179.85 280.067 179.647C280.195 179.444 280.399 179.301 280.633 179.249C280.957 179.174 288.977 177.435 297.227 180.049C297.431 180.116 297.605 180.253 297.717 180.437C297.829 180.62 297.873 180.838 297.84 181.05C297.807 181.262 297.699 181.456 297.537 181.597C297.374 181.737 297.166 181.816 296.951 181.817Z" fill="black"/>
<path d="M372.433 193.206C368.198 193.183 363.972 192.806 359.8 192.079C359.563 192.039 359.352 191.907 359.213 191.711C359.074 191.515 359.018 191.273 359.058 191.036C359.098 190.799 359.231 190.588 359.426 190.449C359.622 190.31 359.865 190.254 360.101 190.294C370.674 192.076 378.065 191.344 382.403 190.414C387.093 189.41 389.318 187.972 389.341 187.959C389.44 187.893 389.551 187.847 389.667 187.825C389.784 187.802 389.903 187.802 390.02 187.825C390.136 187.849 390.247 187.895 390.345 187.961C390.444 188.028 390.529 188.112 390.594 188.211C390.66 188.31 390.706 188.421 390.728 188.538C390.751 188.654 390.751 188.774 390.728 188.89C390.704 189.007 390.658 189.118 390.592 189.216C390.526 189.315 390.441 189.399 390.342 189.465C390.053 189.659 384.55 193.206 372.433 193.206Z" fill="black"/>
<path fill-rule="evenodd" clip-rule="evenodd" d="M185.827 113.909C185.827 112.919 185.632 111.939 185.253 111.024C184.873 110.109 184.317 109.278 183.616 108.579C182.915 107.879 182.083 107.325 181.167 106.947C180.252 106.57 179.271 106.376 178.28 106.379H29.6049C27.6041 106.376 25.6841 107.168 24.2666 108.58C22.849 109.992 22.0499 111.909 22.0448 113.909V208.469C22.0499 210.47 22.8489 212.387 24.2664 213.8C25.6838 215.212 27.6038 216.005 29.6049 216.003H178.28C179.271 216.005 180.252 215.811 181.167 215.433C182.083 215.055 182.915 214.501 183.616 213.801C184.317 213.101 184.873 212.27 185.253 211.355C185.632 210.44 185.827 209.459 185.827 208.469V113.909Z" fill="black"/>
<path fill-rule="evenodd" clip-rule="evenodd" d="M166.392 46.2898C166.397 45.4653 166.237 44.6482 165.921 43.8867C165.605 43.1251 165.139 42.4345 164.553 41.8554C163.97 41.2711 163.278 40.8077 162.516 40.4919C161.754 40.1761 160.937 40.0143 160.112 40.0156H47.7598C46.0948 40.019 44.4986 40.6804 43.3191 41.8557C42.1396 43.0309 41.4724 44.6248 41.463 46.2898V121.029L97.4543 163.257C99.3179 164.669 101.591 165.435 103.929 165.439C106.267 165.443 108.542 164.685 110.411 163.28C126.389 151.224 166.392 121.029 166.392 121.029V46.2898Z" fill="white"/>
<path d="M103.949 166.325C101.41 166.328 98.9396 165.505 96.9104 163.98L40.9191 121.751C40.8075 121.667 40.717 121.558 40.6546 121.432C40.5922 121.307 40.5597 121.169 40.5596 121.029V46.2898C40.5681 44.3848 41.3302 42.5607 42.6794 41.2157C44.0285 39.8708 45.8551 39.1145 47.7601 39.1119H160.125C162.029 39.1119 163.856 39.868 165.203 41.2139C166.55 42.5598 167.308 44.3855 167.309 46.2898V121.029C167.309 121.169 167.277 121.307 167.214 121.432C167.152 121.558 167.061 121.667 166.95 121.751C166.95 121.751 126.934 151.946 110.942 164.002C108.925 165.514 106.47 166.33 103.949 166.325ZM42.3702 120.576L98.002 162.535C99.7106 163.817 101.788 164.512 103.924 164.516C106.06 164.52 108.14 163.833 109.854 162.558C124.955 151.172 161.489 123.604 165.502 120.576V46.2898C165.502 45.5839 165.363 44.8848 165.093 44.2326C164.822 43.5805 164.426 42.9879 163.927 42.4889C163.427 41.9899 162.835 41.5941 162.182 41.3242C161.53 41.0544 160.831 40.9157 160.125 40.9161H47.7601C46.335 40.9195 44.969 41.4858 43.9595 42.4917C42.95 43.4975 42.3788 44.8615 42.3702 46.2866V120.576Z" fill="black"/>
<path d="M103.972 166.27C101.428 166.276 98.9517 165.456 96.9139 163.934C77.9651 149.621 24.1958 109.08 24.1958 109.08L25.2841 107.635C25.2841 107.635 79.0534 148.176 97.999 162.474C99.7265 163.757 101.821 164.45 103.974 164.45C106.126 164.45 108.221 163.757 109.948 162.474C128.894 148.176 182.66 107.642 182.66 107.642L183.748 109.087C183.748 109.087 129.979 149.627 111.033 163.921C108.995 165.447 106.518 166.271 103.972 166.27Z" fill="white"/>
<path d="M105.604 65.3942H61.3127C61.0819 65.3804 60.8652 65.279 60.7067 65.1107C60.5482 64.9424 60.4599 64.72 60.4599 64.4888C60.4599 64.2577 60.5482 64.0352 60.7067 63.867C60.8652 63.6987 61.0819 63.5973 61.3127 63.5835H105.604C105.835 63.5973 106.052 63.6987 106.21 63.867C106.369 64.0352 106.457 64.2577 106.457 64.4888C106.457 64.72 106.369 64.9424 106.21 65.1107C106.052 65.279 105.835 65.3804 105.604 65.3942Z" fill="#949494"/>
<path d="M146.556 83.2092H61.3677C61.137 83.1954 60.9202 83.094 60.7617 82.9258C60.6032 82.7575 60.515 82.5351 60.515 82.3039C60.515 82.0727 60.6032 81.8503 60.7617 81.682C60.9202 81.5138 61.137 81.4124 61.3677 81.3986H146.556C146.787 81.4124 147.004 81.5138 147.162 81.682C147.321 81.8503 147.409 82.0727 147.409 82.3039C147.409 82.5351 147.321 82.7575 147.162 82.9258C147.004 83.094 146.787 83.1954 146.556 83.2092Z" fill="#949494"/>
<path d="M146.556 101.021H61.3677C61.137 101.007 60.9202 100.906 60.7617 100.738C60.6032 100.569 60.515 100.347 60.515 100.116C60.515 99.8846 60.6032 99.6622 60.7617 99.4939C60.9202 99.3257 61.137 99.2243 61.3677 99.2104H146.556C146.787 99.2243 147.004 99.3257 147.162 99.4939C147.321 99.6622 147.409 99.8846 147.409 100.116C147.409 100.347 147.321 100.569 147.162 100.738C147.004 100.906 146.787 101.007 146.556 101.021Z" fill="#949494"/>
<path d="M146.556 118.83H61.3675C61.1278 118.83 60.8979 118.735 60.7284 118.565C60.559 118.396 60.4637 118.166 60.4637 117.926C60.4637 117.686 60.559 117.456 60.7284 117.287C60.8979 117.118 61.1278 117.022 61.3675 117.022H146.556C146.796 117.022 147.026 117.118 147.195 117.287C147.365 117.456 147.46 117.686 147.46 117.926C147.46 118.166 147.365 118.396 147.195 118.565C147.026 118.735 146.796 118.83 146.556 118.83Z" fill="#949494"/>
<path fill-rule="evenodd" clip-rule="evenodd" d="M189.89 199.723C189.89 199.723 186.09 191.535 185.294 186.621C184.497 181.707 181.429 176.295 179.139 174.021C176.953 171.838 173.309 174.021 173.309 174.021C173.309 174.021 162.83 159.792 157.972 153.21C157.337 152.355 156.39 151.787 155.337 151.629C154.285 151.472 153.212 151.737 152.355 152.367C151.747 152.81 151.328 153.465 151.181 154.203C151.033 154.94 151.168 155.706 151.558 156.348C155.037 162.15 163.773 176.683 163.773 176.683C163.773 176.683 158.914 178.387 157.45 182.514C157.45 182.514 152.514 185.105 152.268 189.747C151.276 190.833 150.564 192.144 150.192 193.566C149.821 194.989 149.8 196.48 150.133 197.913C151.27 202.872 157.457 207.125 160.935 209.194C164.414 211.264 167.689 215.349 167.689 215.349L178.313 212.165L189.89 199.723Z" fill="white"/>
<path d="M167.689 216.278C167.554 216.278 167.421 216.247 167.299 216.188C167.177 216.129 167.071 216.044 166.986 215.938C166.954 215.899 163.767 211.967 160.469 209.985C155.98 207.313 150.386 203.089 149.249 198.13C148.893 196.606 148.901 195.02 149.273 193.501C149.645 191.981 150.37 190.571 151.39 189.384C151.805 185.147 155.601 182.582 156.725 181.908C157.975 178.786 160.906 177.017 162.468 176.266L150.787 156.831C150.275 155.996 150.096 154.998 150.288 154.037C150.479 153.076 151.027 152.223 151.821 151.648C152.869 150.872 154.182 150.543 155.473 150.734C156.763 150.925 157.925 151.619 158.704 152.665C162.95 158.428 171.54 170.066 173.604 172.865C174.935 172.265 177.779 171.368 179.79 173.376C182.301 175.887 185.378 181.474 186.184 186.475C186.952 191.204 190.671 199.257 190.719 199.338C190.795 199.501 190.821 199.683 190.793 199.86C190.765 200.038 190.686 200.203 190.564 200.335L178.984 212.8C178.874 212.917 178.736 213.004 178.582 213.052L167.961 216.236C167.873 216.264 167.781 216.278 167.689 216.278ZM154.733 152.487C154.07 152.487 153.424 152.7 152.893 153.096C152.468 153.405 152.174 153.862 152.069 154.378C151.965 154.893 152.058 155.429 152.329 155.879L164.547 176.217C164.618 176.332 164.661 176.461 164.675 176.595C164.688 176.729 164.672 176.864 164.626 176.991C164.58 177.117 164.507 177.232 164.411 177.326C164.315 177.421 164.199 177.492 164.071 177.535C164.029 177.552 159.595 179.155 158.302 182.828C158.227 183.044 158.073 183.223 157.871 183.33C157.826 183.353 153.385 185.75 153.168 189.808C153.155 190.034 153.058 190.246 152.896 190.404C152.01 191.379 151.375 192.554 151.046 193.829C150.717 195.104 150.704 196.44 151.008 197.721C152.054 202.285 157.962 206.386 161.392 208.411C164.308 210.156 167.006 213.156 167.997 214.312L177.808 211.371L188.821 199.529C187.947 197.585 185.103 191.036 184.409 186.747C183.671 182.167 180.778 176.897 178.521 174.643C176.869 172.988 173.83 174.763 173.801 174.779C173.608 174.894 173.379 174.933 173.159 174.888C172.939 174.844 172.743 174.72 172.609 174.539C172.609 174.539 162.102 160.287 157.256 153.728C156.962 153.338 156.58 153.023 156.142 152.807C155.704 152.592 155.221 152.482 154.733 152.487Z" fill="black"/>
<path d="M179.279 182.825C179.138 182.825 179 182.792 178.875 182.729C178.749 182.666 178.64 182.575 178.556 182.462L174.154 176.632C174.025 176.439 173.974 176.204 174.013 175.975C174.052 175.746 174.177 175.541 174.362 175.401C174.548 175.262 174.78 175.199 175.011 175.225C175.241 175.252 175.453 175.365 175.602 175.543L180.001 181.374C180.146 181.566 180.208 181.807 180.175 182.045C180.141 182.284 180.015 182.499 179.823 182.643C179.665 182.76 179.475 182.824 179.279 182.825Z" fill="black"/>
<path fill-rule="evenodd" clip-rule="evenodd" d="M201.263 208.433C204.281 208.498 206.238 209.405 208.473 211.539C214.708 217.512 227.218 230.87 247.527 258.306C247.527 258.306 261.3 211.41 271.312 200.397C281.324 189.384 320.64 205.285 310.858 248.161C301.076 291.037 285.029 330.616 258.031 331.244C231.033 331.872 212.091 306.721 192.349 278.897C172.606 251.073 169.454 234.479 171.43 228.765C171.499 228.543 171.586 228.326 171.689 228.117C171.126 226.945 169.063 223.686 167.479 220.599C166.875 219.438 166.65 218.117 166.832 216.821C167.015 215.525 167.598 214.319 168.499 213.37C174.345 207.259 181.407 202.441 189.229 199.228C190.116 198.868 191.094 198.796 192.024 199.022C192.954 199.248 193.789 199.761 194.412 200.488C197.071 203.545 201.263 208.433 201.263 208.433Z" fill="white"/>
<path d="M257.089 332.161C229.051 332.161 209.185 304.162 191.629 279.422C172.46 252.436 168.308 235.127 170.575 228.493C170.595 228.431 170.634 228.315 170.698 228.143C170.429 227.644 170.005 226.916 169.529 226.102C168.671 224.629 167.602 222.799 166.682 221.011C165.996 219.682 165.739 218.173 165.948 216.692C166.157 215.211 166.821 213.832 167.848 212.744C173.788 206.543 180.959 201.653 188.902 198.389C189.966 197.955 191.14 197.867 192.256 198.137C193.373 198.408 194.377 199.023 195.124 199.895C197.392 202.502 200.754 206.435 201.706 207.542C204.647 207.682 206.756 208.64 209.114 210.885C215.952 217.448 228.089 230.644 247.177 256.317C249.81 247.6 261.588 209.751 270.644 199.791C275.024 194.981 284.32 194.881 293.244 199.545C306.045 206.234 317.628 222.572 311.749 248.365C299.233 303.43 281.168 331.61 258.064 332.151C257.737 332.158 257.413 332.161 257.089 332.161ZM190.952 199.791C190.478 199.792 190.009 199.885 189.569 200.063C181.87 203.232 174.919 207.977 169.163 213.991C168.393 214.806 167.894 215.84 167.737 216.95C167.58 218.06 167.771 219.191 168.285 220.188C169.186 221.937 170.229 223.751 171.087 225.196C171.735 226.313 172.256 227.194 172.512 227.729C172.571 227.85 172.601 227.983 172.601 228.117C172.601 228.252 172.571 228.385 172.512 228.506C172.431 228.671 172.361 228.842 172.305 229.018C172.304 229.034 172.304 229.05 172.305 229.066C170.572 234.071 173.005 250.088 193.103 278.379C202.96 292.271 212.674 305.551 223.078 315.074C234.758 325.764 245.859 330.645 258.018 330.34C280.187 329.822 297.672 302.105 309.98 247.96C315.632 223.171 304.606 207.523 292.401 201.145C284.336 196.934 275.746 196.87 271.995 201.006C262.236 211.74 248.547 258.092 248.408 258.562C248.36 258.723 248.269 258.868 248.143 258.98C248.018 259.092 247.864 259.167 247.698 259.196C247.533 259.225 247.362 259.208 247.206 259.146C247.05 259.083 246.914 258.979 246.814 258.843C226.142 230.922 213.536 217.632 207.861 212.2C205.71 210.15 203.974 209.405 201.256 209.343C201.128 209.34 201.003 209.309 200.888 209.253C200.773 209.197 200.671 209.118 200.589 209.019C200.589 209.019 196.397 204.135 193.748 201.074C193.403 200.67 192.974 200.346 192.492 200.124C192.009 199.903 191.484 199.789 190.952 199.791Z" fill="black"/>
<path d="M175.34 225.704C175.166 225.701 174.996 225.648 174.852 225.55C174.707 225.453 174.594 225.316 174.526 225.156C174.457 224.996 174.436 224.819 174.466 224.648C174.495 224.476 174.574 224.316 174.692 224.188C175.061 223.784 183.904 214.27 196.371 209.541C196.596 209.455 196.845 209.462 197.064 209.56C197.283 209.657 197.455 209.838 197.541 210.063C197.627 210.287 197.62 210.536 197.522 210.755C197.424 210.975 197.243 211.146 197.019 211.232C184.963 215.806 176.117 225.316 176.03 225.413C175.942 225.508 175.836 225.583 175.717 225.634C175.597 225.684 175.469 225.708 175.34 225.704Z" fill="black"/>
<path d="M258.909 292.812H258.88C258.64 292.804 258.413 292.7 258.249 292.525C258.085 292.349 257.998 292.116 258.006 291.876C258.534 275.975 246.879 258.97 246.763 258.798C246.695 258.701 246.647 258.591 246.622 258.475C246.597 258.359 246.595 258.239 246.616 258.122C246.637 258.005 246.681 257.893 246.746 257.794C246.81 257.694 246.893 257.608 246.991 257.54C247.089 257.472 247.199 257.425 247.315 257.399C247.431 257.374 247.551 257.372 247.667 257.393C247.784 257.415 247.896 257.459 247.996 257.523C248.096 257.587 248.182 257.671 248.249 257.768C248.745 258.481 260.36 275.428 259.813 291.938C259.805 292.172 259.707 292.395 259.538 292.558C259.37 292.721 259.144 292.812 258.909 292.812Z" fill="black"/>
<path d="M529.039 400.02H32.295C32.0642 400.006 31.8475 399.905 31.689 399.737C31.5305 399.569 31.4422 399.346 31.4422 399.115C31.4422 398.884 31.5305 398.661 31.689 398.493C31.8475 398.325 32.0642 398.223 32.295 398.21H529.039C529.162 398.202 529.286 398.22 529.402 398.262C529.518 398.304 529.625 398.37 529.715 398.455C529.805 398.54 529.877 398.642 529.926 398.755C529.975 398.869 530 398.991 530 399.115C530 399.239 529.975 399.361 529.926 399.475C529.877 399.588 529.805 399.69 529.715 399.775C529.625 399.86 529.518 399.925 529.402 399.968C529.286 400.01 529.162 400.028 529.039 400.02Z" fill="black"/>
</svg>
